SplineFontDB: 3.0
FontName: cpp_delius_unicase
FullName: cpp_delius_unicase
FamilyName: cpp_delius_unicase
Weight: Regular
Copyright: Copyright (c) 2010, 2011, Natalia Raices<nraices@gmail.com>, with Reserved Font Name "Delius" "Delius Unicase" "Delius Swash Caps".\nmodiphaid phor voes c++ & maThs simbALs\nvimalkg@gmail.com
UComments: "cpp_delius_unicase is phor c+-+- mAThs"
Version: 1.002
ItalicAngle: 0
UnderlinePosition: -200
UnderlineWidth: 50
Ascent: 800
Descent: 200
InvalidEm: 0
sfntRevision: 0x00010083
LayerCount: 2
Layer: 0 1 "Back" 1
Layer: 1 1 "Fore" 0
NeedsXUIDChange: 1
XUID: [1021 467 -1121320856 7697863]
UniqueID: 8281311
UseXUID: 1
UseUniqueID: 1
StyleMap: 0x0040
FSType: 0
OS2Version: 2
OS2_WeightWidthSlopeOnly: 0
OS2_UseTypoMetrics: 0
CreationTime: 1315000256
ModificationTime: 1578928808
PfmFamily: 17
TTFWeight: 400
TTFWidth: 5
LineGap: 0
VLineGap: 0
Panose: 2 0 6 3 0 0 0 0 0 0
OS2TypoAscent: 1016
OS2TypoAOffset: 0
OS2TypoDescent: -236
OS2TypoDOffset: 0
OS2TypoLinegap: 0
OS2WinAscent: 1016
OS2WinAOffset: 0
OS2WinDescent: 236
OS2WinDOffset: 0
HheadAscent: 1016
HheadAOffset: 0
HheadDescent: -236
HheadDOffset: 0
OS2SubXSize: 700
OS2SubYSize: 650
OS2SubXOff: 0
OS2SubYOff: 140
OS2SupXSize: 700
OS2SupYSize: 650
OS2SupXOff: 0
OS2SupYOff: 477
OS2StrikeYSize: 50
OS2StrikeYPos: 250
OS2CapHeight: 195
OS2XHeight: 320
OS2FamilyClass: 2560
OS2Vendor: 'pyrs'
OS2CodePages: 00000001.00000000
OS2UnicodeRanges: 00000061.00000000.00000000.00000000
Lookup: 258 0 0 "'kern' Horizontal Kerning in Latin lookup 0" { "'kern' Horizontal Kerning in Latin lookup 0 per glyph data 0"  "'kern' Horizontal Kerning in Latin lookup 0 per glyph data 1"  "'kern' Horizontal Kerning in Latin lookup 0 kerning class 2"  } ['kern' ('latn' <'dflt' > ) ]
MarkAttachClasses: 1
DEI: 91125
KernClass2: 2+ 3 "'kern' Horizontal Kerning in Latin lookup 0 kerning class 2"
 17 m n ntilde nacute
 21 r rcommaaccent rcaron
 56 a d g q agrave aacute acircumflex atilde adieresis aring

StartChar: exclam
Encoding: 33 33 4
Width: 289
GlyphClass: 2
Flags: W
LayerCount: 2
Fore
SplineSet
186 95 m 128,-1,1
 199 78 199 78 199 52.5 c 128,-1,2
 199 27 199 27 182 6 c 128,-1,3
 165 -15 165 -15 141 -15 c 128,-1,4
 117 -15 117 -15 103.5 3.5 c 128,-1,5
 90 22 90 22 90 47 c 128,-1,6
 90 72 90 72 106.5 92 c 128,-1,7
 123 112 123 112 148 112 c 128,-1,0
 173 112 173 112 186 95 c 128,-1,1
188 467 m 1,8,-1
 189 266 l 2,9,10
 189 240 189 240 177 225 c 128,-1,11
 165 210 165 210 144 210 c 128,-1,12
 123 210 123 210 111 225 c 128,-1,13
 99 240 99 240 99 266 c 2,14,-1
 101 467 l 1,15,-1
 93 695 l 2,16,17
 93 725 93 725 106.5 742.5 c 128,-1,18
 120 760 120 760 144 760 c 128,-1,19
 168 760 168 760 181.5 742.5 c 128,-1,20
 195 725 195 725 195 695 c 2,21,-1
 188 467 l 1,8,-1
EndSplineSet
EndChar

StartChar: quotedbl
Encoding: 34 34 5
Width: 413
GlyphClass: 2
Flags: W
LayerCount: 2
Fore
SplineSet
166 704 m 2,0,-1
 154 596 l 2,1,2
 152 553 152 553 144.5 535 c 128,-1,3
 137 517 137 517 118 517 c 128,-1,4
 99 517 99 517 91.5 535 c 128,-1,5
 84 553 84 553 82 596 c 2,6,-1
 70 704 l 2,7,8
 70 730 70 730 83 745 c 128,-1,9
 96 760 96 760 118 760 c 128,-1,10
 140 760 140 760 153 745 c 128,-1,11
 166 730 166 730 166 704 c 2,0,-1
343 704 m 2,12,-1
 331 596 l 2,13,14
 329 553 329 553 321.5 535 c 128,-1,15
 314 517 314 517 295 517 c 128,-1,16
 276 517 276 517 268.5 535 c 128,-1,17
 261 553 261 553 259 596 c 2,18,-1
 247 704 l 2,19,20
 247 730 247 730 260 745 c 128,-1,21
 273 760 273 760 295 760 c 128,-1,22
 317 760 317 760 330 745 c 128,-1,23
 343 730 343 730 343 704 c 2,12,-1
EndSplineSet
EndChar

StartChar: numbersign
Encoding: 35 35 6
Width: 858
GlyphClass: 2
Flags: W
LayerCount: 2
Fore
SplineSet
361 431 m 1,0,1
 332 293 332 293 329 274 c 1,2,-1
 498 274 l 1,3,4
 504 298 504 298 515.5 357.5 c 128,-1,5
 527 417 527 417 530 431 c 1,6,-1
 361 431 l 1,0,1
691 196 m 2,7,-1
 564 199 l 1,8,9
 556 156 556 156 533 35 c 0,10,11
 525 -10 525 -10 488 -10 c 0,12,13
 470 -10 470 -10 459.5 1.5 c 128,-1,14
 449 13 449 13 449 27.5 c 128,-1,15
 449 42 449 42 484 200 c 1,16,-1
 317 200 l 1,17,18
 311 170 311 170 286 35 c 0,19,20
 278 -10 278 -10 241 -10 c 0,21,22
 223 -10 223 -10 212.5 1.5 c 128,-1,23
 202 13 202 13 202 25 c 128,-1,24
 202 37 202 37 208.5 68.5 c 128,-1,25
 215 100 215 100 223.5 140 c 128,-1,26
 232 180 232 180 235 200 c 1,27,-1
 122 196 l 2,28,29
 63 196 63 196 63 238 c 0,30,31
 63 278 63 278 122 278 c 2,32,-1
 249 274 l 1,33,34
 255 298 255 298 266.5 357 c 128,-1,35
 278 416 278 416 281 429 c 1,36,-1
 167 427 l 2,37,38
 108 427 108 427 108 466 c 0,39,40
 108 507 108 507 167 507 c 2,41,-1
 296 504 l 1,42,43
 305 547 305 547 327 668 c 0,44,45
 335 713 335 713 372 713 c 0,46,47
 390 713 390 713 400.5 701.5 c 128,-1,48
 411 690 411 690 411 675 c 128,-1,49
 411 660 411 660 376 503 c 1,50,-1
 543 503 l 1,51,52
 549 533 549 533 574 668 c 0,53,54
 582 713 582 713 619 713 c 0,55,56
 636 713 636 713 647 701.5 c 128,-1,57
 658 690 658 690 658 678 c 128,-1,58
 658 666 658 666 651.5 635 c 128,-1,59
 645 604 645 604 636 563 c 128,-1,60
 627 522 627 522 624 503 c 1,61,-1
 736 507 l 2,62,63
 795 507 795 507 795 466 c 0,64,65
 795 427 795 427 736 427 c 0,66,67
 714 427 714 427 609 430 c 1,68,69
 581 300 581 300 577 275 c 1,70,-1
 691 278 l 2,71,72
 750 278 750 278 750 238 c 0,73,74
 750 196 750 196 691 196 c 2,7,-1
EndSplineSet
EndChar

StartChar: dollar
Encoding: 36 36 7
Width: 624
GlyphClass: 2
Flags: W
LayerCount: 2
Fore
SplineSet
505 64 m 128,-1,1
 452 11 452 11 366 -4 c 1,2,3
 366 -85 366 -85 320 -85 c 128,-1,4
 274 -85 274 -85 274 -7 c 1,5,6
 195 0 195 0 131 39.5 c 128,-1,7
 67 79 67 79 67 115 c 0,8,9
 67 133 67 133 79 145 c 128,-1,10
 91 157 91 157 108.5 157 c 128,-1,11
 126 157 126 157 144 146 c 128,-1,12
 162 135 162 135 176 121.5 c 128,-1,13
 190 108 190 108 217 95 c 128,-1,14
 244 82 244 82 276 78 c 1,15,16
 279 267 279 267 279 345 c 1,17,18
 199 389 199 389 160.5 421 c 128,-1,19
 122 453 122 453 107.5 482 c 128,-1,20
 93 511 93 511 93 545 c 0,21,22
 93 607 93 607 143.5 655 c 128,-1,23
 194 703 194 703 273 715 c 1,24,25
 273 802 273 802 319 802 c 128,-1,26
 365 802 365 802 365 715 c 1,27,28
 429 707 429 707 473.5 680 c 128,-1,29
 518 653 518 653 518 622 c 0,30,31
 518 603 518 603 506 592 c 128,-1,32
 494 581 494 581 473 581 c 128,-1,33
 452 581 452 581 420 602 c 128,-1,34
 388 623 388 623 362 630 c 1,35,36
 359 456 359 456 359 400 c 1,37,38
 405 375 405 375 432.5 358 c 128,-1,39
 460 341 460 341 493 314 c 0,40,41
 558 261 558 261 558 189 c 128,-1,0
 558 117 558 117 505 64 c 128,-1,1
462 188 m 0,42,43
 462 243 462 243 359 301 c 1,44,45
 359 299 359 299 363 83 c 1,46,47
 407 95 407 95 434.5 122 c 128,-1,48
 462 149 462 149 462 188 c 0,42,43
213.5 598 m 128,-1,50
 189 575 189 575 189 546 c 128,-1,51
 189 517 189 517 211.5 494 c 128,-1,52
 234 471 234 471 279 443 c 1,53,54
 275 623 275 623 275 630 c 1,55,49
 238 621 238 621 213.5 598 c 128,-1,50
EndSplineSet
EndChar

StartChar: percent
Encoding: 37 37 8
Width: 874
GlyphClass: 2
Flags: W
LayerCount: 2
Fore
SplineSet
620 700 m 0,0,1
 620 650 620 650 562 589 c 0,2,3
 561 586 561 586 512 445.5 c 128,-1,4
 463 305 463 305 415 166 c 128,-1,5
 367 27 367 27 363 18 c 0,6,7
 350 -15 350 -15 317 -15 c 0,8,9
 301 -15 301 -15 289 -4 c 128,-1,10
 277 7 277 7 277 25 c 128,-1,11
 277 43 277 43 302 104 c 0,12,13
 406 361 406 361 469 555 c 1,14,15
 451 552 451 552 426.5 552 c 128,-1,16
 402 552 402 552 364 564 c 1,17,18
 366 548 366 548 366 537 c 0,19,20
 366 463 366 463 324 412.5 c 128,-1,21
 282 362 282 362 214 362 c 128,-1,22
 146 362 146 362 104.5 411 c 128,-1,23
 63 460 63 460 63 535.5 c 128,-1,24
 63 611 63 611 106 662 c 128,-1,25
 149 713 149 713 216 713 c 0,26,27
 247 713 247 713 275.5 699 c 128,-1,28
 304 685 304 685 322 668 c 0,29,30
 372 624 372 624 418 624 c 128,-1,31
 464 624 464 624 490 638 c 1,32,33
 516 735 516 735 538 752 c 0,34,35
 549 760 549 760 569 760 c 128,-1,36
 589 760 589 760 604.5 743 c 128,-1,37
 620 726 620 726 620 700 c 0,0,1
267.5 462.5 m 128,-1,39
 286 491 286 491 286 536.5 c 128,-1,40
 286 582 286 582 268 611.5 c 128,-1,41
 250 641 250 641 216 641 c 128,-1,42
 182 641 182 641 162.5 612 c 128,-1,43
 143 583 143 583 143 538 c 128,-1,44
 143 493 143 493 162 463.5 c 128,-1,45
 181 434 181 434 215 434 c 128,-1,38
 249 434 249 434 267.5 462.5 c 128,-1,39
770.5 287 m 128,-1,47
 812 238 812 238 812 162.5 c 128,-1,48
 812 87 812 87 769 36 c 128,-1,49
 726 -15 726 -15 657.5 -15 c 128,-1,50
 589 -15 589 -15 547.5 34 c 128,-1,51
 506 83 506 83 506 159 c 128,-1,52
 506 235 506 235 549 285.5 c 128,-1,53
 592 336 592 336 660.5 336 c 128,-1,46
 729 336 729 336 770.5 287 c 128,-1,47
712.5 86 m 128,-1,55
 732 115 732 115 732 160 c 128,-1,56
 732 205 732 205 713 234.5 c 128,-1,57
 694 264 694 264 659.5 264 c 128,-1,58
 625 264 625 264 605.5 235 c 128,-1,59
 586 206 586 206 586 161.5 c 128,-1,60
 586 117 586 117 605.5 87 c 128,-1,61
 625 57 625 57 659 57 c 128,-1,54
 693 57 693 57 712.5 86 c 128,-1,55
EndSplineSet
EndChar

StartChar: ampersand
Encoding: 38 38 9
Width: 835
GlyphClass: 2
Flags: W
LayerCount: 2
Fore
SplineSet
455 370 m 2,0,-1
 538 368 l 1,1,2
 706 368 706 368 706 459 c 0,3,4
 706 490 706 490 687.5 510 c 128,-1,5
 669 530 669 530 647 538 c 0,6,7
 588 558 588 558 588 593 c 0,8,9
 588 611 588 611 600 622.5 c 128,-1,10
 612 634 612 634 633 634 c 0,11,12
 690 634 690 634 744 580.5 c 128,-1,13
 798 527 798 527 798 461 c 0,14,15
 798 372 798 372 734.5 330.5 c 128,-1,16
 671 289 671 289 577 287 c 1,17,18
 595 245 595 245 595 203 c 0,19,20
 595 113 595 113 521.5 49 c 128,-1,21
 448 -15 448 -15 332.5 -15 c 128,-1,22
 217 -15 217 -15 139.5 57.5 c 128,-1,23
 62 130 62 130 62 239 c 0,24,25
 62 302 62 302 93 361.5 c 128,-1,26
 124 421 124 421 176 460 c 1,27,28
 112 520 112 520 112 590.5 c 128,-1,29
 112 661 112 661 162.5 713 c 128,-1,30
 213 765 213 765 305 765 c 0,31,32
 362 765 362 765 410.5 737 c 128,-1,33
 459 709 459 709 459 677 c 0,34,35
 459 657 459 657 447 646 c 128,-1,36
 435 635 435 635 419 635 c 128,-1,37
 403 635 403 635 372.5 656.5 c 128,-1,38
 342 678 342 678 301 678 c 128,-1,39
 260 678 260 678 232.5 654.5 c 128,-1,40
 205 631 205 631 205 593 c 0,41,42
 205 536 205 536 257 501 c 1,43,44
 301 505 301 505 304 505 c 0,45,46
 334 505 334 505 353 491 c 128,-1,47
 372 477 372 477 372 452.5 c 128,-1,48
 372 428 372 428 351 413.5 c 128,-1,49
 330 399 330 399 299.5 399 c 128,-1,50
 269 399 269 399 249 409 c 1,51,52
 207 384 207 384 182 341 c 128,-1,53
 157 298 157 298 157 247 c 0,54,55
 157 169 157 169 206 120.5 c 128,-1,56
 255 72 255 72 331 72 c 128,-1,57
 407 72 407 72 454.5 111.5 c 128,-1,58
 502 151 502 151 502 202 c 0,59,60
 502 280 502 280 470 280 c 0,61,62
 452 280 452 280 431.5 270 c 128,-1,63
 411 260 411 260 392.5 260 c 128,-1,64
 374 260 374 260 362 273.5 c 128,-1,65
 350 287 350 287 350 306 c 0,66,67
 350 336 350 336 379.5 353 c 128,-1,68
 409 370 409 370 455 370 c 2,0,-1
EndSplineSet
EndChar

StartChar: quotesingle
Encoding: 39 39 10
Width: 236
GlyphClass: 2
Flags: W
LayerCount: 2
Fore
SplineSet
166 704 m 2,0,-1
 154 596 l 2,1,2
 152 553 152 553 144.5 535 c 128,-1,3
 137 517 137 517 118 517 c 128,-1,4
 99 517 99 517 91.5 535 c 128,-1,5
 84 553 84 553 82 596 c 2,6,-1
 70 704 l 2,7,8
 70 730 70 730 83 745 c 128,-1,9
 96 760 96 760 118 760 c 128,-1,10
 140 760 140 760 153 745 c 128,-1,11
 166 730 166 730 166 704 c 2,0,-1
EndSplineSet
EndChar

StartChar: parenleft
Encoding: 40 40 11
Width: 347
GlyphClass: 2
Flags: W
LayerCount: 2
Fore
SplineSet
84.5 209 m 128,-1,1
 62 300 62 300 62 385 c 128,-1,2
 62 470 62 470 82.5 552.5 c 128,-1,3
 103 635 103 635 133.5 695.5 c 128,-1,4
 164 756 164 756 198.5 795.5 c 128,-1,5
 233 835 233 835 258.5 835 c 128,-1,6
 284 835 284 835 298 821 c 128,-1,7
 312 807 312 807 312 789.5 c 128,-1,8
 312 772 312 772 295.5 746.5 c 128,-1,9
 279 721 279 721 256 688 c 128,-1,10
 233 655 233 655 210 612 c 128,-1,11
 187 569 187 569 170.5 502.5 c 128,-1,12
 154 436 154 436 154 352.5 c 128,-1,13
 154 269 154 269 176 190 c 128,-1,14
 198 111 198 111 224.5 67 c 128,-1,15
 251 23 251 23 273 -11.5 c 128,-1,16
 295 -46 295 -46 295 -56.5 c 128,-1,17
 295 -67 295 -67 288 -75.5 c 128,-1,18
 281 -84 281 -84 266 -84 c 0,19,20
 241 -84 241 -84 206.5 -45.5 c 128,-1,21
 172 -7 172 -7 139.5 55.5 c 128,-1,0
 107 118 107 118 84.5 209 c 128,-1,1
EndSplineSet
EndChar

StartChar: parenright
Encoding: 41 41 12
Width: 347
GlyphClass: 2
Flags: W
LayerCount: 2
Fore
SplineSet
264.5 552.5 m 128,-1,1
 285 470 285 470 285 385 c 128,-1,2
 285 300 285 300 262.5 209 c 128,-1,3
 240 118 240 118 207.5 55.5 c 128,-1,4
 175 -7 175 -7 140.5 -45.5 c 128,-1,5
 106 -84 106 -84 81 -84 c 0,6,7
 66 -84 66 -84 59 -75.5 c 128,-1,8
 52 -67 52 -67 52 -56.5 c 128,-1,9
 52 -46 52 -46 74 -11.5 c 128,-1,10
 96 23 96 23 122.5 67 c 128,-1,11
 149 111 149 111 171 190 c 128,-1,12
 193 269 193 269 193 352.5 c 128,-1,13
 193 436 193 436 176.5 502.5 c 128,-1,14
 160 569 160 569 137 612 c 128,-1,15
 114 655 114 655 91 688 c 128,-1,16
 68 721 68 721 51.5 746.5 c 128,-1,17
 35 772 35 772 35 789.5 c 128,-1,18
 35 807 35 807 49 821 c 128,-1,19
 63 835 63 835 88.5 835 c 128,-1,20
 114 835 114 835 148.5 795.5 c 128,-1,21
 183 756 183 756 213.5 695.5 c 128,-1,0
 244 635 244 635 264.5 552.5 c 128,-1,1
EndSplineSet
EndChar

StartChar: asterisk
Encoding: 42 42 13
Width: 476
GlyphClass: 2
Flags: W
LayerCount: 2
Fore
SplineSet
204 642 m 1,0,-1
 194 716 l 2,1,2
 194 738 194 738 206 751.5 c 128,-1,3
 218 765 218 765 238 765 c 128,-1,4
 258 765 258 765 270 751.5 c 128,-1,5
 282 738 282 738 282 721 c 128,-1,6
 282 704 282 704 277 679.5 c 128,-1,7
 272 655 272 655 272 642 c 1,8,9
 279 647 279 647 298 662 c 0,10,11
 338 694 338 694 356 694 c 128,-1,12
 374 694 374 694 386 683 c 128,-1,13
 398 672 398 672 398 653.5 c 128,-1,14
 398 635 398 635 381.5 622.5 c 128,-1,15
 365 610 365 610 334 600 c 128,-1,16
 303 590 303 590 298 587 c 1,17,18
 303 584 303 584 334 574 c 128,-1,19
 365 564 365 564 381.5 551.5 c 128,-1,20
 398 539 398 539 398 520 c 128,-1,21
 398 501 398 501 386 490.5 c 128,-1,22
 374 480 374 480 359.5 480 c 128,-1,23
 345 480 345 480 331 488 c 128,-1,24
 317 496 317 496 297.5 511.5 c 128,-1,25
 278 527 278 527 271 532 c 1,26,-1
 282 460 l 2,27,28
 282 438 282 438 270 424 c 128,-1,29
 258 410 258 410 238 410 c 128,-1,30
 218 410 218 410 206 424 c 128,-1,31
 194 438 194 438 194 454.5 c 128,-1,32
 194 471 194 471 199.5 495.5 c 128,-1,33
 205 520 205 520 205 532 c 1,34,35
 198 527 198 527 178 512 c 0,36,37
 139 480 139 480 120.5 480 c 128,-1,38
 102 480 102 480 90 490.5 c 128,-1,39
 78 501 78 501 78 520 c 128,-1,40
 78 539 78 539 94.5 551.5 c 128,-1,41
 111 564 111 564 142 574 c 128,-1,42
 173 584 173 584 178 587 c 1,43,44
 173 590 173 590 142 600 c 128,-1,45
 111 610 111 610 94.5 622.5 c 128,-1,46
 78 635 78 635 78 653.5 c 128,-1,47
 78 672 78 672 90 683 c 128,-1,48
 102 694 102 694 116 694 c 128,-1,49
 130 694 130 694 144 686 c 128,-1,50
 158 678 158 678 177.5 662.5 c 128,-1,51
 197 647 197 647 204 642 c 1,0,-1
EndSplineSet
EndChar

StartChar: plus
Encoding: 43 43 14
Width: 601
GlyphClass: 2
Flags: W
LayerCount: 2
Fore
SplineSet
113 418 m 2,0,-1
 263 415 l 1,1,2
 263 485 263 485 261 522 c 128,-1,3
 259 559 259 559 259 561 c 0,4,5
 259 584 259 584 270.5 597 c 128,-1,6
 282 610 282 610 301 610 c 128,-1,7
 320 610 320 610 332 596.5 c 128,-1,8
 344 583 344 583 344 560 c 0,9,10
 344 558 344 558 343 540 c 0,11,12
 340 486 340 486 340 415 c 1,13,-1
 490 417 l 2,14,15
 512 417 512 417 526 405 c 128,-1,16
 540 393 540 393 540 375 c 128,-1,17
 540 357 540 357 526 345 c 128,-1,18
 512 333 512 333 490 333 c 2,19,-1
 340 336 l 1,20,-1
 344 177 l 2,21,22
 344 154 344 154 332.5 140 c 128,-1,23
 321 126 321 126 301.5 126 c 128,-1,24
 282 126 282 126 270.5 140.5 c 128,-1,25
 259 155 259 155 259 178 c 2,26,-1
 263 337 l 1,27,-1
 113 334 l 2,28,29
 91 334 91 334 77 346 c 128,-1,30
 63 358 63 358 63 376 c 128,-1,31
 63 394 63 394 77 406 c 128,-1,32
 91 418 91 418 113 418 c 2,0,-1
EndSplineSet
EndChar

StartChar: comma
Encoding: 44 44 15
Width: 251
GlyphClass: 2
Flags: W
LayerCount: 2
Fore
SplineSet
177 36 m 0,0,1
 177 -18 177 -18 141 -83 c 128,-1,2
 105 -148 105 -148 74 -148 c 128,-1,3
 43 -148 43 -148 43 -122 c 0,4,5
 43 -108 43 -108 58.5 -82.5 c 128,-1,6
 74 -57 74 -57 74 -37.5 c 128,-1,7
 74 -18 74 -18 70 0 c 128,-1,8
 66 18 66 18 66 40.5 c 128,-1,9
 66 63 66 63 82 83.5 c 128,-1,10
 98 104 98 104 123.5 104 c 128,-1,11
 149 104 149 104 163 85.5 c 128,-1,12
 177 67 177 67 177 36 c 0,0,1
EndSplineSet
EndChar

StartChar: hyphen
Encoding: 45 45 16
Width: 498
GlyphClass: 2
Flags: W
LayerCount: 2
Fore
SplineSet
249 336 m 1,0,-1
 130 333 l 2,1,2
 108 333 108 333 94.5 345 c 128,-1,3
 81 357 81 357 81 375 c 128,-1,4
 81 393 81 393 94.5 405 c 128,-1,5
 108 417 108 417 130 417 c 2,6,-1
 249 414 l 1,7,-1
 368 417 l 2,8,9
 390 417 390 417 403.5 405 c 128,-1,10
 417 393 417 393 417 375 c 128,-1,11
 417 357 417 357 403.5 345 c 128,-1,12
 390 333 390 333 368 333 c 2,13,14
 368 333 368 333 249 336 c 1,0,-1
EndSplineSet
EndChar

StartChar: period
Encoding: 46 46 17
Width: 254
GlyphClass: 2
Flags: W
LayerCount: 2
Fore
SplineSet
168.5 102 m 128,-1,1
 182 85 182 85 182 58.5 c 128,-1,2
 182 32 182 32 165 11 c 128,-1,3
 148 -10 148 -10 123.5 -10 c 128,-1,4
 99 -10 99 -10 85 8 c 128,-1,5
 71 26 71 26 71 52 c 128,-1,6
 71 78 71 78 87.5 98.5 c 128,-1,7
 104 119 104 119 129.5 119 c 128,-1,0
 155 119 155 119 168.5 102 c 128,-1,1
EndSplineSet
EndChar

StartChar: slash
Encoding: 47 47 18
Width: 433
GlyphClass: 2
Flags: W
LayerCount: 2
Fore
SplineSet
284.5 822 m 128,-1,1
 298 835 298 835 318 835 c 128,-1,2
 338 835 338 835 349.5 820 c 128,-1,3
 361 805 361 805 361 789 c 128,-1,4
 361 773 361 773 347 717.5 c 128,-1,5
 333 662 333 662 306 558 c 0,6,7
 234 274 234 274 170 -20 c 0,8,9
 163 -51 163 -51 151.5 -67.5 c 128,-1,10
 140 -84 140 -84 118 -84 c 128,-1,11
 96 -84 96 -84 83.5 -70 c 128,-1,12
 71 -56 71 -56 71 -39.5 c 128,-1,13
 71 -23 71 -23 83 25 c 128,-1,14
 95 73 95 73 123 182 c 0,15,16
 189 439 189 439 267 787 c 0,17,0
 271 809 271 809 284.5 822 c 128,-1,1
EndSplineSet
EndChar

StartChar: zero
Encoding: 48 48 19
Width: 728
GlyphClass: 2
Flags: W
LayerCount: 2
Fore
SplineSet
574.5 650 m 128,-1,1
 651 535 651 535 651 374.5 c 128,-1,2
 651 214 651 214 574.5 99.5 c 128,-1,3
 498 -15 498 -15 367 -15 c 128,-1,4
 236 -15 236 -15 156.5 100.5 c 128,-1,5
 77 216 77 216 77 375 c 0,6,7
 77 477 77 477 110.5 565 c 128,-1,8
 144 653 144 653 211.5 709 c 128,-1,9
 279 765 279 765 366 765 c 0,10,0
 498 765 498 765 574.5 650 c 128,-1,1
555 375 m 128,-1,12
 555 500 555 500 504 589 c 128,-1,13
 453 678 453 678 367 678 c 128,-1,14
 281 678 281 678 227 588 c 128,-1,15
 173 498 173 498 173 375 c 128,-1,16
 173 252 173 252 227 162 c 128,-1,17
 281 72 281 72 367 72 c 128,-1,18
 453 72 453 72 504 161 c 128,-1,11
 555 250 555 250 555 375 c 128,-1,12
EndSplineSet
EndChar

StartChar: one
Encoding: 49 49 20
Width: 467
GlyphClass: 2
Flags: W
LayerCount: 2
Fore
SplineSet
331 698 m 2,0,-1
 327 380 l 2,1,2
 327 226 327 226 330.5 147.5 c 128,-1,3
 334 69 334 69 334 61 c 0,4,5
 334 -10 334 -10 283 -10 c 0,6,7
 261 -10 261 -10 249 4 c 128,-1,8
 237 18 237 18 234.5 33.5 c 128,-1,9
 232 49 232 49 232 65.5 c 128,-1,10
 232 82 232 82 235 186 c 128,-1,11
 238 290 238 290 238 379 c 2,12,-1
 237 625 l 1,13,-1
 165 517 l 2,14,15
 160 510 160 510 153 499 c 128,-1,16
 146 488 146 488 142 483 c 128,-1,17
 138 478 138 478 132.5 469.5 c 128,-1,18
 127 461 127 461 123.5 457 c 128,-1,19
 120 453 120 453 115 447 c 128,-1,20
 110 441 110 441 106.5 438.5 c 128,-1,21
 103 436 103 436 98 433 c 0,22,23
 91 428 91 428 76 428 c 128,-1,24
 61 428 61 428 49.5 440 c 128,-1,25
 38 452 38 452 38 469.5 c 128,-1,26
 38 487 38 487 52.5 510 c 128,-1,27
 67 533 67 533 92 564.5 c 128,-1,28
 117 596 117 596 119.5 599.5 c 128,-1,29
 122 603 122 603 126 608 c 128,-1,30
 130 613 130 613 141 627 c 128,-1,31
 152 641 152 641 172.5 669.5 c 128,-1,32
 193 698 193 698 202.5 711 c 128,-1,33
 212 724 212 724 225 738 c 0,34,35
 247 760 247 760 273.5 760 c 128,-1,36
 300 760 300 760 315.5 742 c 128,-1,37
 331 724 331 724 331 698 c 2,0,-1
EndSplineSet
EndChar

StartChar: two
Encoding: 50 50 21
Width: 618
GlyphClass: 2
Flags: W
LayerCount: 2
Fore
SplineSet
311 0 m 1,0,-1
 126 -5 l 2,1,2
 97 -5 97 -5 79 8.5 c 128,-1,3
 61 22 61 22 61 51.5 c 128,-1,4
 61 81 61 81 97 132.5 c 128,-1,5
 133 184 133 184 184.5 241 c 128,-1,6
 236 298 236 298 288 356 c 0,7,8
 411 493 411 493 411 562 c 0,9,10
 411 617 411 617 376.5 647.5 c 128,-1,11
 342 678 342 678 292 678 c 0,12,13
 264 678 264 678 241 665.5 c 128,-1,14
 218 653 218 653 207 640.5 c 128,-1,15
 196 628 196 628 184.5 610 c 128,-1,16
 173 592 173 592 167 585 c 0,17,18
 150 565 150 565 130 565 c 128,-1,19
 110 565 110 565 97.5 578 c 128,-1,20
 85 591 85 591 85 608 c 0,21,22
 85 656 85 656 145 710.5 c 128,-1,23
 205 765 205 765 300 765 c 128,-1,24
 395 765 395 765 451 708 c 128,-1,25
 507 651 507 651 507 568 c 0,26,27
 507 518 507 518 466 447.5 c 128,-1,28
 425 377 425 377 374.5 319.5 c 128,-1,29
 324 262 324 262 263 192.5 c 128,-1,30
 202 123 202 123 178 87 c 1,31,32
 233 82 233 82 294 82 c 128,-1,33
 355 82 355 82 419 85.5 c 128,-1,34
 483 89 483 89 501 89 c 128,-1,35
 519 89 519 89 535.5 76.5 c 128,-1,36
 552 64 552 64 552 42 c 128,-1,37
 552 20 552 20 535.5 7.5 c 128,-1,38
 519 -5 519 -5 492 -5 c 2,39,-1
 311 0 l 1,0,-1
EndSplineSet
EndChar

StartChar: three
Encoding: 51 51 22
Width: 628
GlyphClass: 2
Flags: W
LayerCount: 2
Fore
SplineSet
305 750 m 1,0,-1
 471 755 l 2,1,2
 498 755 498 755 515 741 c 128,-1,3
 532 727 532 727 532 705 c 0,4,5
 532 663 532 663 463.5 593.5 c 128,-1,6
 395 524 395 524 354 474 c 1,7,8
 449 449 449 449 505 384 c 128,-1,9
 561 319 561 319 561 237 c 0,10,11
 561 137 561 137 491.5 61 c 128,-1,12
 422 -15 422 -15 302 -15 c 0,13,14
 211 -15 211 -15 141.5 35.5 c 128,-1,15
 72 86 72 86 72 129 c 0,16,17
 72 143 72 143 82 154.5 c 128,-1,18
 92 166 92 166 106.5 166 c 128,-1,19
 121 166 121 166 140 151.5 c 128,-1,20
 159 137 159 137 177.5 119 c 128,-1,21
 196 101 196 101 229 86.5 c 128,-1,22
 262 72 262 72 300 72 c 0,23,24
 372 72 372 72 418.5 118.5 c 128,-1,25
 465 165 465 165 465 234.5 c 128,-1,26
 465 304 465 304 416 348 c 128,-1,27
 367 392 367 392 301 398 c 1,28,29
 268 365 268 365 246 353 c 128,-1,30
 224 341 224 341 198.5 341 c 128,-1,31
 173 341 173 341 159 355.5 c 128,-1,32
 145 370 145 370 145 395.5 c 128,-1,33
 145 421 145 421 172 445.5 c 128,-1,34
 199 470 199 470 253 482 c 1,35,36
 321 557 321 557 410 665 c 1,37,38
 381 668 381 668 324.5 668 c 128,-1,39
 268 668 268 668 214 664.5 c 128,-1,40
 160 661 160 661 143.5 661 c 128,-1,41
 127 661 127 661 110.5 673.5 c 128,-1,42
 94 686 94 686 94 708 c 128,-1,43
 94 730 94 730 110.5 742.5 c 128,-1,44
 127 755 127 755 154 755 c 2,45,-1
 305 750 l 1,0,-1
EndSplineSet
EndChar

StartChar: four
Encoding: 52 52 23
Width: 648
GlyphClass: 2
Flags: W
LayerCount: 2
Fore
SplineSet
482 329 m 1,0,-1
 533 332 l 2,1,2
 561 332 561 332 577.5 319.5 c 128,-1,3
 594 307 594 307 594 287 c 128,-1,4
 594 267 594 267 577.5 254.5 c 128,-1,5
 561 242 561 242 533 242 c 2,6,-1
 482 243 l 1,7,-1
 488 50 l 2,8,9
 488 23 488 23 475 7 c 128,-1,10
 462 -9 462 -9 438.5 -9 c 128,-1,11
 415 -9 415 -9 402 7 c 128,-1,12
 389 23 389 23 389 50 c 2,13,-1
 393 243 l 1,14,-1
 324 243 l 1,15,-1
 96 242 l 2,16,17
 70 242 70 242 55 256 c 128,-1,18
 40 270 40 270 40 291.5 c 128,-1,19
 40 313 40 313 58.5 341.5 c 128,-1,20
 77 370 77 370 137 446 c 2,21,-1
 341 708 l 2,22,23
 382 760 382 760 425 760 c 0,24,25
 451 760 451 760 469.5 743.5 c 128,-1,26
 488 727 488 727 488 690 c 0,27,28
 488 681 488 681 486 634 c 0,29,30
 482 491 482 491 482 329 c 1,0,-1
157 327 m 1,31,-1
 394 327 l 1,32,33
 394 373 394 373 392.5 492.5 c 128,-1,34
 391 612 391 612 391 629 c 1,35,36
 279 496 279 496 157 327 c 1,31,-1
EndSplineSet
EndChar

StartChar: five
Encoding: 53 53 24
Width: 645
GlyphClass: 2
Flags: W
LayerCount: 2
Fore
SplineSet
325 750 m 1,0,-1
 477 755 l 2,1,2
 504 755 504 755 520.5 742.5 c 128,-1,3
 537 730 537 730 537 708 c 128,-1,4
 537 686 537 686 520.5 673.5 c 128,-1,5
 504 661 504 661 487.5 661 c 128,-1,6
 471 661 471 661 416.5 665 c 128,-1,7
 362 669 362 669 331 669 c 128,-1,8
 300 669 300 669 255.5 667 c 128,-1,9
 211 665 211 665 193 665 c 1,10,11
 198 628 198 628 198 560 c 2,12,-1
 193 454 l 1,13,14
 261 498 261 498 337 498 c 0,15,16
 451 498 451 498 514 427.5 c 128,-1,17
 577 357 577 357 577 249.5 c 128,-1,18
 577 142 577 142 506 63.5 c 128,-1,19
 435 -15 435 -15 314 -15 c 0,20,21
 213 -15 213 -15 146 41.5 c 128,-1,22
 79 98 79 98 79 150 c 0,23,24
 79 168 79 168 91.5 181.5 c 128,-1,25
 104 195 104 195 118.5 195 c 128,-1,26
 133 195 133 195 142 190 c 128,-1,27
 151 185 151 185 155.5 179.5 c 128,-1,28
 160 174 160 174 168 162 c 0,29,30
 228 72 228 72 321 72 c 0,31,32
 390 72 390 72 436 126 c 128,-1,33
 482 180 482 180 482 251 c 128,-1,34
 482 322 482 322 441.5 368.5 c 128,-1,35
 401 415 401 415 332 415 c 0,36,37
 267 415 267 415 188 359 c 0,38,39
 162 340 162 340 146 340 c 0,40,41
 96 340 96 340 96 390 c 0,42,43
 96 403 96 403 103 461 c 128,-1,44
 110 519 110 519 110 559.5 c 128,-1,45
 110 600 110 600 104 641 c 128,-1,46
 98 682 98 682 98 699 c 0,47,48
 98 754 98 754 164 754 c 2,49,-1
 325 750 l 1,0,-1
EndSplineSet
EndChar

StartChar: six
Encoding: 54 54 25
Width: 647
GlyphClass: 2
Flags: W
LayerCount: 2
Fore
SplineSet
517 414 m 128,-1,1
 579 341 579 341 579 240.5 c 128,-1,2
 579 140 579 140 514 63 c 128,-1,3
 449 -14 449 -14 331 -14 c 128,-1,4
 213 -14 213 -14 145 70.5 c 128,-1,5
 77 155 77 155 77 285 c 0,6,7
 77 481 77 481 188 620.5 c 128,-1,8
 299 760 299 760 466 760 c 0,9,10
 503 760 503 760 522.5 748 c 128,-1,11
 542 736 542 736 542 717 c 0,12,13
 542 669 542 669 477 669 c 0,14,15
 368 669 368 669 286.5 595.5 c 128,-1,16
 205 522 205 522 182 416 c 1,17,18
 251 487 251 487 353 487 c 128,-1,0
 455 487 455 487 517 414 c 128,-1,1
223.5 121 m 128,-1,20
 264 73 264 73 330 73 c 128,-1,21
 396 73 396 73 439.5 120 c 128,-1,22
 483 167 483 167 483 236 c 128,-1,23
 483 305 483 305 441.5 352.5 c 128,-1,24
 400 400 400 400 335 400 c 128,-1,25
 270 400 270 400 226.5 352.5 c 128,-1,26
 183 305 183 305 183 237 c 128,-1,19
 183 169 183 169 223.5 121 c 128,-1,20
EndSplineSet
EndChar

StartChar: seven
Encoding: 55 55 26
Width: 560
GlyphClass: 2
Flags: W
LayerCount: 2
Fore
SplineSet
273 750 m 1,0,-1
 439 754 l 2,1,2
 520 754 520 754 520 695 c 0,3,4
 520 673 520 673 498.5 630 c 128,-1,5
 477 587 477 587 434 507 c 0,6,7
 320 295 320 295 244 31 c 0,8,9
 232 -9 232 -9 195 -9 c 0,10,11
 175 -9 175 -9 162 5 c 128,-1,12
 149 19 149 19 149 47 c 128,-1,13
 149 75 149 75 171.5 137 c 128,-1,14
 194 199 194 199 238 301.5 c 128,-1,15
 282 404 282 404 319 481.5 c 128,-1,16
 356 559 356 559 377 601 c 128,-1,17
 398 643 398 643 405 663 c 1,18,19
 353 668 353 668 292.5 668 c 128,-1,20
 232 668 232 668 172.5 664.5 c 128,-1,21
 113 661 113 661 96 661 c 128,-1,22
 79 661 79 661 62.5 673.5 c 128,-1,23
 46 686 46 686 46 708 c 128,-1,24
 46 730 46 730 62.5 742.5 c 128,-1,25
 79 755 79 755 106 755 c 2,26,-1
 273 750 l 1,0,-1
EndSplineSet
EndChar

StartChar: eight
Encoding: 56 56 27
Width: 646
GlyphClass: 2
Flags: W
LayerCount: 2
Fore
SplineSet
572 204 m 0,0,1
 572 113 572 113 502 49 c 128,-1,2
 432 -15 432 -15 323 -15 c 128,-1,3
 214 -15 214 -15 144 49 c 128,-1,4
 74 113 74 113 74 204 c 0,5,6
 74 337 74 337 237 419 c 1,7,8
 114 491 114 491 114 590 c 0,9,10
 114 662 114 662 173.5 714 c 128,-1,11
 233 766 233 766 322.5 766 c 128,-1,12
 412 766 412 766 472 714 c 128,-1,13
 532 662 532 662 532 590 c 0,14,15
 532 494 532 494 416 419 c 1,16,17
 572 336 572 336 572 204 c 0,0,1
476 204 m 0,18,19
 476 304 476 304 323 371 c 1,20,21
 170 304 170 304 170 204 c 0,22,23
 170 145 170 145 214 108.5 c 128,-1,24
 258 72 258 72 323 72 c 128,-1,25
 388 72 388 72 432 108.5 c 128,-1,26
 476 145 476 145 476 204 c 0,18,19
439 590 m 128,-1,28
 439 627 439 627 403.5 653 c 128,-1,29
 368 679 368 679 323.5 679 c 128,-1,30
 279 679 279 679 243 653 c 128,-1,31
 207 627 207 627 207 590.5 c 128,-1,32
 207 554 207 554 238 525 c 128,-1,33
 269 496 269 496 325 464 c 1,34,35
 379 494 379 494 409 523.5 c 128,-1,27
 439 553 439 553 439 590 c 128,-1,28
EndSplineSet
EndChar

StartChar: nine
Encoding: 57 57 28
Width: 645
GlyphClass: 2
Flags: W
LayerCount: 2
Fore
SplineSet
128 341 m 128,-1,1
 66 417 66 417 66 516.5 c 128,-1,2
 66 616 66 616 134 690.5 c 128,-1,3
 202 765 202 765 317 765 c 128,-1,4
 432 765 432 765 500 681 c 128,-1,5
 568 597 568 597 568 466 c 0,6,7
 568 263 568 263 457.5 124.5 c 128,-1,8
 347 -14 347 -14 179 -14 c 0,9,10
 143 -14 143 -14 123.5 -1 c 128,-1,11
 104 12 104 12 104 31.5 c 128,-1,12
 104 51 104 51 120 65.5 c 128,-1,13
 136 80 136 80 170 80 c 0,14,15
 279 80 279 80 359.5 153.5 c 128,-1,16
 440 227 440 227 464 337 c 1,17,18
 392 265 392 265 291 265 c 128,-1,0
 190 265 190 265 128 341 c 128,-1,1
205 631 m 128,-1,20
 162 584 162 584 162 515 c 128,-1,21
 162 446 162 446 201.5 399 c 128,-1,22
 241 352 241 352 309 352 c 128,-1,23
 377 352 377 352 421 403.5 c 128,-1,24
 465 455 465 455 465 521 c 128,-1,25
 465 587 465 587 421.5 632.5 c 128,-1,26
 378 678 378 678 313 678 c 128,-1,19
 248 678 248 678 205 631 c 128,-1,20
EndSplineSet
EndChar

StartChar: colon
Encoding: 58 58 29
Width: 273
GlyphClass: 2
Flags: W
LayerCount: 2
Fore
SplineSet
178.5 487 m 128,-1,1
 192 470 192 470 192 444 c 128,-1,2
 192 418 192 418 175 396.5 c 128,-1,3
 158 375 158 375 133.5 375 c 128,-1,4
 109 375 109 375 95 393 c 128,-1,5
 81 411 81 411 81 437 c 128,-1,6
 81 463 81 463 97.5 483.5 c 128,-1,7
 114 504 114 504 139.5 504 c 128,-1,0
 165 504 165 504 178.5 487 c 128,-1,1
178.5 102 m 128,-1,9
 192 85 192 85 192 58.5 c 128,-1,10
 192 32 192 32 175 11 c 128,-1,11
 158 -10 158 -10 133.5 -10 c 128,-1,12
 109 -10 109 -10 95 8 c 128,-1,13
 81 26 81 26 81 52 c 128,-1,14
 81 78 81 78 97.5 98.5 c 128,-1,15
 114 119 114 119 139.5 119 c 128,-1,8
 165 119 165 119 178.5 102 c 128,-1,9
EndSplineSet
EndChar

StartChar: semicolon
Encoding: 59 59 30
Width: 283
GlyphClass: 2
Flags: W
LayerCount: 2
Fore
SplineSet
183.5 487 m 128,-1,1
 197 470 197 470 197 444 c 128,-1,2
 197 418 197 418 180 396.5 c 128,-1,3
 163 375 163 375 138.5 375 c 128,-1,4
 114 375 114 375 100 393 c 128,-1,5
 86 411 86 411 86 437 c 128,-1,6
 86 463 86 463 102.5 483.5 c 128,-1,7
 119 504 119 504 144.5 504 c 128,-1,0
 170 504 170 504 183.5 487 c 128,-1,1
196 36 m 0,8,9
 196 -18 196 -18 160 -83 c 128,-1,10
 124 -148 124 -148 93 -148 c 128,-1,11
 62 -148 62 -148 62 -122 c 0,12,13
 62 -108 62 -108 77.5 -82.5 c 128,-1,14
 93 -57 93 -57 93 -37.5 c 128,-1,15
 93 -18 93 -18 89 0 c 128,-1,16
 85 18 85 18 85 40.5 c 128,-1,17
 85 63 85 63 101 83.5 c 128,-1,18
 117 104 117 104 142.5 104 c 128,-1,19
 168 104 168 104 182 85.5 c 128,-1,20
 196 67 196 67 196 36 c 0,8,9
EndSplineSet
EndChar

StartChar: less
Encoding: 60 60 31
Width: 620
GlyphClass: 2
Flags: W
LayerCount: 2
Fore
SplineSet
85 376 m 128,-1,1
 85 394 85 394 93.5 408 c 128,-1,2
 102 422 102 422 125 435.5 c 128,-1,3
 148 449 148 449 166 457 c 128,-1,4
 184 465 184 465 227.5 481.5 c 128,-1,5
 271 498 271 498 297.5 509 c 128,-1,6
 324 520 324 520 362 536 c 128,-1,7
 400 552 400 552 419.5 560.5 c 128,-1,8
 439 569 439 569 462 578 c 0,9,10
 504 593 504 593 522.5 593 c 128,-1,11
 541 593 541 593 553 582.5 c 128,-1,12
 565 572 565 572 565 556 c 0,13,14
 565 529 565 529 531 514 c 0,15,16
 494 499 494 499 436 477.5 c 128,-1,17
 378 456 378 456 354 446 c 0,18,19
 202 386 202 386 202 376 c 0,20,21
 202 368 202 368 316 322 c 2,22,-1
 353 306 l 2,23,24
 377 296 377 296 435 274.5 c 128,-1,25
 493 253 493 253 530 238 c 0,26,27
 564 223 564 223 564 196 c 0,28,29
 564 180 564 180 552 169.5 c 128,-1,30
 540 159 540 159 526.5 159 c 128,-1,31
 513 159 513 159 498.5 162.5 c 128,-1,32
 484 166 484 166 461 174.5 c 128,-1,33
 438 183 438 183 418 192 c 0,34,35
 309 239 309 239 246 263 c 128,-1,36
 183 287 183 287 165.5 295 c 128,-1,37
 148 303 148 303 125 316.5 c 128,-1,38
 102 330 102 330 93.5 344 c 128,-1,0
 85 358 85 358 85 376 c 128,-1,1
EndSplineSet
EndChar

StartChar: equal
Encoding: 61 61 32
Width: 662
GlyphClass: 2
Flags: W
LayerCount: 2
Fore
SplineSet
326 412 m 1,0,-1
 142 409 l 2,1,2
 120 409 120 409 106.5 421 c 128,-1,3
 93 433 93 433 93 451 c 128,-1,4
 93 469 93 469 106.5 481 c 128,-1,5
 120 493 120 493 142 493 c 2,6,-1
 326 490 l 1,7,-1
 520 493 l 2,8,9
 542 493 542 493 555.5 481 c 128,-1,10
 569 469 569 469 569 451 c 128,-1,11
 569 433 569 433 555.5 421 c 128,-1,12
 542 409 542 409 520 409 c 2,13,-1
 326 412 l 1,0,-1
326 258 m 1,14,-1
 142 255 l 2,15,16
 120 255 120 255 106.5 267 c 128,-1,17
 93 279 93 279 93 297 c 128,-1,18
 93 315 93 315 106.5 327 c 128,-1,19
 120 339 120 339 142 339 c 2,20,-1
 326 336 l 1,21,-1
 520 339 l 2,22,23
 542 339 542 339 555.5 327 c 128,-1,24
 569 315 569 315 569 297 c 128,-1,25
 569 279 569 279 555.5 267 c 128,-1,26
 542 255 542 255 520 255 c 2,27,-1
 326 258 l 1,14,-1
EndSplineSet
EndChar

StartChar: greater
Encoding: 62 62 33
Width: 620
GlyphClass: 2
Flags: W
LayerCount: 2
Fore
SplineSet
535 376 m 128,-1,1
 535 358 535 358 526.5 344 c 128,-1,2
 518 330 518 330 495 316.5 c 128,-1,3
 472 303 472 303 454.5 295 c 128,-1,4
 437 287 437 287 393.5 270.5 c 128,-1,5
 350 254 350 254 323.5 243 c 128,-1,6
 297 232 297 232 259 216 c 128,-1,7
 221 200 221 200 201.5 191.5 c 128,-1,8
 182 183 182 183 159 174 c 0,9,10
 117 159 117 159 98.5 159 c 128,-1,11
 80 159 80 159 68 169.5 c 128,-1,12
 56 180 56 180 56 196 c 0,13,14
 56 223 56 223 90 238 c 0,15,16
 127 253 127 253 185 274.5 c 128,-1,17
 243 296 243 296 267 306 c 0,18,19
 418 366 418 366 418 376 c 0,20,21
 418 384 418 384 304 430 c 2,22,-1
 266 446 l 2,23,24
 242 456 242 456 184 477.5 c 128,-1,25
 126 499 126 499 89 514 c 0,26,27
 55 529 55 529 55 556 c 0,28,29
 55 572 55 572 67 582.5 c 128,-1,30
 79 593 79 593 92.5 593 c 128,-1,31
 106 593 106 593 120.5 589.5 c 128,-1,32
 135 586 135 586 158 577.5 c 128,-1,33
 181 569 181 569 200 560 c 0,34,35
 310 513 310 513 373 489 c 128,-1,36
 436 465 436 465 454 457 c 128,-1,37
 472 449 472 449 495 435.5 c 128,-1,38
 518 422 518 422 526.5 408 c 128,-1,0
 535 394 535 394 535 376 c 128,-1,1
EndSplineSet
EndChar

StartChar: question
Encoding: 63 63 34
Width: 521
GlyphClass: 2
Flags: W
LayerCount: 2
Fore
SplineSet
456 580 m 0,0,1
 456 542 456 542 439.5 506 c 128,-1,2
 423 470 423 470 407.5 451.5 c 128,-1,3
 392 433 392 433 360 400 c 1,4,5
 330 375 330 375 314.5 360.5 c 128,-1,6
 299 346 299 346 284.5 322 c 128,-1,7
 270 298 270 298 270 274 c 0,8,9
 270 208 270 208 225 208 c 0,10,11
 205 208 205 208 192 225.5 c 128,-1,12
 179 243 179 243 179 272 c 128,-1,13
 179 301 179 301 187 325 c 128,-1,14
 195 349 195 349 214 372 c 0,15,16
 240 403 240 403 288 446 c 1,17,18
 312 473 312 473 324 488 c 128,-1,19
 336 503 336 503 348 529 c 128,-1,20
 360 555 360 555 360 580 c 0,21,22
 360 623 360 623 327.5 650.5 c 128,-1,23
 295 678 295 678 254 678 c 0,24,25
 193 678 193 678 149 634 c 0,26,27
 125 606 125 606 105.5 606 c 128,-1,28
 86 606 86 606 75 618.5 c 128,-1,29
 64 631 64 631 64 648 c 0,30,31
 64 686 64 686 121.5 726 c 128,-1,32
 179 766 179 766 249 766 c 0,33,34
 341 766 341 766 398.5 712.5 c 128,-1,35
 456 659 456 659 456 580 c 0,0,1
264 95 m 128,-1,37
 277 78 277 78 277 52.5 c 128,-1,38
 277 27 277 27 260 6 c 128,-1,39
 243 -15 243 -15 219 -15 c 128,-1,40
 195 -15 195 -15 181.5 3.5 c 128,-1,41
 168 22 168 22 168 47 c 128,-1,42
 168 72 168 72 184.5 92 c 128,-1,43
 201 112 201 112 226 112 c 128,-1,36
 251 112 251 112 264 95 c 128,-1,37
EndSplineSet
EndChar

StartChar: at
Encoding: 64 64 35
Width: 938
GlyphClass: 2
Flags: W
LayerCount: 2
Fore
SplineSet
864 369 m 0,0,1
 864 266 864 266 813.5 196.5 c 128,-1,2
 763 127 763 127 692 127 c 0,3,4
 603 127 603 127 575 210 c 1,5,6
 518 127 518 127 429 127 c 0,7,8
 385 127 385 127 350 148 c 128,-1,9
 315 169 315 169 296 202 c 0,10,11
 257 267 257 267 257 342 c 0,12,13
 257 437 257 437 315.5 506.5 c 128,-1,14
 374 576 374 576 465 576 c 0,15,16
 514 576 514 576 564 540 c 1,17,18
 578 576 578 576 610 576 c 0,19,20
 664 576 664 576 664 496 c 0,21,22
 664 486 664 486 654 421 c 128,-1,23
 644 356 644 356 644 313 c 0,24,25
 644 209 644 209 691 209 c 0,26,27
 723 209 723 209 748.5 247.5 c 128,-1,28
 774 286 774 286 774 371 c 0,29,30
 774 521 774 521 685.5 599.5 c 128,-1,31
 597 678 597 678 468 678 c 128,-1,32
 339 678 339 678 249 581 c 128,-1,33
 159 484 159 484 159 338.5 c 128,-1,34
 159 193 159 193 236 109.5 c 128,-1,35
 313 26 313 26 421 26 c 0,36,37
 474 26 474 26 531 48.5 c 128,-1,38
 588 71 588 71 592 71 c 0,39,40
 608 71 608 71 618 61.5 c 128,-1,41
 628 52 628 52 628 37 c 0,42,43
 628 10 628 10 566.5 -22.5 c 128,-1,44
 505 -55 505 -55 417 -55 c 0,45,46
 268 -55 268 -55 166 54.5 c 128,-1,47
 64 164 64 164 64 338.5 c 128,-1,48
 64 513 64 513 180 639 c 128,-1,49
 296 765 296 765 467.5 765 c 128,-1,50
 639 765 639 765 751.5 658 c 128,-1,51
 864 551 864 551 864 369 c 0,0,1
561 334 m 1,52,-1
 561 453 l 1,53,54
 512 489 512 489 465.5 489 c 128,-1,55
 419 489 419 489 385.5 447.5 c 128,-1,56
 352 406 352 406 352 348.5 c 128,-1,57
 352 291 352 291 372 252 c 128,-1,58
 392 213 392 213 432.5 213 c 128,-1,59
 473 213 473 213 505.5 248 c 128,-1,60
 538 283 538 283 561 334 c 1,52,-1
EndSplineSet
EndChar

StartChar: A
Encoding: 65 65 36
Width: 692
GlyphClass: 2
Flags: W
LayerCount: 2
Fore
SplineSet
476 241 m 1,0,-1
 347 244 l 2,1,2
 251 244 251 244 207 242 c 1,3,4
 196 209 196 209 175.5 138.5 c 128,-1,5
 155 68 155 68 142 29 c 128,-1,6
 129 -10 129 -10 96 -10 c 0,7,8
 77 -10 77 -10 65.5 2 c 128,-1,9
 54 14 54 14 54 28.5 c 128,-1,10
 54 43 54 43 55.5 52 c 128,-1,11
 57 61 57 61 62.5 79 c 128,-1,12
 68 97 68 97 74 113 c 0,13,14
 103 199 103 199 116 239 c 1,15,16
 87 239 87 239 70.5 251.5 c 128,-1,17
 54 264 54 264 54 285 c 0,18,19
 54 332 54 332 128 332 c 2,20,-1
 146 332 l 1,21,22
 242 600 242 600 256.5 638.5 c 128,-1,23
 271 677 271 677 273 683 c 128,-1,24
 275 689 275 689 279.5 700.5 c 128,-1,25
 284 712 284 712 287.5 717.5 c 128,-1,26
 291 723 291 723 296 731 c 128,-1,27
 301 739 301 739 305.5 743.5 c 128,-1,28
 310 748 310 748 316 752 c 0,29,30
 329 760 329 760 343.5 760 c 128,-1,31
 358 760 358 760 367 757 c 128,-1,32
 376 754 376 754 384 746 c 128,-1,33
 392 738 392 738 397.5 729 c 128,-1,34
 403 720 403 720 410.5 701 c 128,-1,35
 418 682 418 682 424 666 c 0,36,37
 472 519 472 519 544 332 c 1,38,-1
 580 333 l 2,39,40
 606 333 606 333 622.5 319 c 128,-1,41
 639 305 639 305 639 284 c 0,42,43
 639 240 639 240 573 237 c 1,44,45
 583 205 583 205 600 156 c 0,46,47
 639 50 639 50 639 33.5 c 128,-1,48
 639 17 639 17 627.5 3.5 c 128,-1,49
 616 -10 616 -10 596 -10 c 0,50,51
 560 -10 560 -10 544 29 c 0,52,53
 527 78 527 78 476 241 c 1,0,-1
232 328 m 1,54,55
 296 326 296 326 355.5 326 c 128,-1,56
 415 326 415 326 451 328 c 1,57,58
 346 630 346 630 344 630 c 0,59,60
 338 630 338 630 258 404 c 2,61,-1
 232 328 l 1,54,55
419.5 986 m 128,-1,63
 449 956 449 956 449 913.5 c 128,-1,64
 449 871 449 871 420.5 843 c 128,-1,65
 392 815 392 815 346 815 c 128,-1,66
 300 815 300 815 271.5 843 c 128,-1,67
 243 871 243 871 243 914 c 128,-1,68
 243 957 243 957 272.5 986.5 c 128,-1,69
 302 1016 302 1016 346 1016 c 128,-1,62
 390 1016 390 1016 419.5 986 c 128,-1,63
384 914 m 128,-1,71
 384 929 384 929 372 942 c 128,-1,72
 360 955 360 955 345.5 955 c 128,-1,73
 331 955 331 955 319.5 942.5 c 128,-1,74
 308 930 308 930 308 914.5 c 128,-1,75
 308 899 308 899 319 887 c 128,-1,76
 330 875 330 875 345.5 875 c 128,-1,77
 361 875 361 875 372.5 887 c 128,-1,70
 384 899 384 899 384 914 c 128,-1,71
EndSplineSet
EndChar

StartChar: B
Encoding: 66 66 37
Width: 725
GlyphClass: 2
Flags: W
LayerCount: 2
Fore
SplineSet
662 212 m 0,0,1
 662 109 662 109 572.5 47 c 128,-1,2
 483 -15 483 -15 339 -15 c 0,3,4
 223 -15 223 -15 148.5 8.5 c 128,-1,5
 74 32 74 32 74 69 c 128,-1,6
 74 106 74 106 124 106 c 1,7,8
 127 209 127 209 127 379 c 128,-1,9
 127 549 127 549 123 621 c 1,10,11
 80 634 80 634 80 667 c 0,12,13
 80 692 80 692 110 712 c 128,-1,14
 140 732 140 732 183 743 c 0,15,16
 269 765 269 765 338 765 c 128,-1,17
 407 765 407 765 461.5 746.5 c 128,-1,18
 516 728 516 728 546 698 c 0,19,20
 608 639 608 639 608 574 c 0,21,22
 608 468 608 468 511 409 c 1,23,24
 577 385 577 385 619.5 330.5 c 128,-1,25
 662 276 662 276 662 212 c 0,0,1
336 72 m 0,26,27
 441 72 441 72 503 109.5 c 128,-1,28
 565 147 565 147 565 218 c 0,29,30
 565 274 565 274 510.5 311.5 c 128,-1,31
 456 349 456 349 394 359 c 1,32,33
 333 345 333 345 290 345 c 128,-1,34
 247 345 247 345 218 349 c 1,35,36
 218 166 218 166 221 85 c 1,37,38
 263 72 263 72 336 72 c 0,26,27
336 679 m 0,39,40
 274 679 274 679 221 659 c 1,41,42
 218 608 218 608 218 439 c 1,43,44
 259 448 259 448 301 448 c 128,-1,45
 343 448 343 448 380 440 c 1,46,47
 420 442 420 442 468.5 478 c 128,-1,48
 517 514 517 514 517 573 c 0,49,50
 517 614 517 614 472.5 646.5 c 128,-1,51
 428 679 428 679 336 679 c 0,39,40
EndSplineSet
EndChar

StartChar: C
Encoding: 67 67 38
Width: 708
GlyphClass: 2
Flags: W
LayerCount: 2
Fore
SplineSet
655 106 m 0,0,1
 655 70 655 70 580.5 27.5 c 128,-1,2
 506 -15 506 -15 405 -15 c 0,3,4
 262 -15 262 -15 167 99 c 128,-1,5
 72 213 72 213 72 376 c 128,-1,6
 72 539 72 539 167.5 652 c 128,-1,7
 263 765 263 765 407 765 c 0,8,9
 495 765 495 765 564.5 732 c 128,-1,10
 634 699 634 699 634 658 c 0,11,12
 634 638 634 638 622 626 c 128,-1,13
 610 614 610 614 589.5 614 c 128,-1,14
 569 614 569 614 535 637 c 0,15,16
 471 678 471 678 407 678 c 0,17,18
 303 678 303 678 235.5 588.5 c 128,-1,19
 168 499 168 499 168 376.5 c 128,-1,20
 168 254 168 254 235.5 163 c 128,-1,21
 303 72 303 72 401 72 c 128,-1,22
 499 72 499 72 580 121 c 0,23,24
 613 139 613 139 624.5 139 c 128,-1,25
 636 139 636 139 645.5 129.5 c 128,-1,26
 655 120 655 120 655 106 c 0,0,1
EndSplineSet
EndChar

StartChar: D
Encoding: 68 68 39
Width: 770
GlyphClass: 2
Flags: W
LayerCount: 2
Fore
SplineSet
138 411 m 1,0,-1
 133 636 l 1,1,2
 89 640 89 640 89 677.5 c 128,-1,3
 89 715 89 715 168 739.5 c 128,-1,4
 247 764 247 764 331.5 764 c 128,-1,5
 416 764 416 764 489 731 c 128,-1,6
 562 698 562 698 606 642 c 0,7,8
 697 528 697 528 697 372 c 0,9,10
 697 220 697 220 610 108 c 0,11,12
 567 52 567 52 496 18.5 c 128,-1,13
 425 -15 425 -15 327 -15 c 128,-1,14
 229 -15 229 -15 157 10 c 128,-1,15
 85 35 85 35 85 74 c 0,16,17
 85 111 85 111 135 111 c 1,18,-1
 138 334 l 1,19,20
 118 333 118 333 82.5 333 c 128,-1,21
 47 333 47 333 33.5 344 c 128,-1,22
 20 355 20 355 20 373 c 128,-1,23
 20 391 20 391 33.5 402 c 128,-1,24
 47 413 47 413 72.5 413 c 128,-1,25
 98 413 98 413 138 411 c 1,0,-1
232 661 m 1,26,27
 229 606 229 606 229 411 c 1,28,29
 273 413 273 413 301 413 c 128,-1,30
 329 413 329 413 342.5 402 c 128,-1,31
 356 391 356 391 356 373 c 128,-1,32
 356 355 356 355 342.5 344 c 128,-1,33
 329 333 329 333 301 333 c 128,-1,34
 273 333 273 333 229 335 c 1,35,36
 229 170 229 170 234 85 c 1,37,38
 270 72 270 72 335 72 c 128,-1,39
 400 72 400 72 452.5 98 c 128,-1,40
 505 124 505 124 536 168 c 0,41,42
 601 258 601 258 601 379.5 c 128,-1,43
 601 501 601 501 529.5 589.5 c 128,-1,44
 458 678 458 678 323 678 c 0,45,46
 266 678 266 678 232 661 c 1,26,27
EndSplineSet
EndChar

StartChar: E
Encoding: 69 69 40
Width: 639
GlyphClass: 2
Flags: W
LayerCount: 2
Fore
SplineSet
514 662 m 2,0,-1
 355 668 l 2,1,2
 278 668 278 668 218 663 c 1,3,-1
 218 441 l 1,4,5
 237 440 237 440 284 440 c 2,6,-1
 463 445 l 2,7,8
 490 445 490 445 506 432.5 c 128,-1,9
 522 420 522 420 522 399 c 0,10,11
 522 355 522 355 463 355 c 2,12,-1
 284 359 l 2,13,14
 241 359 241 359 218 358 c 1,15,-1
 218 279 l 2,16,17
 218 133 218 133 222 87 c 1,18,19
 282 82 282 82 358 82 c 2,20,21
 358 82 358 82 517 88 c 0,22,23
 544 88 544 88 560.5 75.5 c 128,-1,24
 577 63 577 63 577 41 c 128,-1,25
 577 19 577 19 560.5 6.5 c 128,-1,26
 544 -6 544 -6 517 -6 c 2,27,-1
 358 0 l 1,28,-1
 177 -5 l 2,29,30
 123 -5 123 -5 123 41 c 0,31,32
 123 76 123 76 125.5 155.5 c 128,-1,33
 128 235 128 235 128 355 c 1,34,35
 61 355 61 355 61 399 c 0,36,37
 61 422 61 422 80 433.5 c 128,-1,38
 99 445 99 445 128 445 c 1,39,40
 126 632 126 632 121 670 c 1,41,42
 109 689 109 689 109 710 c 0,43,44
 109 755 109 755 171 755 c 2,45,-1
 355 750 l 1,46,-1
 514 756 l 2,47,48
 541 756 541 756 557.5 743.5 c 128,-1,49
 574 731 574 731 574 709 c 128,-1,50
 574 687 574 687 557.5 674.5 c 128,-1,51
 541 662 541 662 514 662 c 2,0,-1
EndSplineSet
EndChar

StartChar: F
Encoding: 70 70 41
Width: 616
GlyphClass: 2
Flags: W
LayerCount: 2
Fore
SplineSet
284 440 m 2,0,-1
 454 445 l 2,1,2
 481 445 481 445 497 432.5 c 128,-1,3
 513 420 513 420 513 399 c 0,4,5
 513 355 513 355 454 355 c 2,6,-1
 284 359 l 2,7,8
 240 359 240 359 217 358 c 1,9,10
 217 227 217 227 220 148 c 128,-1,11
 223 69 223 69 223 61 c 0,12,13
 223 -10 223 -10 172 -10 c 128,-1,14
 121 -10 121 -10 121 61 c 0,15,16
 121 69 121 69 122 108 c 0,17,18
 127 225 127 225 127 355 c 1,19,20
 60 355 60 355 60 399 c 0,21,22
 60 422 60 422 79 433.5 c 128,-1,23
 98 445 98 445 127 445 c 1,24,25
 125 632 125 632 120 670 c 1,26,27
 108 689 108 689 108 710 c 0,28,29
 108 755 108 755 170 755 c 2,30,-1
 355 750 l 1,31,-1
 515 756 l 2,32,33
 542 756 542 756 558.5 743.5 c 128,-1,34
 575 731 575 731 575 709 c 128,-1,35
 575 687 575 687 558.5 674.5 c 128,-1,36
 542 662 542 662 515 662 c 2,37,-1
 355 668 l 2,38,39
 277 668 277 668 217 663 c 1,40,-1
 217 441 l 1,41,42
 236 440 236 440 284 440 c 2,0,-1
EndSplineSet
EndChar

StartChar: G
Encoding: 71 71 42
Width: 662
GlyphClass: 2
Flags: W
LayerCount: 2
Fore
SplineSet
326 95 m 5,0,-1
 142 92 l 6,1,2
 120 92 120 92 106.5 104 c 132,-1,3
 93 116 93 116 93 134 c 132,-1,4
 93 152 93 152 106.5 164 c 132,-1,5
 120 176 120 176 142 176 c 6,6,-1
 326 173 l 5,7,-1
 520 176 l 6,8,9
 542 176 542 176 555.5 164 c 132,-1,10
 569 152 569 152 569 134 c 132,-1,11
 569 116 569 116 555.5 104 c 132,-1,12
 542 92 542 92 520 92 c 6,13,-1
 326 95 l 5,0,-1
326 412 m 1,14,-1
 142 409 l 2,15,16
 120 409 120 409 106.5 421 c 128,-1,17
 93 433 93 433 93 451 c 128,-1,18
 93 469 93 469 106.5 481 c 128,-1,19
 120 493 120 493 142 493 c 2,20,-1
 326 490 l 1,21,-1
 520 493 l 2,22,23
 542 493 542 493 555.5 481 c 128,-1,24
 569 469 569 469 569 451 c 128,-1,25
 569 433 569 433 555.5 421 c 128,-1,26
 542 409 542 409 520 409 c 2,27,-1
 326 412 l 1,14,-1
326 258 m 1,28,-1
 142 255 l 2,29,30
 120 255 120 255 106.5 267 c 128,-1,31
 93 279 93 279 93 297 c 128,-1,32
 93 315 93 315 106.5 327 c 128,-1,33
 120 339 120 339 142 339 c 2,34,-1
 326 336 l 1,35,-1
 520 339 l 2,36,37
 542 339 542 339 555.5 327 c 128,-1,38
 569 315 569 315 569 297 c 128,-1,39
 569 279 569 279 555.5 267 c 128,-1,40
 542 255 542 255 520 255 c 2,41,-1
 326 258 l 1,28,-1
EndSplineSet
EndChar

StartChar: H
Encoding: 72 72 43
Width: 628
GlyphClass: 2
Flags: W
LayerCount: 2
Fore
SplineSet
340 328 m 1,0,-1
 502 331 l 2,1,2
 524 331 524 331 538 319 c 128,-1,3
 552 307 552 307 552 289 c 128,-1,4
 552 271 552 271 538 259 c 128,-1,5
 524 247 524 247 502 247 c 2,6,-1
 290 250 l 1,7,8
 257 193 257 193 235.5 165.5 c 128,-1,9
 214 138 214 138 194 138 c 0,10,11
 153 138 153 138 153 175 c 0,12,13
 153 191 153 191 194 248 c 1,14,15
 194 248 194 248 125 247 c 0,16,17
 103 247 103 247 89.5 259 c 128,-1,18
 76 271 76 271 76 289 c 128,-1,19
 76 307 76 307 89.5 319 c 128,-1,20
 103 331 103 331 125 331 c 2,21,22
 125 331 125 331 246 328 c 1,23,24
 253 341 253 341 268 364.5 c 128,-1,25
 283 388 283 388 291 404 c 1,26,-1
 125 401 l 2,27,28
 103 401 103 401 89.5 412.5 c 128,-1,29
 76 424 76 424 76 442.5 c 128,-1,30
 76 461 76 461 89.5 472.5 c 128,-1,31
 103 484 103 484 125 484 c 2,32,-1
 339 481 l 1,33,34
 343 487 343 487 362 518 c 128,-1,35
 381 549 381 549 391 564 c 0,36,37
 410 588 410 588 428.5 588 c 128,-1,38
 447 588 447 588 460 577 c 128,-1,39
 473 566 473 566 473 549.5 c 128,-1,40
 473 533 473 533 462 518 c 2,41,-1
 436 483 l 1,42,43
 461 484 461 484 492.5 484 c 128,-1,44
 524 484 524 484 538 472.5 c 128,-1,45
 552 461 552 461 552 442.5 c 128,-1,46
 552 424 552 424 538 412.5 c 128,-1,47
 524 401 524 401 502 401 c 2,48,-1
 384 403 l 1,49,-1
 340 328 l 1,0,-1
EndSplineSet
EndChar

StartChar: I
Encoding: 73 73 44
Width: 997
GlyphClass: 2
Flags: W
LayerCount: 2
Fore
SplineSet
878 665 m 2,0,-1
 638 670 l 2,1,2
 637 670 637 670 597 668 c 1,3,4
 676 578 676 578 693 441 c 1,5,6
 791 443 791 443 824 443 c 0,7,8
 883 443 883 443 883 399 c 128,-1,9
 883 355 883 355 824 355 c 0,10,11
 796 355 796 355 698 357 c 1,12,13
 694 196 694 196 596 82 c 1,14,15
 681.626898048 79.0130151844 681.626898048 79.0130151844 714 80 c 2,16,-1
 878 85 l 2,17,18
 937 87 937 87 937 40 c 0,19,20
 937 19 937 19 921 7 c 0,21,22
 904.260712675 -5.80063148399 904.260712675 -5.80063148399 878 -5 c 2,23,-1
 714 0 l 1,24,-1
 539 -5 l 1,25,26
 510 -15 l 5,27,28
 376 -15 376 -15 493 109 c 128,-1,29
 610 233 610 233 610 395 c 128,-1,30
 610 557 610 557 493.5 661 c 128,-1,31
 377 765 377 765 512 765 c 5,32,33
 533 755 l 1,34,-1
 725 750 l 1,35,-1
 878 755 l 2,36,37
 904 756 904 756 921 743 c 0,38,39
 937 731 937 731 937 710 c 0,40,41
 937 691 937 691 921 677 c 0,42,43
 906 664 906 664 878 665 c 2,0,-1
EndSplineSet
EndChar

StartChar: J
Encoding: 74 74 45
Width: 637
GlyphClass: 2
Flags: W
LayerCount: 2
Fore
SplineSet
82 457 m 128,-1,1
 82 475 82 475 90.5 489 c 128,-1,2
 99 503 99 503 122 516.5 c 128,-1,3
 145 530 145 530 163 538 c 128,-1,4
 181 546 181 546 224.5 562.5 c 128,-1,5
 268 579 268 579 294.5 590 c 128,-1,6
 321 601 321 601 359 617 c 128,-1,7
 397 633 397 633 416.5 641.5 c 128,-1,8
 436 650 436 650 459 658 c 0,9,10
 501 674 501 674 519.5 674 c 128,-1,11
 538 674 538 674 550 663.5 c 128,-1,12
 562 653 562 653 562 637 c 0,13,14
 562 610 562 610 528 595 c 0,15,16
 491 580 491 580 433 558.5 c 128,-1,17
 375 537 375 537 351 527 c 0,18,19
 199 467 199 467 199 457 c 0,20,21
 199 449 199 449 312 402 c 2,22,-1
 350 387 l 2,23,24
 374 377 374 377 432 355.5 c 128,-1,25
 490 334 490 334 527 319 c 0,26,27
 561 304 561 304 561 277 c 0,28,29
 561 261 561 261 549 250.5 c 128,-1,30
 537 240 537 240 523.5 240 c 128,-1,31
 510 240 510 240 495.5 243.5 c 128,-1,32
 481 247 481 247 458 255.5 c 128,-1,33
 435 264 435 264 416 272 c 0,34,35
 306 320 306 320 243 344 c 128,-1,36
 180 368 180 368 162.5 376 c 128,-1,37
 145 384 145 384 122 397.5 c 128,-1,38
 99 411 99 411 90.5 425 c 128,-1,0
 82 439 82 439 82 457 c 128,-1,1
321 167 m 1,39,-1
 511 170 l 2,40,41
 533 170 533 170 546.5 158 c 128,-1,42
 560 146 560 146 560 128 c 128,-1,43
 560 110 560 110 546.5 98 c 128,-1,44
 533 86 533 86 511 86 c 2,45,-1
 321 89 l 1,46,-1
 131 86 l 2,47,48
 109 86 109 86 95.5 98 c 128,-1,49
 82 110 82 110 82 128 c 128,-1,50
 82 146 82 146 95.5 158 c 128,-1,51
 109 170 109 170 131 170 c 2,52,-1
 321 167 l 1,39,-1
EndSplineSet
EndChar

StartChar: K
Encoding: 75 75 46
Width: 637
GlyphClass: 2
Flags: W
LayerCount: 2
Fore
SplineSet
555 457 m 128,-1,1
 555 439 555 439 546.5 425 c 128,-1,2
 538 411 538 411 515 397.5 c 128,-1,3
 492 384 492 384 474.5 376 c 128,-1,4
 457 368 457 368 413.5 351.5 c 128,-1,5
 370 335 370 335 343.5 324 c 128,-1,6
 317 313 317 313 279 297 c 128,-1,7
 241 281 241 281 221.5 272.5 c 128,-1,8
 202 264 202 264 179 256 c 0,9,10
 137 240 137 240 118.5 240 c 128,-1,11
 100 240 100 240 88 250.5 c 128,-1,12
 76 261 76 261 76 277 c 0,13,14
 76 304 76 304 110 319 c 0,15,16
 147 334 147 334 205 355.5 c 128,-1,17
 263 377 263 377 287 387 c 0,18,19
 438 447 438 447 438 457 c 0,20,21
 438 465 438 465 324 512 c 2,22,-1
 286 527 l 2,23,24
 262 537 262 537 204 558.5 c 128,-1,25
 146 580 146 580 109 595 c 0,26,27
 75 610 75 610 75 637 c 0,28,29
 75 653 75 653 87 663.5 c 128,-1,30
 99 674 99 674 112.5 674 c 128,-1,31
 126 674 126 674 140.5 670.5 c 128,-1,32
 155 667 155 667 178 658.5 c 128,-1,33
 201 650 201 650 220 642 c 0,34,35
 330 594 330 594 393 570 c 128,-1,36
 456 546 456 546 474 538 c 128,-1,37
 492 530 492 530 515 516.5 c 128,-1,38
 538 503 538 503 546.5 489 c 128,-1,0
 555 475 555 475 555 457 c 128,-1,1
316 89 m 1,39,-1
 126 86 l 2,40,41
 104 86 104 86 90.5 98 c 128,-1,42
 77 110 77 110 77 128 c 128,-1,43
 77 146 77 146 90.5 158 c 128,-1,44
 104 170 104 170 126 170 c 2,45,-1
 316 167 l 1,46,-1
 506 170 l 2,47,48
 528 170 528 170 541.5 158 c 128,-1,49
 555 146 555 146 555 128 c 128,-1,50
 555 110 555 110 541.5 98 c 128,-1,51
 528 86 528 86 506 86 c 2,52,-1
 316 89 l 1,39,-1
EndSplineSet
EndChar

StartChar: L
Encoding: 76 76 47
Width: 628
GlyphClass: 2
Flags: W
LayerCount: 2
Fore
SplineSet
314 406 m 1,0,-1
 511 409 l 2,1,2
 529 409 529 409 540.5 399 c 128,-1,3
 552 389 552 389 552 374 c 128,-1,4
 552 359 552 359 540.5 349 c 128,-1,5
 529 339 529 339 511 339 c 2,6,-1
 314 342 l 1,7,-1
 117 339 l 2,8,9
 99 339 99 339 87.5 349 c 128,-1,10
 76 359 76 359 76 374 c 128,-1,11
 76 389 76 389 87.5 399 c 128,-1,12
 99 409 99 409 117 409 c 2,13,14
 117 409 117 409 314 406 c 1,0,-1
355.5 598 m 128,-1,16
 369 581 369 581 369 554.5 c 128,-1,17
 369 528 369 528 352 507 c 128,-1,18
 335 486 335 486 310.5 486 c 128,-1,19
 286 486 286 486 272 504 c 128,-1,20
 258 522 258 522 258 548 c 128,-1,21
 258 574 258 574 274.5 594.5 c 128,-1,22
 291 615 291 615 316.5 615 c 128,-1,15
 342 615 342 615 355.5 598 c 128,-1,16
357.5 245 m 128,-1,24
 371 228 371 228 371 202 c 128,-1,25
 371 176 371 176 354 154.5 c 128,-1,26
 337 133 337 133 312.5 133 c 128,-1,27
 288 133 288 133 274 151 c 128,-1,28
 260 169 260 169 260 195 c 128,-1,29
 260 221 260 221 276.5 241.5 c 128,-1,30
 293 262 293 262 318.5 262 c 128,-1,23
 344 262 344 262 357.5 245 c 128,-1,24
EndSplineSet
EndChar

StartChar: M
Encoding: 77 77 48
Width: 673
GlyphClass: 2
Flags: W
LayerCount: 2
Fore
SplineSet
397 709 m 4,0,1
 380 759 380 759 336.5 759 c 132,-1,2
 293 759 293 759 276 709 c 4,3,4
 130 299 130 299 120.5 269.5 c 132,-1,5
 111 240 111 240 87.5 176 c 132,-1,6
 64 112 64 112 52 79.5 c 132,-1,7
 40 47 40 47 40 33 c 132,-1,8
 40 19 40 19 52.5 4 c 132,-1,9
 65 -11 65 -11 87 -11 c 4,10,11
 125 -11 125 -11 140 34 c 4,12,13
 330 616 330 616 337 616 c 4,14,15
 348 616 348 616 538 34 c 4,16,17
 553 -11 553 -11 586 -11 c 4,18,19
 608 -11 608 -11 620.5 4 c 132,-1,20
 633 19 633 19 633 33 c 132,-1,21
 633 47 633 47 621 79 c 4,22,23
 564 234 564 234 553.5 266.5 c 132,-1,24
 543 299 543 299 397 709 c 4,0,1
EndSplineSet
EndChar

StartChar: N
Encoding: 78 78 49
Width: 216
GlyphClass: 2
Flags: W
LayerCount: 2
Fore
SplineSet
181.5 736 m 132,-1,1
 211 706 211 706 211 663.5 c 132,-1,2
 211 621 211 621 182.5 593 c 132,-1,3
 154 565 154 565 108 565 c 132,-1,4
 62 565 62 565 33.5 593 c 132,-1,5
 5 621 5 621 5 664 c 132,-1,6
 5 707 5 707 34.5 736.5 c 132,-1,7
 64 766 64 766 108 766 c 132,-1,0
 152 766 152 766 181.5 736 c 132,-1,1
146 664 m 132,-1,9
 146 679 146 679 134 692 c 132,-1,10
 122 705 122 705 107.5 705 c 132,-1,11
 93 705 93 705 81.5 692.5 c 132,-1,12
 70 680 70 680 70 664.5 c 132,-1,13
 70 649 70 649 81 637 c 132,-1,14
 92 625 92 625 107.5 625 c 132,-1,15
 123 625 123 625 134.5 637 c 132,-1,8
 146 649 146 649 146 664 c 132,-1,9
EndSplineSet
EndChar

StartChar: O
Encoding: 79 79 50
Width: 604
GlyphClass: 2
Flags: W
LayerCount: 2
Fore
SplineSet
339 377 m 1,0,-1
 344 50 l 2,1,2
 344 24 344 24 331 7 c 128,-1,3
 318 -10 318 -10 298 -10 c 128,-1,4
 278 -10 278 -10 265.5 7 c 128,-1,5
 253 24 253 24 253 50 c 2,6,-1
 258 377 l 1,7,-1
 258 629 l 1,8,9
 217 583 217 583 105 447 c 0,10,11
 87 426 87 426 68 426 c 128,-1,12
 49 426 49 426 37 437.5 c 128,-1,13
 25 449 25 449 25 462.5 c 128,-1,14
 25 476 25 476 28.5 485.5 c 128,-1,15
 32 495 32 495 43.5 509 c 128,-1,16
 55 523 55 523 66 535 c 0,17,18
 114 584 114 584 134.5 607 c 128,-1,19
 155 630 155 630 190.5 668.5 c 128,-1,20
 226 707 226 707 254 738 c 0,21,22
 278 760 278 760 298.5 760 c 128,-1,23
 319 760 319 760 343 738 c 0,24,25
 371 707 371 707 406.5 668.5 c 128,-1,26
 442 630 442 630 455 615.5 c 128,-1,27
 468 601 468 601 493.5 574 c 128,-1,28
 519 547 519 547 530.5 535 c 128,-1,29
 542 523 542 523 554 509 c 0,30,31
 572 486 572 486 572 467.5 c 128,-1,32
 572 449 572 449 560 437.5 c 128,-1,33
 548 426 548 426 529 426 c 128,-1,34
 510 426 510 426 492 447 c 0,35,36
 380 583 380 583 339 629 c 1,37,-1
 339 377 l 1,0,-1
EndSplineSet
EndChar

StartChar: P
Encoding: 80 80 51
Width: 604
GlyphClass: 2
Flags: W
LayerCount: 2
Fore
SplineSet
351 700 m 2,0,-1
 346 373 l 1,1,-1
 346 121 l 1,2,3
 387 167 387 167 499 303 c 0,4,5
 517 324 517 324 536 324 c 128,-1,6
 555 324 555 324 567 312.5 c 128,-1,7
 579 301 579 301 579 287.5 c 128,-1,8
 579 274 579 274 575.5 264.5 c 128,-1,9
 572 255 572 255 560.5 241 c 128,-1,10
 549 227 549 227 538 215 c 0,11,12
 490 166 490 166 469.5 143 c 128,-1,13
 449 120 449 120 413.5 81.5 c 128,-1,14
 378 43 378 43 350 12 c 0,15,16
 326 -10 326 -10 305.5 -10 c 128,-1,17
 285 -10 285 -10 261 12 c 0,18,19
 233 43 233 43 197.5 81.5 c 128,-1,20
 162 120 162 120 149 134.5 c 128,-1,21
 136 149 136 149 110.5 176 c 128,-1,22
 85 203 85 203 73.5 215 c 128,-1,23
 62 227 62 227 50 241 c 0,24,25
 32 264 32 264 32 282.5 c 128,-1,26
 32 301 32 301 44 312.5 c 128,-1,27
 56 324 56 324 75 324 c 128,-1,28
 94 324 94 324 112 303 c 0,29,30
 224 167 224 167 265 121 c 1,31,-1
 265 373 l 1,32,-1
 260 700 l 2,33,34
 260 726 260 726 272.5 743 c 128,-1,35
 285 760 285 760 305 760 c 128,-1,36
 325 760 325 760 338 743 c 128,-1,37
 351 726 351 726 351 700 c 2,0,-1
EndSplineSet
EndChar

StartChar: Q
Encoding: 81 81 52
Width: 605
GlyphClass: 2
Flags: W
LayerCount: 2
Fore
SplineSet
150 376 m 128,-1,1
 150 368 150 368 207 327 c 0,2,3
 215 321 215 321 233 309.5 c 128,-1,4
 251 298 251 298 260 291 c 0,5,6
 288 271 288 271 288 253 c 128,-1,7
 288 235 288 235 276 223.5 c 128,-1,8
 264 212 264 212 246.5 212 c 128,-1,9
 229 212 229 212 215.5 220 c 128,-1,10
 202 228 202 228 184 245 c 128,-1,11
 166 262 166 262 128.5 292.5 c 128,-1,12
 91 323 91 323 75 341 c 128,-1,13
 59 359 59 359 59 376 c 128,-1,14
 59 393 59 393 75 411 c 128,-1,15
 91 429 91 429 128.5 459.5 c 128,-1,16
 166 490 166 490 180.5 503.5 c 128,-1,17
 195 517 195 517 203 524 c 0,18,19
 223 540 223 540 243.5 540 c 128,-1,20
 264 540 264 540 276 528.5 c 128,-1,21
 288 517 288 517 288 501.5 c 128,-1,22
 288 486 288 486 277.5 475 c 128,-1,23
 267 464 267 464 239 446 c 128,-1,24
 211 428 211 428 207 425 c 0,25,0
 150 384 150 384 150 376 c 128,-1,1
390 376 m 128,-1,27
 390 368 390 368 447 327 c 0,28,29
 455 321 455 321 473 309.5 c 128,-1,30
 491 298 491 298 500 291 c 0,31,32
 528 271 528 271 528 253 c 128,-1,33
 528 235 528 235 516 223.5 c 128,-1,34
 504 212 504 212 486.5 212 c 128,-1,35
 469 212 469 212 455.5 220 c 128,-1,36
 442 228 442 228 424 245 c 128,-1,37
 406 262 406 262 368.5 292.5 c 128,-1,38
 331 323 331 323 315 341 c 128,-1,39
 299 359 299 359 299 376 c 128,-1,40
 299 393 299 393 315 411 c 128,-1,41
 331 429 331 429 368.5 459.5 c 128,-1,42
 406 490 406 490 420.5 503.5 c 128,-1,43
 435 517 435 517 443 524 c 0,44,45
 463 540 463 540 483.5 540 c 128,-1,46
 504 540 504 540 516 528.5 c 128,-1,47
 528 517 528 517 528 501.5 c 128,-1,48
 528 486 528 486 517.5 475 c 128,-1,49
 507 464 507 464 479 446 c 128,-1,50
 451 428 451 428 447 425 c 0,51,26
 390 384 390 384 390 376 c 128,-1,27
EndSplineSet
EndChar

StartChar: R
Encoding: 82 82 53
Width: 604
GlyphClass: 2
Flags: W
LayerCount: 2
Fore
SplineSet
546 376 m 128,-1,1
 546 359 546 359 530 341 c 128,-1,2
 514 323 514 323 476.5 292.5 c 128,-1,3
 439 262 439 262 424.5 248.5 c 128,-1,4
 410 235 410 235 402 228 c 0,5,6
 382 212 382 212 361.5 212 c 128,-1,7
 341 212 341 212 329 223.5 c 128,-1,8
 317 235 317 235 317 250.5 c 128,-1,9
 317 266 317 266 327.5 277 c 128,-1,10
 338 288 338 288 366 306 c 128,-1,11
 394 324 394 324 398 327 c 0,12,13
 455 368 455 368 455 376 c 128,-1,14
 455 384 455 384 398 425 c 0,15,16
 390 431 390 431 372 442.5 c 128,-1,17
 354 454 354 454 344 461 c 0,18,19
 317 481 317 481 317 499 c 128,-1,20
 317 517 317 517 329 528.5 c 128,-1,21
 341 540 341 540 358.5 540 c 128,-1,22
 376 540 376 540 389.5 532 c 128,-1,23
 403 524 403 524 421 507 c 128,-1,24
 439 490 439 490 476.5 459.5 c 128,-1,25
 514 429 514 429 530 411 c 128,-1,0
 546 393 546 393 546 376 c 128,-1,1
306 376 m 128,-1,27
 306 359 306 359 290 341 c 128,-1,28
 274 323 274 323 236.5 292.5 c 128,-1,29
 199 262 199 262 184.5 248.5 c 128,-1,30
 170 235 170 235 162 228 c 0,31,32
 142 212 142 212 121.5 212 c 128,-1,33
 101 212 101 212 89 223.5 c 128,-1,34
 77 235 77 235 77 250.5 c 128,-1,35
 77 266 77 266 87.5 277 c 128,-1,36
 98 288 98 288 126 306 c 128,-1,37
 154 324 154 324 158 327 c 0,38,39
 215 368 215 368 215 376 c 128,-1,40
 215 384 215 384 158 425 c 0,41,42
 150 431 150 431 132 442.5 c 128,-1,43
 114 454 114 454 104 461 c 0,44,45
 77 481 77 481 77 499 c 128,-1,46
 77 517 77 517 89 528.5 c 128,-1,47
 101 540 101 540 118.5 540 c 128,-1,48
 136 540 136 540 149.5 532 c 128,-1,49
 163 524 163 524 181 507 c 128,-1,50
 199 490 199 490 236.5 459.5 c 128,-1,51
 274 429 274 429 290 411 c 128,-1,26
 306 393 306 393 306 376 c 128,-1,27
EndSplineSet
EndChar

StartChar: S
Encoding: 83 83 54
Width: 872
GlyphClass: 2
Flags: W
LayerCount: 2
Fore
SplineSet
777.59375 87.3125 m 4,0,1
 803.446289062 87.017578125 803.446289062 87.017578125 819.577148438 73.265625 c 4,2,3
 835.078125 59.587890625 835.078125 59.587890625 835.536132812 36.7470703125 c 4,4,5
 835.470703125 14.578125 835.470703125 14.578125 819.495117188 0.2646484375 c 4,6,7
 803.081054688 -13.986328125 803.081054688 -13.986328125 786.48046875 -13.6982421875 c 4,8,9
 769.083984375 -13.52734375 769.083984375 -13.52734375 721.481445312 -12.6240234375 c 4,10,11
 609.139648438 -8.365234375 609.139648438 -8.365234375 479.985351562 -8.3525390625 c 4,12,13
 350.123046875 -7.865234375 350.123046875 -7.865234375 240.983398438 -10.5849609375 c 4,14,15
 131.034179688 -12.9052734375 131.034179688 -12.9052734375 128.479492188 -12.95703125 c 4,16,17
 99.037109375 -12.4736328125 99.037109375 -12.4736328125 82.4970703125 1.595703125 c 4,18,19
 65.4189453125 15.9833984375 65.4189453125 15.9833984375 65.53515625 37.1142578125 c 4,20,21
 65.111328125 66.7802734375 65.111328125 66.7802734375 104.591796875 87.0703125 c 6,22,-1
 584.166992188 333.52734375 l 5,23,24
 353.663085938 476.130859375 353.663085938 476.130859375 142.841796875 570.022460938 c 4,25,26
 94.2001953125 591.647460938 94.2001953125 591.647460938 80.3798828125 604.092773438 c 4,27,28
 66.52734375 616.0234375 66.52734375 616.0234375 66.9189453125 638.608398438 c 132,-1,29
 67.134765625 661.01953125 67.134765625 661.01953125 83.4599609375 675.58984375 c 4,30,31
 99.5244140625 689.583984375 99.5244140625 689.583984375 129.977539062 690.037109375 c 5,32,33
 156.46484375 684.814453125 156.46484375 684.814453125 356.971679688 684.78125 c 4,34,35
 557.49609375 684.395507812 557.49609375 684.395507812 666.974609375 687.432617188 c 4,36,37
 775.59765625 690.44921875 775.59765625 690.44921875 778.977539062 690.306640625 c 4,38,39
 804.594726562 690.057617188 804.594726562 690.057617188 820.962890625 676.259765625 c 132,-1,40
 837.2265625 662.61328125 837.2265625 662.61328125 836.921875 639.7421875 c 4,41,42
 836.619140625 617.618164062 836.619140625 617.618164062 820.880859375 603.258789062 c 132,-1,43
 805.229492188 589.0390625 805.229492188 589.0390625 787.364257812 589.297851562 c 4,44,45
 770.233398438 589.512695312 770.233398438 589.512695312 722.866210938 590.370117188 c 4,46,47
 544.82421875 596.569335938 544.82421875 596.569335938 454.873046875 596.670898438 c 6,48,-1
 301.872070312 596.84375 l 5,49,-1
 682.22265625 382.41796875 l 6,50,51
 717.169921875 363.208984375 717.169921875 363.208984375 717.170898438 336.37890625 c 4,52,53
 717.458007812 309.842773438 717.458007812 309.842773438 680.118164062 289.419921875 c 6,54,-1
 300.586914062 81.8486328125 l 5,55,-1
 453.5859375 81.6767578125 l 6,56,57
 578.344726562 81.05859375 578.344726562 81.05859375 665.58984375 84.4384765625 c 4,58,59
 774.44921875 87.4091796875 774.44921875 87.4091796875 777.59375 87.3125 c 4,0,1
EndSplineSet
EndChar

StartChar: T
Encoding: 84 84 55
Width: 604
GlyphClass: 2
Flags: W
LayerCount: 2
Fore
SplineSet
351 700 m 6,0,-1
 350 12 l 5,1,2
 326 -10 326 -10 305.5 -10 c 132,-1,3
 285 -10 285 -10 261 12 c 4,4,5
 233 43 233 43 197.5 81.5 c 132,-1,6
 162 120 162 120 149 134.5 c 132,-1,7
 136 149 136 149 110.5 176 c 132,-1,8
 85 203 85 203 73.5 215 c 132,-1,9
 62 227 62 227 50 241 c 4,10,11
 32 264 32 264 32 282.5 c 132,-1,12
 32 301 32 301 44 312.5 c 132,-1,13
 56 324 56 324 75 324 c 132,-1,14
 94 324 94 324 112 303 c 4,15,16
 224 167 224 167 265 121 c 5,17,-1
 265 373 l 5,18,-1
 260 700 l 6,19,20
 260 726 260 726 272.5 743 c 132,-1,21
 285 760 285 760 305 760 c 132,-1,22
 325 760 325 760 338 743 c 132,-1,23
 351 726 351 726 351 700 c 6,0,-1
EndSplineSet
EndChar

StartChar: U
Encoding: 85 85 56
Width: 743
GlyphClass: 2
Flags: W
LayerCount: 2
Fore
SplineSet
569 61.5 m 128,-1,1
 500 -15 500 -15 371.5 -15 c 128,-1,2
 243 -15 243 -15 174 62 c 128,-1,3
 105 139 105 139 103 249 c 0,4,5
 102 301 102 301 102 378 c 128,-1,6
 102 455 102 455 100.5 525.5 c 128,-1,7
 99 596 99 596 97.5 638.5 c 128,-1,8
 96 681 96 681 96 689 c 0,9,10
 96 760 96 760 147 760 c 128,-1,11
 198 760 198 760 198 689 c 0,12,13
 198 681 198 681 196 626 c 0,14,15
 192 459 192 459 192 365.5 c 128,-1,16
 192 272 192 272 199.5 230 c 128,-1,17
 207 188 207 188 226 150 c 0,18,19
 263 72 263 72 371 72 c 0,20,21
 524 72 524 72 546 249 c 0,22,23
 551 284 551 284 551 343.5 c 128,-1,24
 551 403 551 403 549.5 486.5 c 128,-1,25
 548 570 548 570 546.5 625.5 c 128,-1,26
 545 681 545 681 545 689 c 0,27,28
 545 760 545 760 596 760 c 128,-1,29
 647 760 647 760 647 689 c 0,30,31
 647 681 647 681 646 638 c 0,32,33
 641 511 641 511 641 406 c 128,-1,34
 641 301 641 301 640 249 c 0,35,0
 638 138 638 138 569 61.5 c 128,-1,1
EndSplineSet
EndChar

StartChar: V
Encoding: 86 86 57
Width: 844
GlyphClass: 2
Flags: W
LayerCount: 2
Fore
SplineSet
414 417 m 1,0,-1
 732 422 l 2,1,2
 758 422 758 422 775 409.5 c 128,-1,3
 792 397 792 397 792 377 c 128,-1,4
 792 357 792 357 775 344 c 128,-1,5
 758 331 758 331 732 331 c 2,6,-1
 414 336 l 1,7,-1
 162 336 l 1,8,9
 208 295 208 295 344 183 c 0,10,11
 365 165 365 165 365 146 c 128,-1,12
 365 127 365 127 353.5 115 c 128,-1,13
 342 103 342 103 328.5 103 c 128,-1,14
 315 103 315 103 305.5 106.5 c 128,-1,15
 296 110 296 110 282 121.5 c 128,-1,16
 268 133 268 133 256 144 c 0,17,18
 207 192 207 192 184 212.5 c 128,-1,19
 161 233 161 233 122.5 268.5 c 128,-1,20
 84 304 84 304 53 332 c 0,21,22
 31 356 31 356 31 376.5 c 128,-1,23
 31 397 31 397 53 421 c 0,24,25
 84 449 84 449 122.5 484.5 c 128,-1,26
 161 520 161 520 175.5 533 c 128,-1,27
 190 546 190 546 217 571.5 c 128,-1,28
 244 597 244 597 256 608.5 c 128,-1,29
 268 620 268 620 282 632 c 0,30,31
 305 650 305 650 323.5 650 c 128,-1,32
 342 650 342 650 353.5 638 c 128,-1,33
 365 626 365 626 365 607 c 128,-1,34
 365 588 365 588 344 570 c 0,35,36
 208 458 208 458 162 417 c 1,37,-1
 414 417 l 1,0,-1
EndSplineSet
EndChar

StartChar: W
Encoding: 87 87 58
Width: 844
GlyphClass: 2
Flags: W
LayerCount: 2
Fore
SplineSet
430 336 m 1,0,-1
 112 331 l 2,1,2
 86 331 86 331 69 344 c 128,-1,3
 52 357 52 357 52 377 c 128,-1,4
 52 397 52 397 69 409.5 c 128,-1,5
 86 422 86 422 112 422 c 2,6,-1
 430 417 l 1,7,-1
 682 417 l 1,8,9
 636 458 636 458 500 570 c 0,10,11
 479 588 479 588 479 607 c 128,-1,12
 479 626 479 626 490.5 638 c 128,-1,13
 502 650 502 650 515.5 650 c 128,-1,14
 529 650 529 650 538.5 646.5 c 128,-1,15
 548 643 548 643 562 631.5 c 128,-1,16
 576 620 576 620 588 608 c 0,17,18
 637 561 637 561 660 540.5 c 128,-1,19
 683 520 683 520 721.5 484.5 c 128,-1,20
 760 449 760 449 791 421 c 0,21,22
 813 397 813 397 813 376.5 c 128,-1,23
 813 356 813 356 791 332 c 0,24,25
 760 304 760 304 721.5 268.5 c 128,-1,26
 683 233 683 233 668.5 220 c 128,-1,27
 654 207 654 207 627 181.5 c 128,-1,28
 600 156 600 156 588 144.5 c 128,-1,29
 576 133 576 133 562 122 c 0,30,31
 539 103 539 103 520.5 103 c 128,-1,32
 502 103 502 103 490.5 115 c 128,-1,33
 479 127 479 127 479 146 c 128,-1,34
 479 165 479 165 500 183 c 0,35,36
 636 295 636 295 682 336 c 1,37,-1
 430 336 l 1,0,-1
EndSplineSet
EndChar

StartChar: X
Encoding: 88 88 59
Width: 573
GlyphClass: 2
Flags: W
LayerCount: 2
Fore
SplineSet
286 322 m 1,0,1
 283 319 283 319 243.5 282.5 c 128,-1,2
 204 246 204 246 161 203 c 0,3,4
 145 187 145 187 127 187 c 128,-1,5
 109 187 109 187 97 199 c 128,-1,6
 85 211 85 211 85 227.5 c 128,-1,7
 85 244 85 244 105.5 264 c 128,-1,8
 126 284 126 284 170.5 321.5 c 128,-1,9
 215 359 215 359 233 376 c 1,10,11
 215 393 215 393 172 428 c 128,-1,12
 129 463 129 463 108 483.5 c 128,-1,13
 87 504 87 504 87 522 c 128,-1,14
 87 540 87 540 99.5 551.5 c 128,-1,15
 112 563 112 563 129 563 c 128,-1,16
 146 563 146 563 167 545 c 128,-1,17
 188 527 188 527 227.5 488 c 128,-1,18
 267 449 267 449 286 432 c 1,19,20
 301 445 301 445 341.5 485.5 c 128,-1,21
 382 526 382 526 403.5 545 c 128,-1,22
 425 564 425 564 442 564 c 128,-1,23
 459 564 459 564 471.5 552.5 c 128,-1,24
 484 541 484 541 484 523 c 128,-1,25
 484 505 484 505 463 485 c 128,-1,26
 442 465 442 465 400 430 c 128,-1,27
 358 395 358 395 339 377 c 1,28,29
 356 361 356 361 400.5 323.5 c 128,-1,30
 445 286 445 286 472 261 c 0,31,32
 488 245 488 245 488 228.5 c 128,-1,33
 488 212 488 212 476 200 c 128,-1,34
 464 188 464 188 446 188 c 128,-1,35
 428 188 428 188 412 204 c 0,36,37
 359 257 359 257 286 322 c 1,0,1
EndSplineSet
EndChar

StartChar: Y
Encoding: 89 89 60
Width: 743
GlyphClass: 2
Flags: W
LayerCount: 2
Fore
SplineSet
569 687.5 m 132,-1,1
 500 764 500 764 371.5 764 c 132,-1,2
 243 764 243 764 174 687 c 132,-1,3
 105 610 105 610 103 500 c 4,4,5
 102 448 102 448 102 371 c 132,-1,6
 102 294 102 294 100.5 223.5 c 132,-1,7
 99 153 99 153 97.5 110.5 c 132,-1,8
 96 68 96 68 96 60 c 4,9,10
 96 -11 96 -11 147 -11 c 132,-1,11
 198 -11 198 -11 198 60 c 4,12,13
 198 68 198 68 196 123 c 4,14,15
 192 290 192 290 192 383.5 c 132,-1,16
 192 477 192 477 199.5 519 c 132,-1,17
 207 561 207 561 226 599 c 4,18,19
 263 677 263 677 371 677 c 4,20,21
 524 677 524 677 546 500 c 4,22,23
 551 465 551 465 551 405.5 c 132,-1,24
 551 346 551 346 549.5 262.5 c 132,-1,25
 548 179 548 179 546.5 123.5 c 132,-1,26
 545 68 545 68 545 60 c 4,27,28
 545 -11 545 -11 596 -11 c 132,-1,29
 647 -11 647 -11 647 60 c 4,30,31
 647 68 647 68 646 111 c 4,32,33
 641 238 641 238 641 343 c 132,-1,34
 641 448 641 448 640 500 c 4,35,0
 638 611 638 611 569 687.5 c 132,-1,1
EndSplineSet
EndChar

StartChar: Z
Encoding: 90 90 61
Width: 661
GlyphClass: 2
Flags: W
LayerCount: 2
Fore
SplineSet
568 494 m 0,0,1
 568 465 568 465 526 433.5 c 128,-1,2
 484 402 484 402 440.5 402 c 128,-1,3
 397 402 397 402 341 430 c 128,-1,4
 285 458 285 458 259 458 c 128,-1,5
 233 458 233 458 199 428.5 c 128,-1,6
 165 399 165 399 141 399 c 128,-1,7
 117 399 117 399 105 410 c 128,-1,8
 93 421 93 421 93 439 c 0,9,10
 93 472 93 472 141 503 c 128,-1,11
 189 534 189 534 244.5 534 c 128,-1,12
 300 534 300 534 357 505.5 c 128,-1,13
 414 477 414 477 439 477 c 128,-1,14
 464 477 464 477 490.5 501.5 c 128,-1,15
 517 526 517 526 533.5 526 c 128,-1,16
 550 526 550 526 559 516.5 c 128,-1,17
 568 507 568 507 568 494 c 0,0,1
568 314 m 0,18,19
 568 285 568 285 526 253.5 c 128,-1,20
 484 222 484 222 440.5 222 c 128,-1,21
 397 222 397 222 341 250 c 128,-1,22
 285 278 285 278 259 278 c 128,-1,23
 233 278 233 278 199 248.5 c 128,-1,24
 165 219 165 219 141 219 c 128,-1,25
 117 219 117 219 105 230 c 128,-1,26
 93 241 93 241 93 259 c 0,27,28
 93 292 93 292 141 323 c 128,-1,29
 189 354 189 354 244.5 354 c 128,-1,30
 300 354 300 354 357 325.5 c 128,-1,31
 414 297 414 297 439 297 c 128,-1,32
 464 297 464 297 490.5 321.5 c 128,-1,33
 517 346 517 346 533.5 346 c 128,-1,34
 550 346 550 346 559 336.5 c 128,-1,35
 568 327 568 327 568 314 c 0,18,19
EndSplineSet
EndChar

StartChar: bracketleft
Encoding: 91 91 62
Width: 438
GlyphClass: 2
Flags: W
LayerCount: 2
Fore
SplineSet
193 0 m 1,0,-1
 337 3 l 2,1,2
 364 3 364 3 380.5 -9 c 128,-1,3
 397 -21 397 -21 397 -41.5 c 128,-1,4
 397 -62 397 -62 380.5 -74 c 128,-1,5
 364 -86 364 -86 337 -86 c 2,6,-1
 243 -83 l 1,7,-1
 146 -87 l 2,8,9
 122 -87 122 -87 107 -74.5 c 128,-1,10
 92 -62 92 -62 92 -46 c 128,-1,11
 92 -30 92 -30 95 104.5 c 128,-1,12
 98 239 98 239 98 375 c 128,-1,13
 98 511 98 511 94.5 640.5 c 128,-1,14
 91 770 91 770 91 790 c 128,-1,15
 91 810 91 810 106 824.5 c 128,-1,16
 121 839 121 839 146 839 c 2,17,-1
 243 835 l 1,18,-1
 337 838 l 2,19,20
 363 838 363 838 380 825.5 c 128,-1,21
 397 813 397 813 397 793 c 128,-1,22
 397 773 397 773 380 760.5 c 128,-1,23
 363 748 363 748 337 748 c 0,24,25
 332 748 332 748 314 749 c 0,26,27
 278 751 278 751 193 751 c 1,28,29
 193 748 193 748 190 618.5 c 128,-1,30
 187 489 187 489 187 376.5 c 128,-1,31
 187 264 187 264 190 136 c 128,-1,32
 193 8 193 8 193 0 c 1,0,-1
EndSplineSet
EndChar

StartChar: backslash
Encoding: 92 92 63
Width: 433
GlyphClass: 2
Flags: W
LayerCount: 2
Fore
SplineSet
82.5 820 m 128,-1,1
 94 835 94 835 114 835 c 128,-1,2
 134 835 134 835 147.5 822 c 128,-1,3
 161 809 161 809 165 787 c 0,4,5
 243 439 243 439 290 256 c 0,6,7
 361 -20 361 -20 361 -38 c 128,-1,8
 361 -56 361 -56 348.5 -70 c 128,-1,9
 336 -84 336 -84 314 -84 c 128,-1,10
 292 -84 292 -84 280.5 -67.5 c 128,-1,11
 269 -51 269 -51 262 -20 c 0,12,13
 198 274 198 274 148 468 c 0,14,15
 71 772 71 772 71 788.5 c 128,-1,0
 71 805 71 805 82.5 820 c 128,-1,1
EndSplineSet
EndChar

StartChar: bracketright
Encoding: 93 93 64
Width: 438
GlyphClass: 2
Flags: W
LayerCount: 2
Fore
SplineSet
245 752 m 1,0,-1
 101 749 l 2,1,2
 74 749 74 749 57.5 761 c 128,-1,3
 41 773 41 773 41 793.5 c 128,-1,4
 41 814 41 814 57.5 826 c 128,-1,5
 74 838 74 838 101 838 c 2,6,-1
 195 835 l 1,7,-1
 292 839 l 2,8,9
 316 839 316 839 331 826.5 c 128,-1,10
 346 814 346 814 346 798 c 128,-1,11
 346 782 346 782 343 647.5 c 128,-1,12
 340 513 340 513 340 377 c 128,-1,13
 340 241 340 241 343.5 111.5 c 128,-1,14
 347 -18 347 -18 347 -38 c 128,-1,15
 347 -58 347 -58 332 -72.5 c 128,-1,16
 317 -87 317 -87 292 -87 c 2,17,-1
 195 -83 l 1,18,-1
 101 -86 l 2,19,20
 75 -86 75 -86 58 -73.5 c 128,-1,21
 41 -61 41 -61 41 -41 c 128,-1,22
 41 -21 41 -21 58 -8.5 c 128,-1,23
 75 4 75 4 101 4 c 2,24,-1
 245 1 l 2,25,26
 245 4 245 4 248 133.5 c 128,-1,27
 251 263 251 263 251 375.5 c 128,-1,28
 251 488 251 488 248 616 c 128,-1,29
 245 744 245 744 245 752 c 1,0,-1
EndSplineSet
EndChar

StartChar: asciicircum
Encoding: 94 94 65
Width: 591
GlyphClass: 2
Flags: W
LayerCount: 2
Fore
SplineSet
79 458 m 128,-1,1
 101 496 101 496 162 594.5 c 128,-1,2
 223 693 223 693 243.5 726.5 c 128,-1,3
 264 760 264 760 296.5 760 c 128,-1,4
 329 760 329 760 350 725 c 0,5,6
 515 459 515 459 525.5 437 c 128,-1,7
 536 415 536 415 536 401.5 c 128,-1,8
 536 388 536 388 524 376 c 128,-1,9
 512 364 512 364 490 364 c 128,-1,10
 468 364 468 364 454 391 c 0,11,12
 417 459 417 459 359 559.5 c 128,-1,13
 301 660 301 660 296.5 660 c 128,-1,14
 292 660 292 660 234.5 560.5 c 128,-1,15
 177 461 177 461 139 391 c 0,16,17
 133 379 133 379 121.5 371.5 c 128,-1,18
 110 364 110 364 95.5 364 c 128,-1,19
 81 364 81 364 69 376 c 128,-1,20
 57 388 57 388 57 404 c 128,-1,0
 57 420 57 420 79 458 c 128,-1,1
EndSplineSet
EndChar

StartChar: underscore
Encoding: 95 95 66
Width: 626
GlyphClass: 2
Flags: W
LayerCount: 2
Fore
SplineSet
313 -86 m 1,0,-1
 114 -89 l 2,1,2
 92 -89 92 -89 78.5 -77 c 128,-1,3
 65 -65 65 -65 65 -47 c 128,-1,4
 65 -29 65 -29 78.5 -17 c 128,-1,5
 92 -5 92 -5 114 -5 c 2,6,-1
 313 -8 l 1,7,-1
 512 -5 l 2,8,9
 534 -5 534 -5 547.5 -17 c 128,-1,10
 561 -29 561 -29 561 -47 c 128,-1,11
 561 -65 561 -65 547.5 -77 c 128,-1,12
 534 -89 534 -89 512 -89 c 2,13,14
 512 -89 512 -89 313 -86 c 1,0,-1
EndSplineSet
EndChar

StartChar: grave
Encoding: 96 96 67
Width: 330
GlyphClass: 2
Flags: W
LayerCount: 2
Fore
SplineSet
85 696 m 0,0,1
 85 713 85 713 96.5 726.5 c 128,-1,2
 108 740 108 740 125.5 740 c 128,-1,3
 143 740 143 740 155.5 730.5 c 128,-1,4
 168 721 168 721 173.5 711.5 c 128,-1,5
 179 702 179 702 188 682 c 128,-1,6
 197 662 197 662 221 632.5 c 128,-1,7
 245 603 245 603 245 591 c 128,-1,8
 245 579 245 579 236.5 571 c 128,-1,9
 228 563 228 563 212 563 c 0,10,11
 180 563 180 563 132.5 607.5 c 128,-1,12
 85 652 85 652 85 696 c 0,0,1
EndSplineSet
EndChar

StartChar: a
Encoding: 97 97 68
Width: 810
GlyphClass: 2
Flags: W
LayerCount: 2
Fore
SplineSet
648 367 m 1,0,1
 648 255 648 255 662.5 177.5 c 128,-1,2
 677 100 677 100 698 90 c 0,3,4
 706 86 706 86 717 84.5 c 128,-1,5
 728 83 728 83 733 80 c 128,-1,6
 738 77 738 77 738 69 c 0,7,8
 738 33 738 33 718 10 c 128,-1,9
 698 -13 698 -13 665 -13 c 0,10,11
 621 -13 621 -13 599 37 c 128,-1,12
 577 87 577 87 577 165 c 1,13,14
 524 81 524 81 465.5 33 c 128,-1,15
 407 -15 407 -15 334.5 -15 c 128,-1,16
 262 -15 262 -15 212 19.5 c 128,-1,17
 162 54 162 54 132 110 c 0,18,19
 72 225 72 225 72 363 c 0,20,21
 72 527 72 527 157 646 c 128,-1,22
 242 765 242 765 377 765 c 0,23,24
 429 765 429 765 478.5 745.5 c 128,-1,25
 528 726 528 726 561 696 c 1,26,27
 561 765 561 765 612 765 c 0,28,29
 675 765 675 765 675 664 c 0,30,31
 675 589 675 589 648 367 c 1,0,1
569 355 m 1,32,-1
 563 600 l 1,33,34
 478 678 478 678 377 678 c 0,35,36
 294 678 294 678 231 588.5 c 128,-1,37
 168 499 168 499 168 371 c 128,-1,38
 168 243 168 243 211.5 157.5 c 128,-1,39
 255 72 255 72 329.5 72 c 128,-1,40
 404 72 404 72 479.5 167 c 128,-1,41
 555 262 555 262 569 355 c 1,32,-1
EndSplineSet
EndChar

StartChar: b
Encoding: 98 98 69
Width: 651
GlyphClass: 2
Flags: W
LayerCount: 2
Fore
SplineSet
297 76 m 4,0,1
 231 76 231 76 187 99 c 5,2,3
 184 147 184 147 184 242 c 132,-1,4
 184 337 184 337 186 381 c 5,5,6
 247 396 247 396 320.5 396 c 132,-1,7
 394 396 394 396 447.5 351 c 132,-1,8
 501 306 501 306 501 235.5 c 132,-1,9
 501 165 501 165 447 120.5 c 132,-1,10
 393 76 393 76 297 76 c 4,0,1
87 707 m 6,11,-1
 95 373 l 5,12,13
 95 126 95 126 89 126 c 4,14,15
 67 123 67 123 56 111 c 132,-1,16
 45 99 45 99 45 79.5 c 132,-1,17
 45 60 45 60 74 41 c 132,-1,18
 103 22 103 22 145 11 c 4,19,20
 229 -10 229 -10 291 -10 c 4,21,22
 441 -10 441 -10 519 61 c 132,-1,23
 597 132 597 132 597 235 c 132,-1,24
 597 338 597 338 519 409.5 c 132,-1,25
 441 481 441 481 317 481 c 4,26,27
 224 481 224 481 184 470 c 5,28,-1
 189 707 l 6,29,30
 189 733 189 733 175 749 c 132,-1,31
 161 765 161 765 138.5 765 c 132,-1,32
 116 765 116 765 101.5 749 c 132,-1,33
 87 733 87 733 87 707 c 6,11,-1
EndSplineSet
EndChar

StartChar: c
Encoding: 99 99 70
Width: 708
GlyphClass: 2
Flags: W
LayerCount: 2
Fore
SplineSet
515 -133 m 0,0,1
 515 -175 515 -175 477.5 -202.5 c 128,-1,2
 440 -230 440 -230 388 -230 c 128,-1,3
 336 -230 336 -230 304.5 -205.5 c 128,-1,4
 273 -181 273 -181 273 -155 c 0,5,6
 273 -146 273 -146 280.5 -138 c 128,-1,7
 288 -130 288 -130 299.5 -130 c 128,-1,8
 311 -130 311 -130 336.5 -142 c 128,-1,9
 362 -154 362 -154 381 -154 c 128,-1,10
 400 -154 400 -154 412 -147 c 128,-1,11
 424 -140 424 -140 424 -131 c 128,-1,12
 424 -122 424 -122 409.5 -111.5 c 128,-1,13
 395 -101 395 -101 378 -90.5 c 128,-1,14
 361 -80 361 -80 346 -57.5 c 128,-1,15
 331 -35 331 -35 331 -6 c 1,16,17
 215 22 215 22 143.5 128.5 c 128,-1,18
 72 235 72 235 72 376 c 0,19,20
 72 539 72 539 167.5 652 c 128,-1,21
 263 765 263 765 407 765 c 0,22,23
 495 765 495 765 564.5 732 c 128,-1,24
 634 699 634 699 634 658 c 0,25,26
 634 638 634 638 622 626 c 128,-1,27
 610 614 610 614 590.5 614 c 128,-1,28
 571 614 571 614 535 637 c 0,29,30
 477 678 477 678 407 678 c 0,31,32
 303 678 303 678 235.5 588.5 c 128,-1,33
 168 499 168 499 168 376.5 c 128,-1,34
 168 254 168 254 235.5 163 c 128,-1,35
 303 72 303 72 401 72 c 128,-1,36
 499 72 499 72 580 121 c 0,37,38
 613 139 613 139 624.5 139 c 128,-1,39
 636 139 636 139 645.5 129.5 c 128,-1,40
 655 120 655 120 655 106 c 0,41,42
 655 71 655 71 583 29 c 128,-1,43
 511 -13 511 -13 412 -15 c 1,44,45
 415 -32 415 -32 441 -49 c 128,-1,46
 467 -66 467 -66 491 -86 c 128,-1,47
 515 -106 515 -106 515 -133 c 0,0,1
EndSplineSet
EndChar

StartChar: d
Encoding: 100 100 71
Width: 651
GlyphClass: 2
Flags: W
LayerCount: 2
Fore
SplineSet
332 76 m 4,0,1
 398 76 398 76 442 99 c 5,2,3
 445 147 445 147 445 242 c 132,-1,4
 445 337 445 337 443 381 c 5,5,6
 382 396 382 396 308.5 396 c 132,-1,7
 235 396 235 396 181.5 351 c 132,-1,8
 128 306 128 306 128 235.5 c 132,-1,9
 128 165 128 165 182 120.5 c 132,-1,10
 236 76 236 76 332 76 c 4,0,1
542 707 m 6,11,-1
 534 373 l 5,12,13
 534 126 534 126 540 126 c 4,14,15
 562 123 562 123 573 111 c 132,-1,16
 584 99 584 99 584 79.5 c 132,-1,17
 584 60 584 60 555 41 c 132,-1,18
 526 22 526 22 484 11 c 4,19,20
 400 -10 400 -10 338 -10 c 4,21,22
 188 -10 188 -10 110 61 c 132,-1,23
 32 132 32 132 32 235 c 132,-1,24
 32 338 32 338 110 409.5 c 132,-1,25
 188 481 188 481 312 481 c 4,26,27
 405 481 405 481 445 470 c 5,28,-1
 440 707 l 6,29,30
 440 733 440 733 454 749 c 132,-1,31
 468 765 468 765 490.5 765 c 132,-1,32
 513 765 513 765 527.5 749 c 132,-1,33
 542 733 542 733 542 707 c 6,11,-1
EndSplineSet
EndChar

StartChar: e
Encoding: 101 101 72
Width: 745
GlyphClass: 2
Flags: W
LayerCount: 2
Fore
SplineSet
596 553 m 0,0,1
 596 600 596 600 557.5 639 c 128,-1,2
 519 678 519 678 452 678 c 128,-1,3
 385 678 385 678 334 638 c 0,4,5
 240 565 240 565 213 421 c 1,6,7
 289 400 289 400 384.5 400 c 128,-1,8
 480 400 480 400 538 440 c 128,-1,9
 596 480 596 480 596 553 c 0,0,1
597 28 m 128,-1,11
 526 -15 526 -15 444 -15 c 128,-1,12
 362 -15 362 -15 301 16 c 128,-1,13
 240 47 240 47 201 99 c 0,14,15
 120 207 120 207 114 352 c 1,16,17
 42 374 42 374 42 423 c 0,18,19
 42 443 42 443 53.5 454.5 c 128,-1,20
 65 466 65 466 80 466 c 128,-1,21
 95 466 95 466 122 454 c 1,22,23
 153 588 153 588 238.5 676.5 c 128,-1,24
 324 765 324 765 448 765 c 0,25,26
 549 765 549 765 620.5 704 c 128,-1,27
 692 643 692 643 692 557 c 128,-1,28
 692 471 692 471 648 416 c 0,29,30
 565 315 565 315 390 315 c 0,31,32
 318 315 318 315 211 335 c 1,33,34
 220 227 220 227 282.5 149.5 c 128,-1,35
 345 72 345 72 431.5 72 c 128,-1,36
 518 72 518 72 593 121 c 0,37,38
 626 139 626 139 637.5 139 c 128,-1,39
 649 139 649 139 658.5 129.5 c 128,-1,40
 668 120 668 120 668 106 c 0,41,10
 668 71 668 71 597 28 c 128,-1,11
EndSplineSet
EndChar

StartChar: f
Encoding: 102 102 73
Width: 616
GlyphClass: 2
Flags: W
LayerCount: 2
Fore
SplineSet
343 440 m 2,0,-1
 433 445 l 2,1,2
 458 446 458 446 476 432.5 c 0,3,4
 492 420 492 420 492 399 c 0,5,6
 492 352.377777778 492 352.377777778 433 355 c 2,7,-1
 343 359 l 2,8,9
 320 360 320 360 276 358 c 1,10,11
 276 227 276 227 279 148 c 128,-1,12
 282 69 282 69 282 61 c 0,13,14
 282 -10 282 -10 231 -10 c 128,-1,15
 180 -10 180 -10 180 61 c 0,16,17
 180 69 180 69 181 108 c 0,18,19
 186 225 186 225 186 355 c 1,20,21
 31 355 31 355 31 399 c 4,22,23
 31 422 31 422 50 433.5 c 132,-1,24
 69 445 69 445 186 445 c 1,25,26
 184 632 184 632 179 670 c 1,27,28
 167 689 167 689 167 710 c 0,29,30
 167 757.952380952 167 757.952380952 229 755 c 2,31,-1
 334 750 l 1,32,-1
 494 756 l 2,33,34
 520 757 520 757 537.5 743.5 c 0,35,36
 554 731 554 731 554 709 c 128,-1,37
 554 687 554 687 537.5 674.5 c 0,38,39
 520.030905077 661.02384106 520.030905077 661.02384106 494 662 c 2,40,-1
 334 668 l 2,41,42
 288 670 288 670 276 663 c 1,43,-1
 276 441 l 1,44,45
 325 439 325 439 343 440 c 2,0,-1
EndSplineSet
EndChar

StartChar: g
Encoding: 103 103 74
Width: 772
GlyphClass: 2
Flags: W
LayerCount: 2
Fore
SplineSet
526 398 m 1,0,-1
 652 404 l 2,1,2
 679 404 679 404 695.5 391 c 128,-1,3
 712 378 712 378 712 353 c 0,4,5
 712 183 712 183 626.5 84 c 128,-1,6
 541 -15 541 -15 401.5 -15 c 128,-1,7
 262 -15 262 -15 167 99 c 128,-1,8
 72 213 72 213 72 376 c 128,-1,9
 72 539 72 539 170 652 c 128,-1,10
 268 765 268 765 418 765 c 0,11,12
 511 765 511 765 587.5 728 c 128,-1,13
 664 691 664 691 664 648 c 0,14,15
 664 629 664 629 652.5 618 c 128,-1,16
 641 607 641 607 618.5 607 c 128,-1,17
 596 607 596 607 558 634 c 0,18,19
 497 678 497 678 418 678 c 0,20,21
 310 678 310 678 239 589 c 128,-1,22
 168 500 168 500 168 377.5 c 128,-1,23
 168 255 168 255 236 163.5 c 128,-1,24
 304 72 304 72 407 72 c 0,25,26
 492 72 492 72 549 135 c 128,-1,27
 606 198 606 198 610 314 c 1,28,29
 577 317 577 317 526 317 c 2,30,-1
 391 312 l 2,31,32
 364 312 364 312 349 324 c 128,-1,33
 334 336 334 336 334 356.5 c 128,-1,34
 334 377 334 377 349 390 c 128,-1,35
 364 403 364 403 391 403 c 2,36,-1
 526 398 l 1,0,-1
EndSplineSet
EndChar

StartChar: h
Encoding: 104 104 75
Width: 768
GlyphClass: 2
Flags: W
LayerCount: 2
Fore
SplineSet
553 353 m 1,0,-1
 381 355 l 2,1,2
 265 355 265 355 213 354 c 1,3,4
 213 275 213 275 216 170.5 c 128,-1,5
 219 66 219 66 219 61 c 0,6,7
 219 -10 219 -10 168 -10 c 128,-1,8
 117 -10 117 -10 117 61 c 0,9,10
 117 66 117 66 120 169 c 128,-1,11
 123 272 123 272 123 351 c 1,12,13
 59 351 59 351 59 396 c 0,14,15
 59 417 59 417 75.5 429.5 c 128,-1,16
 92 442 92 442 123 442 c 1,17,18
 123 521 123 521 120 602.5 c 128,-1,19
 117 684 117 684 117 689 c 0,20,21
 117 760 117 760 168 760 c 128,-1,22
 219 760 219 760 219 689 c 0,23,24
 219 684 219 684 216 601 c 128,-1,25
 213 518 213 518 213 439 c 1,26,27
 311 437 311 437 408 437 c 128,-1,28
 505 437 505 437 553 439 c 2,29,30
 644 443 l 5,31,32
 644 350 l 6,33,34
 644 271 644 271 647 168.5 c 128,-1,35
 650 66 650 66 650 61 c 0,36,37
 650 -10 650 -10 599 -10 c 128,-1,38
 548 -10 548 -10 548 61 c 2,39,-1
 553 353 l 1,0,-1
EndSplineSet
EndChar

StartChar: i
Encoding: 105 105 76
Width: 486
GlyphClass: 2
Flags: W
LayerCount: 2
Fore
SplineSet
374 661 m 2,0,-1
 292 665 l 1,1,2
 288 568 288 568 288 386.5 c 128,-1,3
 288 205 288 205 293 83 c 1,4,-1
 374 87 l 2,5,6
 401 87 401 87 417.5 74.5 c 128,-1,7
 434 62 434 62 434 40.5 c 128,-1,8
 434 19 434 19 417.5 6.5 c 128,-1,9
 401 -6 401 -6 374 -6 c 2,10,-1
 243 0 l 1,11,-1
 112 -6 l 2,12,13
 85 -6 85 -6 68.5 6.5 c 128,-1,14
 52 19 52 19 52 40.5 c 128,-1,15
 52 62 52 62 68.5 74.5 c 128,-1,16
 85 87 85 87 112 87 c 2,17,-1
 193 82 l 1,18,19
 198 204 198 204 198 386 c 128,-1,20
 198 568 198 568 194 665 c 1,21,-1
 112 661 l 2,22,23
 85 661 85 661 68.5 674 c 128,-1,24
 52 687 52 687 52 709 c 128,-1,25
 52 731 52 731 68.5 743.5 c 128,-1,26
 85 756 85 756 112 756 c 2,27,-1
 243 750 l 1,28,-1
 374 756 l 2,29,30
 401 756 401 756 417.5 743.5 c 128,-1,31
 434 731 434 731 434 709 c 128,-1,32
 434 687 434 687 417.5 674 c 128,-1,33
 401 661 401 661 374 661 c 2,0,-1
EndSplineSet
EndChar

StartChar: j
Encoding: 106 106 77
Width: 593
GlyphClass: 2
Flags: W
LayerCount: 2
Fore
SplineSet
328 750 m 1,0,-1
 477 756 l 2,1,2
 504 756 504 756 520.5 743.5 c 128,-1,3
 537 731 537 731 537 709.5 c 128,-1,4
 537 688 537 688 518 675 c 128,-1,5
 499 662 499 662 469 662 c 1,6,7
 468 600 468 600 468 257 c 0,8,9
 468 184 468 184 447.5 129 c 128,-1,10
 427 74 427 74 393 44 c 0,11,12
 326 -15 326 -15 240.5 -15 c 128,-1,13
 155 -15 155 -15 100.5 19.5 c 128,-1,14
 46 54 46 54 46 87 c 0,15,16
 46 106 46 106 57 117.5 c 128,-1,17
 68 129 68 129 86 129 c 128,-1,18
 104 129 104 129 122 115 c 128,-1,19
 140 101 140 101 168 86.5 c 128,-1,20
 196 72 196 72 237 72 c 0,21,22
 295 72 295 72 336.5 121.5 c 128,-1,23
 378 171 378 171 378 278 c 2,24,-1
 375 667 l 1,25,26
 312 667 312 667 261 664 c 128,-1,27
 210 661 210 661 191 661 c 128,-1,28
 172 661 172 661 155.5 673.5 c 128,-1,29
 139 686 139 686 139 708 c 128,-1,30
 139 730 139 730 155.5 742.5 c 128,-1,31
 172 755 172 755 199 755 c 2,32,-1
 328 750 l 1,0,-1
EndSplineSet
EndChar

StartChar: k
Encoding: 107 107 78
Width: 688
GlyphClass: 2
Flags: W
LayerCount: 2
Fore
SplineSet
208 337 m 1,0,-1
 213 47 l 2,1,2
 213 23 213 23 198 6.5 c 128,-1,3
 183 -10 183 -10 162.5 -10 c 128,-1,4
 142 -10 142 -10 127.5 6.5 c 128,-1,5
 113 23 113 23 113 47 c 2,6,7
 113 47 113 47 117 372 c 1,8,-1
 113 702 l 2,9,10
 113 726 113 726 127.5 742.5 c 128,-1,11
 142 759 142 759 162.5 759 c 128,-1,12
 183 759 183 759 198 742.5 c 128,-1,13
 213 726 213 726 213 702 c 2,14,-1
 210 612 l 2,15,16
 208 522 208 522 208 434 c 1,17,18
 235 442 235 442 277 442 c 1,19,-1
 333 436 l 1,20,21
 380 471 380 471 428.5 556.5 c 128,-1,22
 477 642 477 642 493 714 c 0,23,24
 504 760 504 760 541 760 c 0,25,26
 558 760 558 760 570.5 747 c 128,-1,27
 583 734 583 734 583 715 c 0,28,29
 583 653 583 653 527.5 552 c 128,-1,30
 472 451 472 451 408 386 c 1,31,32
 510 202 510 202 575 119 c 0,33,34
 610 75 610 75 641 75 c 2,35,-1
 652 76 l 2,36,37
 659 76 659 76 659 54 c 128,-1,38
 659 32 659 32 641 11 c 128,-1,39
 623 -10 623 -10 595 -10 c 128,-1,40
 567 -10 567 -10 540 14 c 0,41,42
 485 61 485 61 324 341 c 1,43,-1
 260 334 l 2,44,45
 224 334 224 334 208 337 c 1,0,-1
EndSplineSet
EndChar

StartChar: l
Encoding: 108 108 79
Width: 594
GlyphClass: 2
Flags: W
LayerCount: 2
Fore
SplineSet
115 54 m 2,0,-1
 119 380 l 2,1,2
 119 511 119 511 116 596 c 128,-1,3
 113 681 113 681 113 689 c 0,4,5
 113 760 113 760 164 760 c 128,-1,6
 215 760 215 760 215 689 c 0,7,8
 215 681 215 681 214 638 c 0,9,10
 209 511 209 511 209 405.5 c 128,-1,11
 209 300 209 300 210 240.5 c 128,-1,12
 211 181 211 181 213 139.5 c 128,-1,13
 215 98 215 98 215 87 c 1,14,15
 263 82 263 82 319 82 c 128,-1,16
 375 82 375 82 428 85.5 c 128,-1,17
 481 89 481 89 497.5 89 c 128,-1,18
 514 89 514 89 530.5 76.5 c 128,-1,19
 547 64 547 64 547 42 c 128,-1,20
 547 20 547 20 530.5 7.5 c 128,-1,21
 514 -5 514 -5 487 -5 c 2,22,-1
 338 0 l 1,23,-1
 176 -5 l 2,24,25
 146 -5 146 -5 130.5 7.5 c 128,-1,26
 115 20 115 20 115 54 c 2,0,-1
EndSplineSet
PairPos2: "'kern' Horizontal Kerning in Latin lookup 0 per glyph data 1" edieresis dx=0 dy=0 dh=-50 dv=0 dx=0 dy=0 dh=0 dv=0
PairPos2: "'kern' Horizontal Kerning in Latin lookup 0 per glyph data 1" ecircumflex dx=0 dy=0 dh=-50 dv=0 dx=0 dy=0 dh=0 dv=0
PairPos2: "'kern' Horizontal Kerning in Latin lookup 0 per glyph data 1" eacute dx=0 dy=0 dh=-50 dv=0 dx=0 dy=0 dh=0 dv=0
PairPos2: "'kern' Horizontal Kerning in Latin lookup 0 per glyph data 1" egrave dx=0 dy=0 dh=-50 dv=0 dx=0 dy=0 dh=0 dv=0
PairPos2: "'kern' Horizontal Kerning in Latin lookup 0 per glyph data 1" o dx=0 dy=0 dh=-20 dv=0 dx=0 dy=0 dh=0 dv=0
PairPos2: "'kern' Horizontal Kerning in Latin lookup 0 per glyph data 1" e dx=0 dy=0 dh=-50 dv=0 dx=0 dy=0 dh=0 dv=0
EndChar

StartChar: m
Encoding: 109 109 80
Width: 1218
GlyphClass: 2
Flags: W
LayerCount: 2
Fore
SplineSet
1083 460 m 2,0,-1
 1076 218 l 2,1,2
 1076 180 1076 180 1077 161 c 128,-1,3
 1078 142 1078 142 1085 121 c 128,-1,4
 1092 100 1092 100 1106 94 c 0,5,6
 1114 90 1114 90 1125 88.5 c 128,-1,7
 1136 87 1136 87 1141 84 c 128,-1,8
 1146 81 1146 81 1146 73 c 0,9,10
 1146 38 1146 38 1124 14.5 c 128,-1,11
 1102 -9 1102 -9 1072 -9 c 0,12,13
 1021 -9 1021 -9 1001.5 31 c 128,-1,14
 982 71 982 71 982 150 c 2,15,-1
 987 429 l 2,16,17
 987 538 987 538 950 604.5 c 128,-1,18
 913 671 913 671 847 671 c 128,-1,19
 781 671 781 671 718.5 583 c 128,-1,20
 656 495 656 495 631 383 c 1,21,-1
 635 60 l 2,22,23
 635 26 635 26 624 8.5 c 128,-1,24
 613 -9 613 -9 584 -9 c 0,25,26
 522 -9 522 -9 522 91 c 128,-1,27
 522 191 522 191 549 383 c 1,28,29
 549 671 549 671 406 671 c 0,30,31
 342 671 342 671 279.5 583 c 128,-1,32
 217 495 217 495 192 383 c 1,33,-1
 196 60 l 2,34,35
 196 -9 196 -9 145 -9 c 0,36,37
 83 -9 83 -9 83 91 c 128,-1,38
 83 191 83 191 110 383 c 1,39,40
 110 449 110 449 98.5 560.5 c 128,-1,41
 87 672 87 672 87 697.5 c 128,-1,42
 87 723 87 723 101 741.5 c 128,-1,43
 115 760 115 760 139.5 760 c 128,-1,44
 164 760 164 760 178 741.5 c 128,-1,45
 192 723 192 723 192 700 c 128,-1,46
 192 677 192 677 191.5 644.5 c 128,-1,47
 191 612 191 612 191 589 c 1,48,49
 283 760 283 760 425 760 c 0,50,51
 507 760 507 760 558.5 713.5 c 128,-1,52
 610 667 610 667 630 589 c 1,53,54
 725 760 725 760 865 760 c 0,55,56
 969 760 969 760 1026 672.5 c 128,-1,57
 1083 585 1083 585 1083 460 c 2,0,-1
EndSplineSet
PairPos2: "'kern' Horizontal Kerning in Latin lookup 0 per glyph data 1" aring dx=0 dy=0 dh=-30 dv=0 dx=0 dy=0 dh=0 dv=0
PairPos2: "'kern' Horizontal Kerning in Latin lookup 0 per glyph data 1" adieresis dx=0 dy=0 dh=-30 dv=0 dx=0 dy=0 dh=0 dv=0
PairPos2: "'kern' Horizontal Kerning in Latin lookup 0 per glyph data 1" atilde dx=0 dy=0 dh=-30 dv=0 dx=0 dy=0 dh=0 dv=0
PairPos2: "'kern' Horizontal Kerning in Latin lookup 0 per glyph data 1" acircumflex dx=0 dy=0 dh=-30 dv=0 dx=0 dy=0 dh=0 dv=0
PairPos2: "'kern' Horizontal Kerning in Latin lookup 0 per glyph data 1" aacute dx=0 dy=0 dh=-30 dv=0 dx=0 dy=0 dh=0 dv=0
PairPos2: "'kern' Horizontal Kerning in Latin lookup 0 per glyph data 1" agrave dx=0 dy=0 dh=-30 dv=0 dx=0 dy=0 dh=0 dv=0
PairPos2: "'kern' Horizontal Kerning in Latin lookup 0 per glyph data 1" q dx=0 dy=0 dh=-30 dv=0 dx=0 dy=0 dh=0 dv=0
PairPos2: "'kern' Horizontal Kerning in Latin lookup 0 per glyph data 1" o dx=0 dy=0 dh=-20 dv=0 dx=0 dy=0 dh=0 dv=0
PairPos2: "'kern' Horizontal Kerning in Latin lookup 0 per glyph data 1" g dx=0 dy=0 dh=-30 dv=0 dx=0 dy=0 dh=0 dv=0
PairPos2: "'kern' Horizontal Kerning in Latin lookup 0 per glyph data 1" d dx=0 dy=0 dh=-30 dv=0 dx=0 dy=0 dh=0 dv=0
PairPos2: "'kern' Horizontal Kerning in Latin lookup 0 per glyph data 1" a dx=0 dy=0 dh=-30 dv=0 dx=0 dy=0 dh=0 dv=0
EndChar

StartChar: n
Encoding: 110 110 81
Width: 805
GlyphClass: 2
Flags: W
LayerCount: 2
Fore
SplineSet
670 497 m 2,0,-1
 663 215 l 2,1,2
 663 177 663 177 664 158 c 128,-1,3
 665 139 665 139 672 118 c 128,-1,4
 679 97 679 97 693 91 c 0,5,6
 701 87 701 87 712 85.5 c 128,-1,7
 723 84 723 84 728 81 c 128,-1,8
 733 78 733 78 733 70 c 0,9,10
 733 35 733 35 711 11.5 c 128,-1,11
 689 -12 689 -12 659 -12 c 0,12,13
 607 -12 607 -12 587.5 28 c 128,-1,14
 568 68 568 68 568 147 c 2,15,-1
 574 431 l 2,16,17
 574 540 574 540 536 605.5 c 128,-1,18
 498 671 498 671 425.5 671 c 128,-1,19
 353 671 353 671 285 583.5 c 128,-1,20
 217 496 217 496 191 385 c 1,21,-1
 195 57 l 2,22,23
 195 -12 195 -12 144 -12 c 0,24,25
 82 -12 82 -12 82 92.5 c 128,-1,26
 82 197 82 197 109 385 c 1,27,28
 109 450 109 450 97.5 561.5 c 128,-1,29
 86 673 86 673 86 698 c 128,-1,30
 86 723 86 723 100 741.5 c 128,-1,31
 114 760 114 760 138.5 760 c 128,-1,32
 163 760 163 760 177 741.5 c 128,-1,33
 191 723 191 723 191 700 c 128,-1,34
 191 677 191 677 190.5 644.5 c 128,-1,35
 190 612 190 612 190 589 c 1,36,37
 288 760 288 760 438 760 c 0,38,39
 549 760 549 760 609.5 683.5 c 128,-1,40
 670 607 670 607 670 497 c 2,0,-1
EndSplineSet
EndChar

StartChar: o
Encoding: 111 111 82
Width: 824
GlyphClass: 2
Flags: W
LayerCount: 2
Fore
SplineSet
586.5 164 m 128,-1,1
 656 256 656 256 656 377 c 128,-1,2
 656 498 656 498 587 588.5 c 128,-1,3
 518 679 518 679 412.5 679 c 128,-1,4
 307 679 307 679 237.5 588.5 c 128,-1,5
 168 498 168 498 168 377.5 c 128,-1,6
 168 257 168 257 238 164.5 c 128,-1,7
 308 72 308 72 412.5 72 c 128,-1,0
 517 72 517 72 586.5 164 c 128,-1,1
752 376 m 128,-1,9
 752 213 752 213 654.5 99 c 128,-1,10
 557 -15 557 -15 411.5 -15 c 128,-1,11
 266 -15 266 -15 169 99 c 128,-1,12
 72 213 72 213 72 376 c 128,-1,13
 72 539 72 539 170 652 c 128,-1,14
 268 765 268 765 413.5 765 c 128,-1,15
 559 765 559 765 655.5 652 c 128,-1,8
 752 539 752 539 752 376 c 128,-1,9
EndSplineSet
EndChar

StartChar: p
Encoding: 112 112 83
Width: 651
GlyphClass: 2
Flags: W
LayerCount: 2
Fore
SplineSet
324 679 m 0,0,1
 258 679 258 679 214 656 c 1,2,3
 211 608 211 608 211 513 c 128,-1,4
 211 418 211 418 213 374 c 1,5,6
 274 359 274 359 347.5 359 c 128,-1,7
 421 359 421 359 474.5 404 c 128,-1,8
 528 449 528 449 528 519.5 c 128,-1,9
 528 590 528 590 474 634.5 c 128,-1,10
 420 679 420 679 324 679 c 0,0,1
114 48 m 2,11,-1
 122 382 l 1,12,13
 122 629 122 629 116 629 c 0,14,15
 94 632 94 632 83 644 c 128,-1,16
 72 656 72 656 72 675.5 c 128,-1,17
 72 695 72 695 101 714 c 128,-1,18
 130 733 130 733 172 744 c 0,19,20
 256 765 256 765 318 765 c 0,21,22
 468 765 468 765 546 694 c 128,-1,23
 624 623 624 623 624 520 c 128,-1,24
 624 417 624 417 546 345.5 c 128,-1,25
 468 274 468 274 344 274 c 0,26,27
 251 274 251 274 211 285 c 1,28,-1
 216 48 l 2,29,30
 216 22 216 22 202 6 c 128,-1,31
 188 -10 188 -10 165.5 -10 c 128,-1,32
 143 -10 143 -10 128.5 6 c 128,-1,33
 114 22 114 22 114 48 c 2,11,-1
EndSplineSet
EndChar

StartChar: q
Encoding: 113 113 84
Width: 692
GlyphClass: 2
Flags: W
LayerCount: 2
Fore
SplineSet
476 241 m 1,0,-1
 347 244 l 2,1,2
 251 244 251 244 207 242 c 1,3,4
 196 209 196 209 175.5 138.5 c 128,-1,5
 155 68 155 68 142 29 c 128,-1,6
 129 -10 129 -10 96 -10 c 0,7,8
 77 -10 77 -10 65.5 2 c 128,-1,9
 54 14 54 14 54 28.5 c 128,-1,10
 54 43 54 43 55.5 52 c 128,-1,11
 57 61 57 61 62.5 79 c 128,-1,12
 68 97 68 97 74 113 c 0,13,14
 103 199 103 199 116 239 c 1,15,16
 87 239 87 239 70.5 251.5 c 128,-1,17
 54 264 54 264 54 285 c 0,18,19
 54 332 54 332 128 332 c 2,20,-1
 146 332 l 1,21,22
 242 600 242 600 256.5 638.5 c 128,-1,23
 271 677 271 677 273 683 c 128,-1,24
 275 689 275 689 279.5 700.5 c 128,-1,25
 284 712 284 712 287.5 717.5 c 128,-1,26
 291 723 291 723 296 731 c 128,-1,27
 301 739 301 739 305.5 743.5 c 128,-1,28
 310 748 310 748 316 752 c 0,29,30
 329 760 329 760 343.5 760 c 128,-1,31
 358 760 358 760 367 757 c 128,-1,32
 376 754 376 754 384 746 c 128,-1,33
 392 738 392 738 397.5 729 c 128,-1,34
 403 720 403 720 410.5 701 c 128,-1,35
 418 682 418 682 424 666 c 0,36,37
 472 519 472 519 544 332 c 1,38,-1
 580 333 l 2,39,40
 606 333 606 333 622.5 319 c 128,-1,41
 639 305 639 305 639 284 c 0,42,43
 639 240 639 240 573 237 c 1,44,45
 583 205 583 205 600 156 c 0,46,47
 639 50 639 50 639 33.5 c 128,-1,48
 639 17 639 17 627.5 3.5 c 128,-1,49
 616 -10 616 -10 596 -10 c 0,50,51
 560 -10 560 -10 544 29 c 0,52,53
 527 78 527 78 476 241 c 1,0,-1
232 328 m 1,54,55
 296 326 296 326 355.5 326 c 128,-1,56
 415 326 415 326 451 328 c 1,57,58
 346 630 346 630 344 630 c 0,59,60
 338 630 338 630 258 404 c 2,61,-1
 232 328 l 1,54,55
EndSplineSet
EndChar

StartChar: r
Encoding: 114 114 85
Width: 563
GlyphClass: 2
Flags: W
LayerCount: 2
Fore
SplineSet
192 355 m 1,0,1
 192 355 192 355 195 57 c 0,2,3
 195 -12 195 -12 144 -12 c 0,4,5
 82 -12 82 -12 82 92.5 c 128,-1,6
 82 197 82 197 109 385 c 1,7,8
 109 450 109 450 97.5 561.5 c 128,-1,9
 86 673 86 673 86 698 c 128,-1,10
 86 723 86 723 100 741.5 c 128,-1,11
 114 760 114 760 138.5 760 c 128,-1,12
 163 760 163 760 177 741.5 c 128,-1,13
 191 723 191 723 191 700 c 128,-1,14
 191 677 191 677 190.5 644.5 c 128,-1,15
 190 612 190 612 190 590 c 1,16,17
 219 659 219 659 279 711.5 c 128,-1,18
 339 764 339 764 401.5 764 c 128,-1,19
 464 764 464 764 497 739.5 c 128,-1,20
 530 715 530 715 530 686.5 c 128,-1,21
 530 658 530 658 514.5 641.5 c 128,-1,22
 499 625 499 625 476 625 c 128,-1,23
 453 625 453 625 425.5 650 c 128,-1,24
 398 675 398 675 381 675 c 0,25,26
 335 675 335 675 272 568.5 c 128,-1,27
 209 462 209 462 192 355 c 1,0,1
EndSplineSet
EndChar

StartChar: s
Encoding: 115 115 86
Width: 606
GlyphClass: 2
Flags: W
LayerCount: 2
Fore
SplineSet
547 204 m 0,0,1
 547 111 547 111 476.5 48 c 128,-1,2
 406 -15 406 -15 294 -15 c 0,3,4
 207 -15 207 -15 132 27 c 128,-1,5
 57 69 57 69 57 109 c 0,6,7
 57 127 57 127 69 139 c 128,-1,8
 81 151 81 151 99.5 151 c 128,-1,9
 118 151 118 151 137 138.5 c 128,-1,10
 156 126 156 126 172 111.5 c 128,-1,11
 188 97 188 97 220.5 84.5 c 128,-1,12
 253 72 253 72 294 72 c 0,13,14
 362 72 362 72 406.5 107 c 128,-1,15
 451 142 451 142 451 204 c 0,16,17
 451 245 451 245 413 282 c 128,-1,18
 375 319 375 319 321 349 c 128,-1,19
 267 379 267 379 213 410.5 c 128,-1,20
 159 442 159 442 121 487.5 c 128,-1,21
 83 533 83 533 83 586 c 0,22,23
 83 659 83 659 147 712 c 128,-1,24
 211 765 211 765 298 765 c 128,-1,25
 385 765 385 765 446 735.5 c 128,-1,26
 507 706 507 706 507 668 c 0,27,28
 507 649 507 649 495 638 c 128,-1,29
 483 627 483 627 463 627 c 128,-1,30
 443 627 443 627 424 640 c 128,-1,31
 405 653 405 653 377 666 c 128,-1,32
 349 679 349 679 302 679 c 128,-1,33
 255 679 255 679 217 653 c 128,-1,34
 179 627 179 627 179 589 c 128,-1,35
 179 551 179 551 217 518.5 c 128,-1,36
 255 486 255 486 309 456 c 128,-1,37
 363 426 363 426 417 393 c 128,-1,38
 471 360 471 360 509 311 c 128,-1,39
 547 262 547 262 547 204 c 0,0,1
EndSplineSet
EndChar

StartChar: t
Encoding: 116 116 87
Width: 616
GlyphClass: 2
Flags: W
LayerCount: 2
Fore
SplineSet
269.287109375 300.120117188 m 6,0,-1
 439.237304688 293.643554688 l 6,1,2
 466.236328125 293.409179688 466.236328125 293.409179688 482.344726562 305.76953125 c 132,-1,3
 498.452148438 318.129882812 498.452148438 318.129882812 498.634765625 339.129882812 c 4,4,5
 499.016601562 383.127929688 499.016601562 383.127929688 440.01953125 383.640625 c 6,6,-1
 269.991210938 381.1171875 l 6,7,8
 225.9921875 381.5 225.9921875 381.5 203.001953125 382.69921875 c 5,9,10
 204.139648438 513.694335938 204.139648438 513.694335938 207.826171875 592.665039062 c 132,-1,11
 211.512695312 671.63671875 211.512695312 671.63671875 211.58203125 679.635742188 c 4,12,13
 212.198242188 750.6328125 212.198242188 750.6328125 161.200195312 751.076171875 c 132,-1,14
 110.202148438 751.51953125 110.202148438 751.51953125 109.5859375 680.522460938 c 4,15,16
 109.516601562 672.522460938 109.516601562 672.522460938 110.177734375 633.514648438 c 4,17,18
 114.161132812 516.4765625 114.161132812 516.4765625 113.03125 386.481445312 c 5,19,20
 46.0341796875 387.063476562 46.0341796875 387.063476562 45.6513671875 343.064453125 c 4,21,22
 45.4521484375 320.065429688 45.4521484375 320.065429688 64.3515625 308.401367188 c 132,-1,23
 83.2509765625 296.736328125 83.2509765625 296.736328125 112.25 296.484375 c 5,24,25
 108.625 109.508789062 108.625 109.508789062 103.294921875 71.5537109375 c 5,26,27
 91.130859375 52.658203125 91.130859375 52.658203125 90.9482421875 31.6591796875 c 4,28,29
 90.5576171875 -13.3388671875 90.5576171875 -13.3388671875 152.5546875 -13.876953125 c 6,30,-1
 337.591796875 -10.484375 l 5,31,-1
 497.533203125 -17.8740234375 l 6,32,33
 524.532226562 -18.109375 524.532226562 -18.109375 541.140625 -5.7529296875 c 132,-1,34
 557.748046875 6.603515625 557.748046875 6.603515625 557.939453125 28.6025390625 c 132,-1,35
 558.130859375 50.6015625 558.130859375 50.6015625 541.740234375 63.2451171875 c 132,-1,36
 525.348632812 75.8876953125 525.348632812 75.8876953125 498.349609375 76.1220703125 c 6,37,-1
 338.303710938 71.51171875 l 6,38,39
 260.306640625 72.189453125 260.306640625 72.189453125 200.352539062 77.7109375 c 5,40,-1
 202.28125 299.702148438 l 5,41,42
 221.2890625 300.537109375 221.2890625 300.537109375 269.287109375 300.120117188 c 6,0,-1
EndSplineSet
PairPos2: "'kern' Horizontal Kerning in Latin lookup 0 per glyph data 1" edieresis dx=0 dy=0 dh=-30 dv=0 dx=0 dy=0 dh=0 dv=0
PairPos2: "'kern' Horizontal Kerning in Latin lookup 0 per glyph data 1" ecircumflex dx=0 dy=0 dh=-30 dv=0 dx=0 dy=0 dh=0 dv=0
PairPos2: "'kern' Horizontal Kerning in Latin lookup 0 per glyph data 1" eacute dx=0 dy=0 dh=-30 dv=0 dx=0 dy=0 dh=0 dv=0
PairPos2: "'kern' Horizontal Kerning in Latin lookup 0 per glyph data 1" egrave dx=0 dy=0 dh=-30 dv=0 dx=0 dy=0 dh=0 dv=0
PairPos2: "'kern' Horizontal Kerning in Latin lookup 0 per glyph data 1" aring dx=0 dy=0 dh=-20 dv=0 dx=0 dy=0 dh=0 dv=0
PairPos2: "'kern' Horizontal Kerning in Latin lookup 0 per glyph data 1" adieresis dx=0 dy=0 dh=-20 dv=0 dx=0 dy=0 dh=0 dv=0
PairPos2: "'kern' Horizontal Kerning in Latin lookup 0 per glyph data 1" atilde dx=0 dy=0 dh=-20 dv=0 dx=0 dy=0 dh=0 dv=0
PairPos2: "'kern' Horizontal Kerning in Latin lookup 0 per glyph data 1" acircumflex dx=0 dy=0 dh=-20 dv=0 dx=0 dy=0 dh=0 dv=0
PairPos2: "'kern' Horizontal Kerning in Latin lookup 0 per glyph data 1" aacute dx=0 dy=0 dh=-20 dv=0 dx=0 dy=0 dh=0 dv=0
PairPos2: "'kern' Horizontal Kerning in Latin lookup 0 per glyph data 1" agrave dx=0 dy=0 dh=-20 dv=0 dx=0 dy=0 dh=0 dv=0
PairPos2: "'kern' Horizontal Kerning in Latin lookup 0 per glyph data 1" q dx=0 dy=0 dh=-20 dv=0 dx=0 dy=0 dh=0 dv=0
PairPos2: "'kern' Horizontal Kerning in Latin lookup 0 per glyph data 1" o dx=0 dy=0 dh=-30 dv=0 dx=0 dy=0 dh=0 dv=0
PairPos2: "'kern' Horizontal Kerning in Latin lookup 0 per glyph data 1" g dx=0 dy=0 dh=-20 dv=0 dx=0 dy=0 dh=0 dv=0
PairPos2: "'kern' Horizontal Kerning in Latin lookup 0 per glyph data 1" e dx=0 dy=0 dh=-30 dv=0 dx=0 dy=0 dh=0 dv=0
PairPos2: "'kern' Horizontal Kerning in Latin lookup 0 per glyph data 1" d dx=0 dy=0 dh=-20 dv=0 dx=0 dy=0 dh=0 dv=0
PairPos2: "'kern' Horizontal Kerning in Latin lookup 0 per glyph data 1" a dx=0 dy=0 dh=-20 dv=0 dx=0 dy=0 dh=0 dv=0
EndChar

StartChar: u
Encoding: 117 117 88
Width: 819
GlyphClass: 2
Flags: W
LayerCount: 2
Fore
SplineSet
202 646 m 2,0,-1
 191 314 l 2,1,2
 191 205 191 205 228.5 138.5 c 128,-1,3
 266 72 266 72 342.5 72 c 128,-1,4
 419 72 419 72 490 161.5 c 128,-1,5
 561 251 561 251 574 360 c 1,6,-1
 570 688 l 2,7,8
 570 757 570 757 621 757 c 0,9,10
 683 757 683 757 683 655 c 128,-1,11
 683 553 683 553 656 360 c 1,12,13
 656 250 656 250 670.5 173.5 c 128,-1,14
 685 97 685 97 706 88 c 0,15,16
 714 84 714 84 725.5 82.5 c 128,-1,17
 737 81 737 81 742 78 c 128,-1,18
 747 75 747 75 747 67 c 0,19,20
 747 30 747 30 725 7.5 c 128,-1,21
 703 -15 703 -15 669 -15 c 0,22,23
 584 -15 584 -15 584 158 c 1,24,25
 484 -15 484 -15 332 -15 c 0,26,27
 251 -15 251 -15 196 30 c 0,28,29
 96 114 96 114 96 297 c 1,30,-1
 104 536 l 2,31,32
 104 590 104 590 93 636 c 128,-1,33
 82 682 82 682 82 702.5 c 128,-1,34
 82 723 82 723 98 740 c 128,-1,35
 114 757 114 757 140 757 c 0,36,37
 202 757 202 757 202 646 c 2,0,-1
EndSplineSet
EndChar

StartChar: v
Encoding: 118 118 89
Width: 673
GlyphClass: 2
Flags: W
LayerCount: 2
Fore
SplineSet
397 40 m 0,0,1
 380 -10 380 -10 336.5 -10 c 128,-1,2
 293 -10 293 -10 276 40 c 0,3,4
 130 450 130 450 120.5 479.5 c 128,-1,5
 111 509 111 509 87.5 573 c 128,-1,6
 64 637 64 637 52 669.5 c 128,-1,7
 40 702 40 702 40 716 c 128,-1,8
 40 730 40 730 52.5 745 c 128,-1,9
 65 760 65 760 87 760 c 0,10,11
 125 760 125 760 140 715 c 0,12,13
 330 133 330 133 337 133 c 0,14,15
 348 133 348 133 538 715 c 0,16,17
 553 760 553 760 586 760 c 0,18,19
 608 760 608 760 620.5 745 c 128,-1,20
 633 730 633 730 633 716 c 128,-1,21
 633 702 633 702 621 670 c 0,22,23
 564 515 564 515 553.5 482.5 c 128,-1,24
 543 450 543 450 397 40 c 0,0,1
EndSplineSet
EndChar

StartChar: w
Encoding: 119 119 90
Width: 759
GlyphClass: 2
Flags: W
LayerCount: 2
Fore
SplineSet
128 376 m 1,0,-1
 123 636 l 1,1,2
 79 640 79 640 79 677.5 c 128,-1,3
 79 715 79 715 158 739.5 c 128,-1,4
 237 764 237 764 321.5 764 c 128,-1,5
 406 764 406 764 479 731 c 128,-1,6
 552 698 552 698 596 642 c 0,7,8
 687 528 687 528 687 372 c 0,9,10
 687 220 687 220 600 108 c 0,11,12
 557 52 557 52 486 18.5 c 128,-1,13
 415 -15 415 -15 317 -15 c 128,-1,14
 219 -15 219 -15 147 10 c 128,-1,15
 75 35 75 35 75 74 c 0,16,17
 75 111 75 111 125 111 c 1,18,-1
 128 376 l 1,0,-1
519.5 589.5 m 128,-1,20
 448 678 448 678 313 678 c 0,21,22
 256 678 256 678 222 661 c 1,23,24
 219 599 219 599 219 390.5 c 128,-1,25
 219 182 219 182 224 85 c 1,26,27
 260 72 260 72 325 72 c 128,-1,28
 390 72 390 72 442.5 98 c 128,-1,29
 495 124 495 124 526 168 c 0,30,31
 591 258 591 258 591 379.5 c 128,-1,19
 591 501 591 501 519.5 589.5 c 128,-1,20
EndSplineSet
EndChar

StartChar: x
Encoding: 120 120 91
Width: 593
GlyphClass: 2
Flags: W
LayerCount: 2
Fore
SplineSet
102 756 m 2,0,-1
 301 750 l 1,1,-1
 494 756 l 2,2,3
 521 756 521 756 537.5 743.5 c 128,-1,4
 554 731 554 731 554 709 c 128,-1,5
 554 687 554 687 537.5 674.5 c 128,-1,6
 521 662 521 662 494 662 c 2,7,-1
 350 668 l 1,8,9
 346 571 346 571 346 372 c 2,10,-1
 352 48 l 2,11,12
 352 22 352 22 338 6 c 128,-1,13
 324 -10 324 -10 301.5 -10 c 128,-1,14
 279 -10 279 -10 264.5 6 c 128,-1,15
 250 22 250 22 250 48 c 2,16,-1
 256 372 l 2,17,18
 256 546 256 546 251 668 c 1,19,-1
 102 662 l 2,20,21
 75 662 75 662 58.5 674.5 c 128,-1,22
 42 687 42 687 42 709 c 128,-1,23
 42 731 42 731 58.5 743.5 c 128,-1,24
 75 756 75 756 102 756 c 2,0,-1
EndSplineSet
EndChar

StartChar: y
Encoding: 121 121 92
Width: 607
GlyphClass: 2
Flags: W
LayerCount: 2
Fore
SplineSet
347 303 m 1,0,1
 347 223 347 223 350 142 c 2,2,-1
 352 61 l 2,3,4
 352 -10 352 -10 301 -10 c 128,-1,5
 250 -10 250 -10 250 61 c 2,6,-1
 252 144 l 2,7,8
 255 227 255 227 255 304 c 1,9,10
 56 646 56 646 43 673 c 128,-1,11
 30 700 30 700 30 717 c 128,-1,12
 30 734 30 734 42 747 c 128,-1,13
 54 760 54 760 76.5 760 c 128,-1,14
 99 760 99 760 115 738.5 c 128,-1,15
 131 717 131 717 189.5 603 c 128,-1,16
 248 489 248 489 306 401 c 1,17,18
 330 437 330 437 390.5 549 c 128,-1,19
 451 661 451 661 460.5 677.5 c 128,-1,20
 470 694 470 694 474 701.5 c 128,-1,21
 478 709 478 709 485.5 721 c 128,-1,22
 493 733 493 733 497.5 738.5 c 128,-1,23
 502 744 502 744 508 750 c 0,24,25
 518 760 518 760 536 760 c 128,-1,26
 554 760 554 760 565.5 748 c 128,-1,27
 577 736 577 736 577 719 c 128,-1,28
 577 702 577 702 562.5 674.5 c 128,-1,29
 548 647 548 647 499.5 564 c 128,-1,30
 451 481 451 481 437 457.5 c 128,-1,31
 423 434 423 434 397.5 389.5 c 128,-1,32
 372 345 372 345 347 303 c 1,0,1
EndSplineSet
EndChar

StartChar: z
Encoding: 122 122 93
Width: 768
GlyphClass: 2
Flags: W
LayerCount: 2
Fore
SplineSet
553 353 m 1,0,-1
 381 355 l 2,1,2
 265 355 265 355 213 354 c 1,3,4
 213 275 213 275 216 170.5 c 128,-1,5
 219 66 219 66 219 61 c 0,6,7
 219 -10 219 -10 168 -10 c 128,-1,8
 117 -10 117 -10 117 61 c 0,9,10
 117 66 117 66 120 169 c 128,-1,11
 123 272 123 272 123 351 c 1,12,13
 59 351 59 351 59 396 c 0,14,15
 59 417 59 417 75.5 429.5 c 128,-1,16
 92 442 92 442 123 442 c 1,17,18
 123 521 123 521 120 602.5 c 128,-1,19
 117 684 117 684 117 689 c 0,20,21
 117 760 117 760 168 760 c 128,-1,22
 219 760 219 760 219 689 c 0,23,24
 219 684 219 684 216 601 c 128,-1,25
 213 518 213 518 213 439 c 1,26,27
 311 437 311 437 408 437 c 128,-1,28
 505 437 505 437 553 439 c 1,29,30
 553 518 553 518 550.5 601 c 128,-1,31
 548 684 548 684 548 689 c 0,32,33
 548 760 548 760 599 760 c 128,-1,34
 650 760 650 760 650 689 c 0,35,36
 650 684 650 684 647 603 c 128,-1,37
 644 522 644 522 644 443 c 1,38,39
 674 443 674 443 691.5 430 c 128,-1,40
 709 417 709 417 709 396 c 128,-1,41
 709 375 709 375 691.5 362.5 c 128,-1,42
 674 350 674 350 644 350 c 1,43,44
 644 271 644 271 647 168.5 c 128,-1,45
 650 66 650 66 650 61 c 0,46,47
 650 -10 650 -10 599 -10 c 128,-1,48
 548 -10 548 -10 548 61 c 2,49,-1
 553 353 l 1,0,-1
EndSplineSet
EndChar

StartChar: braceleft
Encoding: 123 123 94
Width: 369
GlyphClass: 2
Flags: W
LayerCount: 2
Fore
SplineSet
307.5 -7.5 m 128,-1,1
 322 -18 322 -18 322 -38 c 128,-1,2
 322 -58 322 -58 310 -70.5 c 128,-1,3
 298 -83 298 -83 277 -83 c 0,4,5
 219 -83 219 -83 175.5 -51 c 128,-1,6
 132 -19 132 -19 132 39 c 0,7,8
 132 66 132 66 139.5 122.5 c 128,-1,9
 147 179 147 179 147 210 c 0,10,11
 147 303 147 303 125 322 c 1,12,13
 108 315 108 315 86.5 315 c 128,-1,14
 65 315 65 315 47 329.5 c 128,-1,15
 29 344 29 344 29 374 c 128,-1,16
 29 404 29 404 47.5 418.5 c 128,-1,17
 66 433 66 433 87.5 433 c 128,-1,18
 109 433 109 433 126 426 c 1,19,20
 148 445 148 445 148 538 c 0,21,22
 148 569 148 569 140.5 627.5 c 128,-1,23
 133 686 133 686 133 713 c 0,24,25
 133 771 133 771 176.5 803 c 128,-1,26
 220 835 220 835 278 835 c 0,27,28
 299 835 299 835 311 822.5 c 128,-1,29
 323 810 323 810 323 790 c 128,-1,30
 323 770 323 770 308.5 759.5 c 128,-1,31
 294 749 294 749 277 747 c 128,-1,32
 260 745 260 745 245.5 734.5 c 128,-1,33
 231 724 231 724 231 705.5 c 128,-1,34
 231 687 231 687 238 633.5 c 128,-1,35
 245 580 245 580 245 533.5 c 128,-1,36
 245 487 245 487 237.5 453.5 c 128,-1,37
 230 420 230 420 223 408 c 128,-1,38
 216 396 216 396 199 376 c 1,39,40
 215 357 215 357 222 344 c 0,41,42
 244 305 244 305 244 210 c 0,43,44
 244 168 244 168 237 116.5 c 128,-1,45
 230 65 230 65 230 46.5 c 128,-1,46
 230 28 230 28 244.5 17.5 c 128,-1,47
 259 7 259 7 276 5 c 128,-1,0
 293 3 293 3 307.5 -7.5 c 128,-1,1
EndSplineSet
EndChar

StartChar: bar
Encoding: 124 124 95
Width: 268
GlyphClass: 2
Flags: W
LayerCount: 2
Fore
SplineSet
173 324 m 1,0,-1
 178 -28 l 2,1,2
 178 -84 178 -84 134 -84 c 128,-1,3
 90 -84 90 -84 90 -28 c 2,4,-1
 95 324 l 1,5,-1
 91 704 l 2,6,7
 91 760 91 760 134 760 c 128,-1,8
 177 760 177 760 177 704 c 2,9,-1
 173 324 l 1,0,-1
EndSplineSet
EndChar

StartChar: braceright
Encoding: 125 125 96
Width: 369
GlyphClass: 2
Flags: W
LayerCount: 2
Fore
SplineSet
180 376 m 1,0,1
 163 396 163 396 156 408 c 128,-1,2
 149 420 149 420 141.5 453.5 c 128,-1,3
 134 487 134 487 134 533.5 c 128,-1,4
 134 580 134 580 141 633.5 c 128,-1,5
 148 687 148 687 148 705.5 c 128,-1,6
 148 724 148 724 133.5 734.5 c 128,-1,7
 119 745 119 745 102 747 c 128,-1,8
 85 749 85 749 70.5 759.5 c 128,-1,9
 56 770 56 770 56 790 c 128,-1,10
 56 810 56 810 68 822.5 c 128,-1,11
 80 835 80 835 101 835 c 0,12,13
 155 835 155 835 195.5 803 c 128,-1,14
 236 771 236 771 236 713 c 0,15,16
 236 686 236 686 228.5 627.5 c 128,-1,17
 221 569 221 569 221 538 c 0,18,19
 221 445 221 445 243 426 c 1,20,21
 260 433 260 433 281.5 433 c 128,-1,22
 303 433 303 433 321.5 418.5 c 128,-1,23
 340 404 340 404 340 374 c 128,-1,24
 340 344 340 344 322 329.5 c 128,-1,25
 304 315 304 315 283 315 c 128,-1,26
 262 315 262 315 244 322 c 1,27,28
 222 303 222 303 222 210 c 0,29,30
 222 179 222 179 229.5 122.5 c 128,-1,31
 237 66 237 66 237 39 c 0,32,33
 237 -19 237 -19 196.5 -51 c 128,-1,34
 156 -83 156 -83 102 -83 c 0,35,36
 81 -83 81 -83 69 -70.5 c 128,-1,37
 57 -58 57 -58 57 -38 c 128,-1,38
 57 -18 57 -18 71.5 -7.5 c 128,-1,39
 86 3 86 3 103 5 c 128,-1,40
 120 7 120 7 134.5 17.5 c 128,-1,41
 149 28 149 28 149 46.5 c 128,-1,42
 149 65 149 65 142 116.5 c 128,-1,43
 135 168 135 168 135 214.5 c 128,-1,44
 135 261 135 261 142 295.5 c 128,-1,45
 149 330 149 330 156.5 343.5 c 128,-1,46
 164 357 164 357 180 376 c 1,0,1
EndSplineSet
EndChar

StartChar: asciitilde
Encoding: 126 126 97
Width: 622
GlyphClass: 2
Flags: W
LayerCount: 2
Fore
SplineSet
549 404 m 0,0,1
 549 375 549 375 507 343.5 c 128,-1,2
 465 312 465 312 421.5 312 c 128,-1,3
 378 312 378 312 322 340 c 128,-1,4
 266 368 266 368 240 368 c 128,-1,5
 214 368 214 368 180 338.5 c 128,-1,6
 146 309 146 309 122 309 c 128,-1,7
 98 309 98 309 86 320 c 128,-1,8
 74 331 74 331 74 349 c 0,9,10
 74 382 74 382 122 413 c 128,-1,11
 170 444 170 444 225 444 c 128,-1,12
 280 444 280 444 337 415.5 c 128,-1,13
 394 387 394 387 419.5 387 c 128,-1,14
 445 387 445 387 471.5 411.5 c 128,-1,15
 498 436 498 436 514.5 436 c 128,-1,16
 531 436 531 436 540 426.5 c 128,-1,17
 549 417 549 417 549 404 c 0,0,1
EndSplineSet
EndChar

StartChar: exclamdown
Encoding: 161 161 99
Width: 267
GlyphClass: 2
Flags: W
LayerCount: 2
Fore
SplineSet
174.5 671.5 m 128,-1,1
 188 653 188 653 188 628 c 128,-1,2
 188 603 188 603 171.5 583 c 128,-1,3
 155 563 155 563 130 563 c 128,-1,4
 105 563 105 563 92 580 c 128,-1,5
 79 597 79 597 79 622.5 c 128,-1,6
 79 648 79 648 96 669 c 128,-1,7
 113 690 113 690 137 690 c 128,-1,0
 161 690 161 690 174.5 671.5 c 128,-1,1
177 208 m 1,8,-1
 185 -20 l 2,9,10
 185 -50 185 -50 171.5 -67.5 c 128,-1,11
 158 -85 158 -85 134 -85 c 128,-1,12
 110 -85 110 -85 96.5 -67.5 c 128,-1,13
 83 -50 83 -50 83 -20 c 2,14,-1
 90 208 l 1,15,-1
 89 409 l 2,16,17
 89 435 89 435 101 450 c 128,-1,18
 113 465 113 465 134 465 c 128,-1,19
 155 465 155 465 167 450 c 128,-1,20
 179 435 179 435 179 409 c 2,21,-1
 177 208 l 1,8,-1
EndSplineSet
EndChar

StartChar: cent
Encoding: 162 162 100
Width: 768
GlyphClass: 2
Flags: W
LayerCount: 2
Fore
SplineSet
553 353 m 1,0,-1
 381 355 l 2,1,2
 265 355 265 355 213 354 c 1,3,4
 213 275 213 275 216 170.5 c 128,-1,5
 219 66 219 66 219 61 c 0,6,7
 219 -10 219 -10 168 -10 c 128,-1,8
 117 -10 117 -10 117 61 c 0,9,10
 117 66 117 66 120 169 c 128,-1,11
 123 272 123 272 123 351 c 1,12,13
 59 351 59 351 59 396 c 0,14,15
 59 417 59 417 75.5 429.5 c 128,-1,16
 92 442 92 442 123 442 c 1,17,18
 123 521 123 521 120 602.5 c 128,-1,19
 117 684 117 684 117 689 c 0,20,21
 117 760 117 760 168 760 c 128,-1,22
 219 760 219 760 219 689 c 0,23,24
 219 684 219 684 216 601 c 128,-1,25
 213 518 213 518 213 439 c 1,26,27
 311 437 311 437 408 437 c 128,-1,28
 505 437 505 437 553 439 c 1,29,30
 553 518 553 518 550.5 601 c 128,-1,31
 548 684 548 684 548 689 c 0,32,33
 548 760 548 760 599 760 c 128,-1,34
 650 760 650 760 650 689 c 0,35,36
 650 684 650 684 647 603 c 128,-1,37
 644 522 644 522 644 443 c 1,38,39
 674 443 674 443 691.5 430 c 128,-1,40
 709 417 709 417 709 396 c 128,-1,41
 709 375 709 375 691.5 362.5 c 128,-1,42
 674 350 674 350 644 350 c 1,43,44
 644 271 644 271 647 168.5 c 128,-1,45
 650 66 650 66 650 61 c 0,46,47
 650 -10 650 -10 599 -10 c 128,-1,48
 548 -10 548 -10 548 61 c 2,49,-1
 553 353 l 1,0,-1
EndSplineSet
EndChar

StartChar: sterling
Encoding: 163 163 101
Width: 583
GlyphClass: 2
Flags: W
LayerCount: 2
Fore
SplineSet
395 310 m 2,0,-1
 252 313 l 1,1,2
 258 225 258 225 242 179.5 c 128,-1,3
 226 134 226 134 200 86 c 1,4,5
 235 82 235 82 287 82 c 128,-1,6
 339 82 339 82 394 85.5 c 128,-1,7
 449 89 449 89 466 89 c 128,-1,8
 483 89 483 89 499.5 76.5 c 128,-1,9
 516 64 516 64 516 42 c 128,-1,10
 516 20 516 20 499.5 7.5 c 128,-1,11
 483 -5 483 -5 456 -5 c 2,12,-1
 301 0 l 1,13,-1
 147 -5 l 2,14,15
 119 -5 119 -5 102.5 10 c 128,-1,16
 86 25 86 25 86 53 c 128,-1,17
 86 81 86 81 104.5 112 c 128,-1,18
 123 143 123 143 142 182 c 128,-1,19
 161 221 161 221 161.5 257.5 c 128,-1,20
 162 294 162 294 161 311 c 1,21,22
 153 310 153 310 130 310 c 0,23,24
 75 310 75 310 75 350.5 c 128,-1,25
 75 391 75 391 128 391 c 0,26,27
 132 391 132 391 139 390.5 c 128,-1,28
 146 390 146 390 149 390 c 1,29,30
 146 406 146 406 138 437 c 0,31,32
 122 505 122 505 122 544 c 0,33,34
 122 616 122 616 174.5 664.5 c 128,-1,35
 227 713 227 713 319 713 c 0,36,37
 378 713 378 713 434 683 c 128,-1,38
 490 653 490 653 490 621 c 0,39,40
 490 604 490 604 480 590.5 c 128,-1,41
 470 577 470 577 450 577 c 128,-1,42
 430 577 430 577 392 601.5 c 128,-1,43
 354 626 354 626 311.5 626 c 128,-1,44
 269 626 269 626 243.5 603 c 128,-1,45
 218 580 218 580 218 544 c 128,-1,46
 218 508 218 508 241 388 c 1,47,-1
 395 391 l 2,48,49
 417 391 417 391 431.5 380 c 128,-1,50
 446 369 446 369 446 351 c 128,-1,51
 446 333 446 333 431.5 321.5 c 128,-1,52
 417 310 417 310 395 310 c 2,0,-1
EndSplineSet
EndChar

StartChar: currency
Encoding: 164 164 102
Width: 701
GlyphClass: 2
Flags: W
LayerCount: 2
Fore
SplineSet
487 189 m 1,0,1
 432 147 432 147 350 147 c 128,-1,2
 268 147 268 147 213 189 c 1,3,4
 205 180 205 180 193.5 168 c 128,-1,5
 182 156 182 156 177.5 151 c 128,-1,6
 173 146 173 146 165.5 138.5 c 128,-1,7
 158 131 158 131 154.5 128.5 c 128,-1,8
 151 126 151 126 146 124 c 0,9,10
 136 119 136 119 120.5 119 c 128,-1,11
 105 119 105 119 91 132 c 128,-1,12
 77 145 77 145 77 162 c 128,-1,13
 77 179 77 179 89 193.5 c 128,-1,14
 101 208 101 208 156 256 c 1,15,16
 128 309 128 309 128 371 c 128,-1,17
 128 433 128 433 157 488 c 1,18,19
 102 536 102 536 90 550.5 c 128,-1,20
 78 565 78 565 78 582 c 128,-1,21
 78 599 78 599 92 612 c 128,-1,22
 106 625 106 625 118.5 625 c 128,-1,23
 131 625 131 625 136 624 c 128,-1,24
 141 623 141 623 146.5 620.5 c 128,-1,25
 152 618 152 618 155.5 615.5 c 128,-1,26
 159 613 159 613 166.5 605.5 c 128,-1,27
 174 598 174 598 178.5 593 c 128,-1,28
 183 588 183 588 194.5 576 c 128,-1,29
 206 564 206 564 214 555 c 1,30,31
 268 596 268 596 350 596 c 128,-1,32
 432 596 432 596 486 555 c 1,33,34
 539 611 539 611 550 618 c 128,-1,35
 561 625 561 625 577.5 625 c 128,-1,36
 594 625 594 625 608 612 c 128,-1,37
 622 599 622 599 622 582 c 128,-1,38
 622 565 622 565 610 550.5 c 128,-1,39
 598 536 598 536 543 488 c 1,40,41
 572 433 572 433 572 369.5 c 128,-1,42
 572 306 572 306 544 256 c 1,43,44
 599 208 599 208 611 193.5 c 128,-1,45
 623 179 623 179 623 162 c 128,-1,46
 623 145 623 145 609.5 132 c 128,-1,47
 596 119 596 119 585 119 c 128,-1,48
 574 119 574 119 570 119.5 c 128,-1,49
 566 120 566 120 561.5 121.5 c 128,-1,50
 557 123 557 123 554 124.5 c 128,-1,51
 551 126 551 126 546 130 c 128,-1,52
 541 134 541 134 538 137 c 128,-1,53
 535 140 535 140 528 146.5 c 128,-1,54
 521 153 521 153 516.5 157.5 c 128,-1,55
 512 162 512 162 503 172 c 128,-1,56
 494 182 494 182 487 189 c 1,0,1
445.5 475 m 128,-1,58
 405 518 405 518 350 518 c 128,-1,59
 295 518 295 518 254.5 475 c 128,-1,60
 214 432 214 432 214 372 c 128,-1,61
 214 312 214 312 254 269 c 128,-1,62
 294 226 294 226 350 226 c 128,-1,63
 406 226 406 226 446 269 c 128,-1,64
 486 312 486 312 486 372 c 128,-1,57
 486 432 486 432 445.5 475 c 128,-1,58
EndSplineSet
EndChar

StartChar: yen
Encoding: 165 165 103
Width: 646
GlyphClass: 2
Flags: W
LayerCount: 2
Fore
SplineSet
373 151 m 1,0,-1
 375 48 l 2,1,2
 375 22 375 22 361 6 c 128,-1,3
 347 -10 347 -10 324.5 -10 c 128,-1,4
 302 -10 302 -10 287.5 6 c 128,-1,5
 273 22 273 22 273 41.5 c 128,-1,6
 273 61 273 61 277 151 c 1,7,8
 197 149 197 149 139 149 c 0,9,10
 117 149 117 149 103.5 160 c 128,-1,11
 90 171 90 171 90 189 c 128,-1,12
 90 207 90 207 103.5 218 c 128,-1,13
 117 229 117 229 139 229 c 2,14,-1
 279 226 l 1,15,-1
 279 294 l 1,16,-1
 139 292 l 2,17,18
 117 292 117 292 103.5 303 c 128,-1,19
 90 314 90 314 90 332 c 128,-1,20
 90 350 90 350 103.5 361 c 128,-1,21
 117 372 117 372 137.5 372 c 128,-1,22
 158 372 158 372 189.5 371.5 c 128,-1,23
 221 371 221 371 234 371 c 1,24,25
 175 471 175 471 156.5 501 c 128,-1,26
 138 531 138 531 124.5 553.5 c 128,-1,27
 111 576 111 576 103 589 c 128,-1,28
 95 602 95 602 88 614.5 c 128,-1,29
 81 627 81 627 77.5 633.5 c 128,-1,30
 74 640 74 640 72 647 c 0,31,32
 68 657 68 657 68 671 c 128,-1,33
 68 685 68 685 82.5 699 c 128,-1,34
 97 713 97 713 119 713 c 0,35,36
 131 713 131 713 137.5 708.5 c 128,-1,37
 144 704 144 704 148 701 c 128,-1,38
 152 698 152 698 157 691 c 128,-1,39
 162 684 162 684 165 679.5 c 128,-1,40
 168 675 168 675 174 665 c 128,-1,41
 180 655 180 655 183.5 649 c 128,-1,42
 187 643 187 643 194 629.5 c 128,-1,43
 201 616 201 616 249.5 528.5 c 128,-1,44
 298 441 298 441 330 394 c 1,45,46
 351 426 351 426 393.5 504.5 c 128,-1,47
 436 583 436 583 444.5 597.5 c 128,-1,48
 453 612 453 612 460 624.5 c 128,-1,49
 467 637 467 637 470.5 644 c 128,-1,50
 474 651 474 651 480 661 c 128,-1,51
 486 671 486 671 490 676.5 c 128,-1,52
 494 682 494 682 499 689 c 128,-1,53
 504 696 504 696 508 699.5 c 128,-1,54
 512 703 512 703 517 706 c 0,55,56
 526 713 526 713 542.5 713 c 128,-1,57
 559 713 559 713 572 700 c 128,-1,58
 585 687 585 687 585 671.5 c 128,-1,59
 585 656 585 656 572 632 c 0,60,61
 560 608 560 608 417 371 c 1,62,-1
 517 372 l 2,63,64
 539 372 539 372 552.5 361 c 128,-1,65
 566 350 566 350 566 332 c 128,-1,66
 566 314 566 314 552.5 303 c 128,-1,67
 539 292 539 292 517 292 c 2,68,-1
 371 294 l 1,69,-1
 371 226 l 1,70,-1
 517 229 l 2,71,72
 539 229 539 229 552.5 218 c 128,-1,73
 566 207 566 207 566 189 c 128,-1,74
 566 171 566 171 552.5 160 c 128,-1,75
 539 149 539 149 517 149 c 0,76,77
 457 149 457 149 373 151 c 1,0,-1
EndSplineSet
EndChar

StartChar: brokenbar
Encoding: 166 166 104
Width: 279
GlyphClass: 2
Flags: W
LayerCount: 2
Fore
SplineSet
178 603 m 1,0,-1
 183 499 l 2,1,2
 183 475 183 475 171 460.5 c 128,-1,3
 159 446 159 446 138 446 c 0,4,5
 96 446 96 446 96 499 c 2,6,-1
 100 603 l 1,7,-1
 97 707 l 2,8,9
 97 760 97 760 138 760 c 0,10,11
 159 760 159 760 170.5 745.5 c 128,-1,12
 182 731 182 731 182 707 c 2,13,-1
 178 603 l 1,0,-1
178 147 m 1,14,-1
 183 43 l 2,15,16
 183 19 183 19 171 4.5 c 128,-1,17
 159 -10 159 -10 138 -10 c 0,18,19
 96 -10 96 -10 96 43 c 2,20,-1
 100 147 l 1,21,-1
 97 251 l 2,22,23
 97 304 97 304 138 304 c 0,24,25
 159 304 159 304 170.5 289.5 c 128,-1,26
 182 275 182 275 182 251 c 2,27,-1
 178 147 l 1,14,-1
EndSplineSet
EndChar

StartChar: section
Encoding: 167 167 105
Width: 586
GlyphClass: 2
Flags: W
LayerCount: 2
Fore
SplineSet
488 407.5 m 128,-1,1
 520 371 520 371 520 329 c 128,-1,2
 520 287 520 287 494 250.5 c 128,-1,3
 468 214 468 214 426 191 c 1,4,5
 485 149 485 149 485 83 c 128,-1,6
 485 17 485 17 426 -34 c 128,-1,7
 367 -85 367 -85 272 -85 c 0,8,9
 202 -85 202 -85 135.5 -48 c 128,-1,10
 69 -11 69 -11 69 26 c 0,11,12
 69 43 69 43 80 53 c 128,-1,13
 91 63 91 63 108 63 c 128,-1,14
 125 63 125 63 146 48 c 0,15,16
 208 2 208 2 266 2 c 128,-1,17
 324 2 324 2 357 25 c 128,-1,18
 390 48 390 48 390 81 c 128,-1,19
 390 114 390 114 358 139.5 c 128,-1,20
 326 165 326 165 280.5 187 c 128,-1,21
 235 209 235 209 189.5 233.5 c 128,-1,22
 144 258 144 258 112 293.5 c 128,-1,23
 80 329 80 329 80 373 c 128,-1,24
 80 417 80 417 114 451 c 128,-1,25
 148 485 148 485 204 499 c 1,26,27
 115 561 115 561 115 620.5 c 128,-1,28
 115 680 115 680 170.5 722.5 c 128,-1,29
 226 765 226 765 301.5 765 c 128,-1,30
 377 765 377 765 429 738 c 128,-1,31
 481 711 481 711 481 675 c 0,32,33
 481 660 481 660 470.5 650 c 128,-1,34
 460 640 460 640 444.5 640 c 128,-1,35
 429 640 429 640 392 659 c 128,-1,36
 355 678 355 678 312 678 c 128,-1,37
 269 678 269 678 239.5 662 c 128,-1,38
 210 646 210 646 210 619 c 128,-1,39
 210 592 210 592 242 565.5 c 128,-1,40
 274 539 274 539 319.5 516.5 c 128,-1,41
 365 494 365 494 410.5 469 c 128,-1,0
 456 444 456 444 488 407.5 c 128,-1,1
405 276 m 128,-1,43
 429 299 429 299 429 329.5 c 128,-1,44
 429 360 429 360 376 394.5 c 128,-1,45
 323 429 323 429 277 429 c 128,-1,46
 231 429 231 429 201 414 c 128,-1,47
 171 399 171 399 171 374.5 c 128,-1,48
 171 350 171 350 206.5 323.5 c 128,-1,49
 242 297 242 297 340 243 c 1,50,42
 381 253 381 253 405 276 c 128,-1,43
EndSplineSet
EndChar

StartChar: dieresis
Encoding: 168 168 106
Width: 476
GlyphClass: 2
Flags: W
LayerCount: 2
Fore
SplineSet
377.5 690 m 128,-1,1
 391 673 391 673 391 646.5 c 128,-1,2
 391 620 391 620 374 599 c 128,-1,3
 357 578 357 578 332.5 578 c 128,-1,4
 308 578 308 578 294 596 c 128,-1,5
 280 614 280 614 280 640 c 128,-1,6
 280 666 280 666 296.5 686.5 c 128,-1,7
 313 707 313 707 338.5 707 c 128,-1,0
 364 707 364 707 377.5 690 c 128,-1,1
182.5 690 m 128,-1,9
 196 673 196 673 196 646.5 c 128,-1,10
 196 620 196 620 179 599 c 128,-1,11
 162 578 162 578 137.5 578 c 128,-1,12
 113 578 113 578 99 596 c 128,-1,13
 85 614 85 614 85 640 c 128,-1,14
 85 666 85 666 101.5 686.5 c 128,-1,15
 118 707 118 707 143.5 707 c 128,-1,8
 169 707 169 707 182.5 690 c 128,-1,9
EndSplineSet
EndChar

StartChar: copyright
Encoding: 169 169 107
Width: 787
GlyphClass: 2
Flags: W
LayerCount: 2
Fore
SplineSet
398 644 m 0,0,1
 443 644 443 644 480 625.5 c 128,-1,2
 517 607 517 607 517 583 c 0,3,4
 517 548 517 548 481 548 c 0,5,6
 467 548 467 548 450 560 c 0,7,8
 424 575 424 575 403 575 c 0,9,10
 351 575 351 575 322.5 537 c 128,-1,11
 294 499 294 499 294 447.5 c 128,-1,12
 294 396 294 396 325.5 359 c 128,-1,13
 357 322 357 322 403 322 c 0,14,15
 433 322 433 322 457.5 334.5 c 128,-1,16
 482 347 482 347 494 347 c 0,17,18
 525 347 525 347 525 316 c 0,19,20
 525 299 525 299 488 276 c 128,-1,21
 451 253 451 253 398 253 c 0,22,23
 321 253 321 253 268 311 c 128,-1,24
 215 369 215 369 215 449.5 c 128,-1,25
 215 530 215 530 266.5 587 c 128,-1,26
 318 644 318 644 398 644 c 0,0,1
707 449 m 128,-1,28
 707 318 707 318 615 225.5 c 128,-1,29
 523 133 523 133 393 133 c 128,-1,30
 263 133 263 133 171 225.5 c 128,-1,31
 79 318 79 318 79 449 c 128,-1,32
 79 580 79 580 171 672.5 c 128,-1,33
 263 765 263 765 393 765 c 128,-1,34
 523 765 523 765 615 672.5 c 128,-1,27
 707 580 707 580 707 449 c 128,-1,28
559.5 275.5 m 128,-1,36
 629 347 629 347 629 449.5 c 128,-1,37
 629 552 629 552 559.5 623 c 128,-1,38
 490 694 490 694 392.5 694 c 128,-1,39
 295 694 295 694 226 623 c 128,-1,40
 157 552 157 552 157 449.5 c 128,-1,41
 157 347 157 347 226 275.5 c 128,-1,42
 295 204 295 204 392.5 204 c 128,-1,35
 490 204 490 204 559.5 275.5 c 128,-1,36
EndSplineSet
EndChar

StartChar: ordfeminine
Encoding: 170 170 108
Width: 450
GlyphClass: 2
Flags: W
LayerCount: 2
Fore
SplineSet
344 593 m 1,0,1
 344 519 344 519 363 506 c 0,2,3
 366 504 366 504 372 503 c 0,4,5
 387 501 387 501 387 490 c 0,6,7
 387 466 387 466 372 451.5 c 128,-1,8
 357 437 357 437 336 437 c 0,9,10
 294 437 294 437 282 492 c 1,11,12
 246 437 246 437 186 437 c 128,-1,13
 126 437 126 437 94 485 c 128,-1,14
 62 533 62 533 62 596.5 c 128,-1,15
 62 660 62 660 104 710.5 c 128,-1,16
 146 761 146 761 209 761 c 0,17,18
 247 761 247 761 276 739 c 1,19,20
 288 761 288 761 314 761 c 0,21,22
 356 761 356 761 356 698 c 0,23,24
 356 681 356 681 344 593 c 1,0,1
274 600 m 1,25,-1
 272 666 l 1,26,27
 243 692 243 692 212 692 c 128,-1,28
 181 692 181 692 159.5 663.5 c 128,-1,29
 138 635 138 635 138 595 c 128,-1,30
 138 555 138 555 151 529.5 c 128,-1,31
 164 504 164 504 188 504 c 128,-1,32
 212 504 212 504 237.5 533 c 128,-1,33
 263 562 263 562 274 600 c 1,25,-1
EndSplineSet
EndChar

StartChar: guillemotleft
Encoding: 171 171 109
Width: 605
GlyphClass: 2
Flags: W
LayerCount: 2
Fore
SplineSet
150 376 m 128,-1,1
 150 368 150 368 207 327 c 0,2,3
 215 321 215 321 233 309.5 c 128,-1,4
 251 298 251 298 260 291 c 0,5,6
 288 271 288 271 288 253 c 128,-1,7
 288 235 288 235 276 223.5 c 128,-1,8
 264 212 264 212 246.5 212 c 128,-1,9
 229 212 229 212 215.5 220 c 128,-1,10
 202 228 202 228 184 245 c 128,-1,11
 166 262 166 262 128.5 292.5 c 128,-1,12
 91 323 91 323 75 341 c 128,-1,13
 59 359 59 359 59 376 c 128,-1,14
 59 393 59 393 75 411 c 128,-1,15
 91 429 91 429 128.5 459.5 c 128,-1,16
 166 490 166 490 180.5 503.5 c 128,-1,17
 195 517 195 517 203 524 c 0,18,19
 223 540 223 540 243.5 540 c 128,-1,20
 264 540 264 540 276 528.5 c 128,-1,21
 288 517 288 517 288 501.5 c 128,-1,22
 288 486 288 486 277.5 475 c 128,-1,23
 267 464 267 464 239 446 c 128,-1,24
 211 428 211 428 207 425 c 0,25,0
 150 384 150 384 150 376 c 128,-1,1
390 376 m 128,-1,27
 390 368 390 368 447 327 c 0,28,29
 455 321 455 321 473 309.5 c 128,-1,30
 491 298 491 298 500 291 c 0,31,32
 528 271 528 271 528 253 c 128,-1,33
 528 235 528 235 516 223.5 c 128,-1,34
 504 212 504 212 486.5 212 c 128,-1,35
 469 212 469 212 455.5 220 c 128,-1,36
 442 228 442 228 424 245 c 128,-1,37
 406 262 406 262 368.5 292.5 c 128,-1,38
 331 323 331 323 315 341 c 128,-1,39
 299 359 299 359 299 376 c 128,-1,40
 299 393 299 393 315 411 c 128,-1,41
 331 429 331 429 368.5 459.5 c 128,-1,42
 406 490 406 490 420.5 503.5 c 128,-1,43
 435 517 435 517 443 524 c 0,44,45
 463 540 463 540 483.5 540 c 128,-1,46
 504 540 504 540 516 528.5 c 128,-1,47
 528 517 528 517 528 501.5 c 128,-1,48
 528 486 528 486 517.5 475 c 128,-1,49
 507 464 507 464 479 446 c 128,-1,50
 451 428 451 428 447 425 c 0,51,26
 390 384 390 384 390 376 c 128,-1,27
EndSplineSet
EndChar

StartChar: logicalnot
Encoding: 172 172 110
Width: 704
GlyphClass: 2
Flags: W
LayerCount: 2
Fore
SplineSet
609 305 m 1,0,-1
 611 237 l 2,1,2
 611 215 611 215 599 202 c 128,-1,3
 587 189 587 189 567.5 189 c 128,-1,4
 548 189 548 189 536 202 c 128,-1,5
 524 215 524 215 524 237 c 2,6,7
 524 237 524 237 527 334 c 1,8,9
 439 336 439 336 349 336 c 2,10,-1
 143 333 l 2,11,12
 121 333 121 333 107 345 c 128,-1,13
 93 357 93 357 93 375 c 128,-1,14
 93 393 93 393 107 405 c 128,-1,15
 121 417 121 417 143 417 c 2,16,-1
 349 414 l 1,17,-1
 560 417 l 2,18,19
 578 417 578 417 594.5 405.5 c 128,-1,20
 611 394 611 394 611 365 c 2,21,-1
 609 305 l 1,0,-1
EndSplineSet
EndChar

StartChar: uni00AD
Encoding: 173 173 111
Width: 438
GlyphClass: 2
Flags: W
LayerCount: 2
Fore
SplineSet
317 219 m 2,0,-1
 218 222 l 1,1,-1
 119 219 l 2,2,3
 97 219 97 219 83.5 231 c 128,-1,4
 70 243 70 243 70 261 c 128,-1,5
 70 279 70 279 83.5 291 c 128,-1,6
 97 303 97 303 119 303 c 2,7,-1
 218 300 l 1,8,9
 218 300 218 300 317 303 c 0,10,11
 339 303 339 303 352.5 291 c 128,-1,12
 366 279 366 279 366 261 c 128,-1,13
 366 243 366 243 352.5 231 c 128,-1,14
 339 219 339 219 317 219 c 2,0,-1
EndSplineSet
EndChar

StartChar: registered
Encoding: 174 174 112
Width: 786
GlyphClass: 2
Flags: W
LayerCount: 2
Fore
SplineSet
261 461 m 1,0,-1
 256 594 l 2,1,2
 256 647 256 647 385 647 c 0,3,4
 460 647 460 647 498.5 610 c 128,-1,5
 537 573 537 573 537 526 c 0,6,7
 537 454 537 454 461 416 c 1,8,9
 468 404 468 404 477.5 388 c 128,-1,10
 487 372 487 372 492 363.5 c 128,-1,11
 497 355 497 355 504 346 c 0,12,13
 515 330 515 330 533.5 330 c 128,-1,14
 552 330 552 330 552 316 c 0,15,16
 552 295 552 295 537 279.5 c 128,-1,17
 522 264 522 264 504.5 264 c 128,-1,18
 487 264 487 264 476 269.5 c 128,-1,19
 465 275 465 275 454 289 c 0,20,21
 437 311 437 311 417 349.5 c 128,-1,22
 397 388 397 388 391 398 c 1,23,24
 367 395 367 395 353 395 c 128,-1,25
 339 395 339 395 334 396 c 1,26,-1
 336 308 l 2,27,28
 336 289 336 289 325 276 c 128,-1,29
 314 263 314 263 296 263 c 0,30,31
 257 263 257 263 257 308 c 2,32,-1
 261 461 l 1,0,-1
447.5 488 m 128,-1,34
 461 504 461 504 461 525.5 c 128,-1,35
 461 547 461 547 443.5 563 c 128,-1,36
 426 579 426 579 392 579 c 128,-1,37
 358 579 358 579 334 572 c 1,38,39
 334 558 334 558 332.5 527 c 128,-1,40
 331 496 331 496 331 477 c 1,41,42
 347 481 347 481 366.5 481 c 128,-1,43
 386 481 386 481 419 470 c 1,44,33
 434 472 434 472 447.5 488 c 128,-1,34
707 449 m 128,-1,46
 707 318 707 318 615 225.5 c 128,-1,47
 523 133 523 133 393 133 c 128,-1,48
 263 133 263 133 171 225.5 c 128,-1,49
 79 318 79 318 79 449 c 128,-1,50
 79 580 79 580 171 672.5 c 128,-1,51
 263 765 263 765 393 765 c 128,-1,52
 523 765 523 765 615 672.5 c 128,-1,45
 707 580 707 580 707 449 c 128,-1,46
559.5 275.5 m 128,-1,54
 629 347 629 347 629 449.5 c 128,-1,55
 629 552 629 552 559.5 623 c 128,-1,56
 490 694 490 694 392.5 694 c 128,-1,57
 295 694 295 694 226 623 c 128,-1,58
 157 552 157 552 157 449.5 c 128,-1,59
 157 347 157 347 226 275.5 c 128,-1,60
 295 204 295 204 392.5 204 c 128,-1,53
 490 204 490 204 559.5 275.5 c 128,-1,54
EndSplineSet
EndChar

StartChar: macron
Encoding: 175 175 113
Width: 496
GlyphClass: 2
Flags: W
LayerCount: 2
Fore
SplineSet
248 630 m 1,0,-1
 114 627 l 2,1,2
 93 627 93 627 79 639 c 128,-1,3
 65 651 65 651 65 669 c 128,-1,4
 65 687 65 687 78.5 699 c 128,-1,5
 92 711 92 711 114 711 c 2,6,-1
 248 708 l 1,7,-1
 382 711 l 2,8,9
 403 711 403 711 417 699 c 128,-1,10
 431 687 431 687 431 669 c 128,-1,11
 431 651 431 651 417.5 639 c 128,-1,12
 404 627 404 627 382 627 c 2,13,14
 382 627 382 627 248 630 c 1,0,-1
EndSplineSet
EndChar

StartChar: degree
Encoding: 176 176 114
Width: 402
GlyphClass: 2
Flags: W
LayerCount: 2
Fore
SplineSet
300 719.5 m 128,-1,1
 338 676 338 676 338 613.5 c 128,-1,2
 338 551 338 551 300 507.5 c 128,-1,3
 262 464 262 464 201 464 c 128,-1,4
 140 464 140 464 102 507 c 128,-1,5
 64 550 64 550 64 613 c 128,-1,6
 64 676 64 676 102 719.5 c 128,-1,7
 140 763 140 763 201 763 c 128,-1,0
 262 763 262 763 300 719.5 c 128,-1,1
260 613 m 128,-1,9
 260 648 260 648 244.5 671 c 128,-1,10
 229 694 229 694 201 694 c 128,-1,11
 173 694 173 694 157 671 c 128,-1,12
 141 648 141 648 141 613.5 c 128,-1,13
 141 579 141 579 157 556 c 128,-1,14
 173 533 173 533 201 533 c 128,-1,15
 229 533 229 533 244.5 555.5 c 128,-1,8
 260 578 260 578 260 613 c 128,-1,9
EndSplineSet
EndChar

StartChar: plusminus
Encoding: 177 177 115
Width: 645
GlyphClass: 2
Flags: W
LayerCount: 2
Fore
SplineSet
132 502 m 2,0,-1
 284 499 l 1,1,2
 284 557 284 557 282 586 c 128,-1,3
 280 615 280 615 280 617 c 0,4,5
 280 640 280 640 291.5 653 c 128,-1,6
 303 666 303 666 322 666 c 128,-1,7
 341 666 341 666 353 652.5 c 128,-1,8
 365 639 365 639 365 616 c 0,9,10
 365 614 365 614 364 600 c 0,11,12
 361 556 361 556 361 498 c 1,13,-1
 513 501 l 2,14,15
 535 501 535 501 549 489 c 128,-1,16
 563 477 563 477 563 459 c 128,-1,17
 563 441 563 441 549 429 c 128,-1,18
 535 417 535 417 513 417 c 2,19,-1
 361 420 l 1,20,-1
 365 289 l 2,21,22
 365 266 365 266 353.5 252 c 128,-1,23
 342 238 342 238 322.5 238 c 128,-1,24
 303 238 303 238 291.5 252.5 c 128,-1,25
 280 267 280 267 280 290 c 2,26,-1
 284 421 l 1,27,-1
 132 418 l 2,28,29
 110 418 110 418 96 430 c 128,-1,30
 82 442 82 442 82 460 c 128,-1,31
 82 478 82 478 96 490 c 128,-1,32
 110 502 110 502 132 502 c 2,0,-1
321 91 m 1,33,-1
 131 88 l 2,34,35
 109 88 109 88 95.5 100 c 128,-1,36
 82 112 82 112 82 130 c 128,-1,37
 82 148 82 148 95.5 160 c 128,-1,38
 109 172 109 172 131 172 c 2,39,-1
 321 169 l 1,40,-1
 511 172 l 2,41,42
 533 172 533 172 546.5 160 c 128,-1,43
 560 148 560 148 560 130 c 128,-1,44
 560 112 560 112 546.5 100 c 128,-1,45
 533 88 533 88 511 88 c 2,46,-1
 321 91 l 1,33,-1
EndSplineSet
EndChar

StartChar: twosuperior
Encoding: 178 178 116
Width: 435
GlyphClass: 2
Flags: W
LayerCount: 2
Fore
SplineSet
213 336 m 1,0,-1
 113 332 l 2,1,2
 94 332 94 332 79 343 c 128,-1,3
 64 354 64 354 64 373 c 128,-1,4
 64 392 64 392 79.5 412.5 c 128,-1,5
 95 433 95 433 129.5 469.5 c 128,-1,6
 164 506 164 506 176.5 521.5 c 128,-1,7
 189 537 189 537 202 552 c 128,-1,8
 215 567 215 567 223.5 578 c 128,-1,9
 232 589 232 589 243 604 c 0,10,11
 265 634 265 634 265 651.5 c 128,-1,12
 265 669 265 669 250.5 681 c 128,-1,13
 236 693 236 693 214.5 693 c 128,-1,14
 193 693 193 693 163.5 671 c 128,-1,15
 134 649 134 649 115 649 c 128,-1,16
 96 649 96 649 86.5 659 c 128,-1,17
 77 669 77 669 77 689 c 128,-1,18
 77 709 77 709 116.5 737 c 128,-1,19
 156 765 156 765 216 765 c 128,-1,20
 276 765 276 765 311.5 733 c 128,-1,21
 347 701 347 701 347 660 c 0,22,23
 347 623 347 623 318 580 c 0,24,25
 298 550 298 550 284 532.5 c 128,-1,26
 270 515 270 515 257.5 498 c 128,-1,27
 245 481 245 481 179 405 c 1,28,29
 246 405 246 405 281 407 c 128,-1,30
 316 409 316 409 322 409 c 0,31,32
 372 409 372 409 372 370.5 c 128,-1,33
 372 332 372 332 322 332 c 2,34,-1
 213 336 l 1,0,-1
EndSplineSet
EndChar

StartChar: threesuperior
Encoding: 179 179 117
Width: 431
GlyphClass: 2
Flags: W
LayerCount: 2
Fore
SplineSet
207 750 m 1,0,-1
 288 753 l 2,1,2
 319 753 319 753 334.5 740 c 128,-1,3
 350 727 350 727 350 710.5 c 128,-1,4
 350 694 350 694 340.5 683 c 128,-1,5
 331 672 331 672 305 648.5 c 128,-1,6
 279 625 279 625 257 598 c 1,7,8
 311 584 311 584 340.5 547.5 c 128,-1,9
 370 511 370 511 370 459 c 128,-1,10
 370 407 370 407 325.5 363 c 128,-1,11
 281 319 281 319 207 319 c 0,12,13
 152 319 152 319 107.5 350.5 c 128,-1,14
 63 382 63 382 63 407 c 0,15,16
 63 442 63 442 96 442 c 0,17,18
 114 442 114 442 144.5 417.5 c 128,-1,19
 175 393 175 393 211 393 c 128,-1,20
 247 393 247 393 268.5 412.5 c 128,-1,21
 290 432 290 432 290 464 c 128,-1,22
 290 496 290 496 267 517.5 c 128,-1,23
 244 539 244 539 209 543 c 1,24,25
 172 511 172 511 141 511 c 0,26,27
 96 511 96 511 96 552 c 0,28,29
 96 567 96 567 113 582 c 128,-1,30
 130 597 130 597 163 604 c 1,31,32
 224 660 224 660 242 679 c 1,33,34
 230 680 230 680 197 680 c 2,35,-1
 119 677 l 2,36,37
 98 677 98 677 84.5 686.5 c 128,-1,38
 71 696 71 696 71 713.5 c 128,-1,39
 71 731 71 731 84 742 c 128,-1,40
 97 753 97 753 119 753 c 2,41,-1
 207 750 l 1,0,-1
EndSplineSet
EndChar

StartChar: acute
Encoding: 180 180 118
Width: 330
GlyphClass: 2
Flags: W
LayerCount: 2
Fore
SplineSet
245 696 m 0,0,1
 245 652 245 652 197.5 607.5 c 128,-1,2
 150 563 150 563 118 563 c 0,3,4
 102 563 102 563 93.5 571 c 128,-1,5
 85 579 85 579 85 591 c 128,-1,6
 85 603 85 603 109 632.5 c 128,-1,7
 133 662 133 662 142 682 c 128,-1,8
 151 702 151 702 156.5 711.5 c 128,-1,9
 162 721 162 721 174.5 730.5 c 128,-1,10
 187 740 187 740 204.5 740 c 128,-1,11
 222 740 222 740 233.5 726.5 c 128,-1,12
 245 713 245 713 245 696 c 0,0,1
EndSplineSet
EndChar

StartChar: mu
Encoding: 181 181 119
AltUni2: 0003bc.ffffffff.0
Width: 871
GlyphClass: 2
Flags: W
LayerCount: 2
Fore
SplineSet
595 360 m 1,0,-1
 591 688 l 2,1,2
 591 757 591 757 642 757 c 0,3,4
 704 757 704 757 704 655 c 128,-1,5
 704 553 704 553 677 360 c 1,6,7
 677 250 677 250 691.5 173.5 c 128,-1,8
 706 97 706 97 727 88 c 0,9,10
 735 84 735 84 746.5 82.5 c 128,-1,11
 758 81 758 81 763 78 c 128,-1,12
 768 75 768 75 768 67 c 0,13,14
 768 30 768 30 746 7.5 c 128,-1,15
 724 -15 724 -15 690 -15 c 0,16,17
 646 -15 646 -15 625 35 c 128,-1,18
 604 85 604 85 604 164 c 1,19,20
 584 127 584 127 571 107 c 128,-1,21
 558 87 558 87 529 53 c 0,22,23
 471 -15 471 -15 380 -15 c 0,24,25
 345 -15 345 -15 298 3.5 c 128,-1,26
 251 22 251 22 223 51 c 1,27,28
 225 -9 225 -9 225 -12 c 0,29,30
 225 -83 225 -83 174 -83 c 128,-1,31
 123 -83 123 -83 123 -12 c 0,32,33
 123 -2 123 -2 124 52 c 0,34,35
 128 178 128 178 128 317.5 c 128,-1,36
 128 457 128 457 126.5 527.5 c 128,-1,37
 125 598 125 598 123.5 640.5 c 128,-1,38
 122 683 122 683 122 691 c 0,39,40
 122 762 122 762 173 762 c 128,-1,41
 224 762 224 762 224 691 c 0,42,43
 224 685 224 685 222 638 c 0,44,45
 218 499 218 499 218 307 c 0,46,47
 218 211 218 211 271.5 141.5 c 128,-1,48
 325 72 325 72 388.5 72 c 128,-1,49
 452 72 452 72 510.5 159 c 128,-1,50
 569 246 569 246 595 360 c 1,0,-1
EndSplineSet
EndChar

StartChar: paragraph
Encoding: 182 182 120
Width: 662
GlyphClass: 2
Flags: W
LayerCount: 2
Fore
SplineSet
405 750 m 1,0,-1
 489 753 l 2,1,2
 515 753 515 753 530 737.5 c 128,-1,3
 545 722 545 722 545 704 c 128,-1,4
 545 686 545 686 544 622 c 0,5,6
 540 473 540 473 540 324 c 128,-1,7
 540 175 540 175 543 75.5 c 128,-1,8
 546 -24 546 -24 546 -27 c 0,9,10
 544 -85 544 -85 497.5 -85 c 128,-1,11
 451 -85 451 -85 451 -27 c 0,12,13
 451 -19 451 -19 452 25 c 0,14,15
 457 157 457 157 457 266 c 2,16,-1
 452 676 l 1,17,-1
 357 676 l 1,18,-1
 352 266 l 2,19,20
 352 175 352 175 355 75.5 c 128,-1,21
 358 -24 358 -24 358 -27 c 0,22,23
 358 -84 358 -84 310.5 -84 c 128,-1,24
 263 -84 263 -84 263 -27 c 0,25,26
 263 -20 263 -20 264 26 c 0,27,28
 269 164 269 164 269 319 c 1,29,30
 175 324 175 324 117 382.5 c 128,-1,31
 59 441 59 441 59 526 c 0,32,33
 59 632 59 632 125 691.5 c 128,-1,34
 191 751 191 751 307 753 c 1,35,-1
 405 750 l 1,0,-1
EndSplineSet
EndChar

StartChar: periodcentered
Encoding: 183 183 121
Width: 269
GlyphClass: 2
Flags: W
LayerCount: 2
Fore
SplineSet
176.5 427 m 128,-1,1
 190 410 190 410 190 384 c 128,-1,2
 190 358 190 358 173 336.5 c 128,-1,3
 156 315 156 315 131.5 315 c 128,-1,4
 107 315 107 315 93 333 c 128,-1,5
 79 351 79 351 79 377 c 128,-1,6
 79 403 79 403 95.5 423.5 c 128,-1,7
 112 444 112 444 137.5 444 c 128,-1,0
 163 444 163 444 176.5 427 c 128,-1,1
EndSplineSet
EndChar

StartChar: cedilla
Encoding: 184 184 122
Width: 341
GlyphClass: 2
Flags: W
LayerCount: 2
Fore
SplineSet
281 -133 m 0,0,1
 281 -175 281 -175 243.5 -202.5 c 128,-1,2
 206 -230 206 -230 154 -230 c 128,-1,3
 102 -230 102 -230 70.5 -205.5 c 128,-1,4
 39 -181 39 -181 39 -155 c 0,5,6
 39 -146 39 -146 46.5 -138 c 128,-1,7
 54 -130 54 -130 65.5 -130 c 128,-1,8
 77 -130 77 -130 102.5 -142 c 128,-1,9
 128 -154 128 -154 147 -154 c 128,-1,10
 166 -154 166 -154 178 -147 c 128,-1,11
 190 -140 190 -140 190 -130.5 c 128,-1,12
 190 -121 190 -121 175.5 -110.5 c 128,-1,13
 161 -100 161 -100 143.5 -90 c 128,-1,14
 126 -80 126 -80 111.5 -62.5 c 128,-1,15
 97 -45 97 -45 97 -24 c 2,16,-1
 97 19 l 1,17,-1
 178 19 l 1,18,-1
 178 -9 l 2,19,20
 178 -24 178 -24 194 -39 c 128,-1,21
 210 -54 210 -54 229.5 -64.5 c 128,-1,22
 249 -75 249 -75 265 -93 c 128,-1,23
 281 -111 281 -111 281 -133 c 0,0,1
EndSplineSet
EndChar

StartChar: onesuperior
Encoding: 185 185 123
Width: 350
GlyphClass: 2
Flags: W
LayerCount: 2
Fore
SplineSet
264 544 m 1,0,-1
 267 377 l 2,1,2
 267 356 267 356 256 343.5 c 128,-1,3
 245 331 245 331 226 331 c 128,-1,4
 207 331 207 331 196 343.5 c 128,-1,5
 185 356 185 356 185 377 c 2,6,-1
 188 544 l 1,7,-1
 188 636 l 1,8,9
 177 625 177 625 162.5 611.5 c 128,-1,10
 148 598 148 598 140.5 590.5 c 128,-1,11
 133 583 133 583 123 574 c 128,-1,12
 113 565 113 565 107.5 561 c 128,-1,13
 102 557 102 557 96 552 c 0,14,15
 85 545 85 545 72 545 c 128,-1,16
 59 545 59 545 49 554 c 128,-1,17
 39 563 39 563 39 574.5 c 128,-1,18
 39 586 39 586 41 592.5 c 128,-1,19
 43 599 43 599 50 607.5 c 128,-1,20
 57 616 57 616 64 623.5 c 128,-1,21
 71 631 71 631 88 648.5 c 128,-1,22
 105 666 105 666 137 700.5 c 128,-1,23
 169 735 169 735 184.5 747.5 c 128,-1,24
 200 760 200 760 223 760 c 0,25,26
 267 760 267 760 267 703 c 2,27,-1
 264 544 l 1,0,-1
EndSplineSet
EndChar

StartChar: ordmasculine
Encoding: 186 186 124
Width: 425
GlyphClass: 2
Flags: W
LayerCount: 2
Fore
SplineSet
320 718 m 128,-1,1
 362 671 362 671 362 599.5 c 128,-1,2
 362 528 362 528 320.5 482.5 c 128,-1,3
 279 437 279 437 212 437 c 128,-1,4
 145 437 145 437 104 482.5 c 128,-1,5
 63 528 63 528 63 599 c 128,-1,6
 63 670 63 670 104.5 717.5 c 128,-1,7
 146 765 146 765 212 765 c 128,-1,0
 278 765 278 765 320 718 c 128,-1,1
266 531.5 m 128,-1,9
 285 557 285 557 285 599.5 c 128,-1,10
 285 642 285 642 265.5 669 c 128,-1,11
 246 696 246 696 212.5 696 c 128,-1,12
 179 696 179 696 159.5 669 c 128,-1,13
 140 642 140 642 140 599.5 c 128,-1,14
 140 557 140 557 159 531.5 c 128,-1,15
 178 506 178 506 212.5 506 c 128,-1,8
 247 506 247 506 266 531.5 c 128,-1,9
EndSplineSet
EndChar

StartChar: guillemotright
Encoding: 187 187 125
Width: 604
GlyphClass: 2
Flags: W
LayerCount: 2
Fore
SplineSet
546 376 m 128,-1,1
 546 359 546 359 530 341 c 128,-1,2
 514 323 514 323 476.5 292.5 c 128,-1,3
 439 262 439 262 424.5 248.5 c 128,-1,4
 410 235 410 235 402 228 c 0,5,6
 382 212 382 212 361.5 212 c 128,-1,7
 341 212 341 212 329 223.5 c 128,-1,8
 317 235 317 235 317 250.5 c 128,-1,9
 317 266 317 266 327.5 277 c 128,-1,10
 338 288 338 288 366 306 c 128,-1,11
 394 324 394 324 398 327 c 0,12,13
 455 368 455 368 455 376 c 128,-1,14
 455 384 455 384 398 425 c 0,15,16
 390 431 390 431 372 442.5 c 128,-1,17
 354 454 354 454 344 461 c 0,18,19
 317 481 317 481 317 499 c 128,-1,20
 317 517 317 517 329 528.5 c 128,-1,21
 341 540 341 540 358.5 540 c 128,-1,22
 376 540 376 540 389.5 532 c 128,-1,23
 403 524 403 524 421 507 c 128,-1,24
 439 490 439 490 476.5 459.5 c 128,-1,25
 514 429 514 429 530 411 c 128,-1,0
 546 393 546 393 546 376 c 128,-1,1
306 376 m 128,-1,27
 306 359 306 359 290 341 c 128,-1,28
 274 323 274 323 236.5 292.5 c 128,-1,29
 199 262 199 262 184.5 248.5 c 128,-1,30
 170 235 170 235 162 228 c 0,31,32
 142 212 142 212 121.5 212 c 128,-1,33
 101 212 101 212 89 223.5 c 128,-1,34
 77 235 77 235 77 250.5 c 128,-1,35
 77 266 77 266 87.5 277 c 128,-1,36
 98 288 98 288 126 306 c 128,-1,37
 154 324 154 324 158 327 c 0,38,39
 215 368 215 368 215 376 c 128,-1,40
 215 384 215 384 158 425 c 0,41,42
 150 431 150 431 132 442.5 c 128,-1,43
 114 454 114 454 104 461 c 0,44,45
 77 481 77 481 77 499 c 128,-1,46
 77 517 77 517 89 528.5 c 128,-1,47
 101 540 101 540 118.5 540 c 128,-1,48
 136 540 136 540 149.5 532 c 128,-1,49
 163 524 163 524 181 507 c 128,-1,50
 199 490 199 490 236.5 459.5 c 128,-1,51
 274 429 274 429 290 411 c 128,-1,26
 306 393 306 393 306 376 c 128,-1,27
EndSplineSet
EndChar

StartChar: onequarter
Encoding: 188 188 126
Width: 927
GlyphClass: 2
Flags: W
LayerCount: 2
Fore
SplineSet
276 544 m 1,0,-1
 279 377 l 2,1,2
 279 356 279 356 267.5 343.5 c 128,-1,3
 256 331 256 331 237.5 331 c 128,-1,4
 219 331 219 331 207.5 343.5 c 128,-1,5
 196 356 196 356 196 377 c 2,6,7
 196 377 196 377 199 544 c 2,8,-1
 199 636 l 1,9,10
 182 619 182 619 163.5 598 c 128,-1,11
 145 577 145 577 136 567 c 0,12,13
 113 542 113 542 96 542 c 128,-1,14
 79 542 79 542 67.5 552.5 c 128,-1,15
 56 563 56 563 56 576.5 c 128,-1,16
 56 590 56 590 61 598.5 c 128,-1,17
 66 607 66 607 74 614 c 0,18,19
 114 652 114 652 141 683.5 c 128,-1,20
 168 715 168 715 174.5 722 c 128,-1,21
 181 729 181 729 190 738.5 c 128,-1,22
 199 748 199 748 204 752 c 0,23,24
 218 760 218 760 234 760 c 0,25,26
 279 760 279 760 279 703 c 2,27,-1
 276 544 l 1,0,-1
804 125 m 1,28,-1
 807 40 l 2,29,30
 807 -10 807 -10 767.5 -10 c 128,-1,31
 728 -10 728 -10 728 40 c 2,32,-1
 731 128 l 1,33,-1
 566 126 l 2,34,35
 544 126 544 126 534 137.5 c 128,-1,36
 524 149 524 149 524 163.5 c 128,-1,37
 524 178 524 178 540.5 202.5 c 128,-1,38
 557 227 557 227 597 278 c 128,-1,39
 637 329 637 329 644 338 c 128,-1,40
 651 347 651 347 663 362.5 c 128,-1,41
 675 378 675 378 686 392 c 0,42,43
 718 434 718 434 752 434 c 0,44,45
 775 434 775 434 791 415.5 c 128,-1,46
 807 397 807 397 807 371 c 0,47,48
 807 370 807 370 805.5 312 c 128,-1,49
 804 254 804 254 804 193 c 1,50,51
 808 194 808 194 818 194 c 0,52,53
 866 194 866 194 866 160 c 0,54,55
 866 124 866 124 814 124 c 1,56,-1
 804 125 l 1,28,-1
622 192 m 1,57,-1
 730 192 l 1,58,59
 731 226 731 226 731 332 c 1,60,61
 689 282 689 282 622 192 c 1,57,-1
545 531 m 128,-1,63
 510 442 510 442 485.5 374.5 c 128,-1,64
 461 307 461 307 374 47 c 0,65,66
 363 15 363 15 350.5 2.5 c 128,-1,67
 338 -10 338 -10 321 -10 c 128,-1,68
 304 -10 304 -10 291 1 c 128,-1,69
 278 12 278 12 278 30.5 c 128,-1,70
 278 49 278 49 292.5 89 c 128,-1,71
 307 129 307 129 341.5 216.5 c 128,-1,72
 376 304 376 304 402 375.5 c 128,-1,73
 428 447 428 447 467.5 566.5 c 128,-1,74
 507 686 507 686 515 710 c 0,75,76
 531 760 531 760 569 760 c 0,77,78
 583 760 583 760 596 749 c 128,-1,79
 609 738 609 738 609 719.5 c 128,-1,80
 609 701 609 701 594.5 660.5 c 128,-1,62
 580 620 580 620 545 531 c 128,-1,63
EndSplineSet
EndChar

StartChar: onehalf
Encoding: 189 189 127
Width: 772
GlyphClass: 2
Flags: W
LayerCount: 2
Fore
SplineSet
526 398 m 1,0,-1
 652 404 l 2,1,2
 679 404 679 404 695.5 391 c 128,-1,3
 712 378 712 378 712 353 c 0,4,5
 712 183 712 183 626.5 84 c 128,-1,6
 541 -15 541 -15 401.5 -15 c 128,-1,7
 262 -15 262 -15 167 99 c 128,-1,8
 72 213 72 213 72 376 c 128,-1,9
 72 539 72 539 170 652 c 128,-1,10
 268 765 268 765 418 765 c 0,11,12
 511 765 511 765 587.5 728 c 128,-1,13
 664 691 664 691 664 648 c 0,14,15
 664 629 664 629 652.5 618 c 128,-1,16
 641 607 641 607 618.5 607 c 128,-1,17
 596 607 596 607 558 634 c 0,18,19
 497 678 497 678 418 678 c 0,20,21
 310 678 310 678 239 589 c 128,-1,22
 168 500 168 500 168 377.5 c 128,-1,23
 168 255 168 255 236 163.5 c 128,-1,24
 304 72 304 72 407 72 c 0,25,26
 492 72 492 72 549 135 c 128,-1,27
 606 198 606 198 610 314 c 1,28,29
 577 317 577 317 526 317 c 2,30,-1
 391 312 l 2,31,32
 364 312 364 312 349 324 c 128,-1,33
 334 336 334 336 334 356.5 c 128,-1,34
 334 377 334 377 349 390 c 128,-1,35
 364 403 364 403 391 403 c 2,36,-1
 526 398 l 1,0,-1
EndSplineSet
EndChar

StartChar: Aacute
Encoding: 193 193 129
Width: 696
GlyphClass: 2
Flags: W
LayerCount: 2
Fore
SplineSet
237 450 m 1,0,-1
 458 453 l 2,1,2
 480 453 480 453 493.5 442 c 128,-1,3
 507 431 507 431 507 413 c 128,-1,4
 507 395 507 395 493.5 384 c 128,-1,5
 480 373 480 373 458 373 c 2,6,-1
 287 376 l 1,7,-1
 115 373 l 2,8,9
 93 373 93 373 79.5 384 c 128,-1,10
 66 395 66 395 66 413 c 128,-1,11
 66 431 66 431 79.5 442 c 128,-1,12
 93 453 93 453 115 453 c 2,13,-1
 151 452 l 1,14,15
 173 567 173 567 244 639.5 c 128,-1,16
 315 712 315 712 420 712 c 0,17,18
 497 712 497 712 551.5 679.5 c 128,-1,19
 606 647 606 647 606 610 c 0,20,21
 606 596 606 596 596 584.5 c 128,-1,22
 586 573 586 573 568.5 573 c 128,-1,23
 551 573 551 573 538 581.5 c 128,-1,24
 525 590 525 590 514.5 599.5 c 128,-1,25
 504 609 504 609 479 617.5 c 128,-1,26
 454 626 454 626 420 626 c 0,27,28
 347 626 347 626 300 578.5 c 128,-1,29
 253 531 253 531 237 450 c 1,0,-1
288 321 m 1,30,-1
 459 324 l 2,31,32
 481 324 481 324 494.5 313 c 128,-1,33
 508 302 508 302 508 284 c 128,-1,34
 508 266 508 266 494.5 255 c 128,-1,35
 481 244 481 244 456 244 c 128,-1,36
 431 244 431 244 362.5 245.5 c 128,-1,37
 294 247 294 247 238 247 c 1,38,39
 254 166 254 166 301 118.5 c 128,-1,40
 348 71 348 71 421 71 c 0,41,42
 486 71 486 71 534 111 c 0,43,44
 549 124 549 124 568 124 c 128,-1,45
 587 124 587 124 597 112.5 c 128,-1,46
 607 101 607 101 607 87 c 0,47,48
 607 50 607 50 552.5 17.5 c 128,-1,49
 498 -15 498 -15 421 -15 c 0,50,51
 316 -15 316 -15 245 57.5 c 128,-1,52
 174 130 174 130 152 245 c 1,53,-1
 116 244 l 2,54,55
 94 244 94 244 80.5 255 c 128,-1,56
 67 266 67 266 67 284 c 128,-1,57
 67 302 67 302 80.5 313 c 128,-1,58
 94 324 94 324 116 324 c 2,59,-1
 288 321 l 1,30,-1
EndSplineSet
EndChar

StartChar: Acircumflex
Encoding: 194 194 130
Width: 876
GlyphClass: 2
Flags: W
LayerCount: 2
Fore
SplineSet
216 0 m 1,0,-1
 99 -6 l 2,1,2
 73 -6 73 -6 58 6.5 c 128,-1,3
 43 19 43 19 43 39.5 c 128,-1,4
 43 60 43 60 58 72.5 c 128,-1,5
 73 85 73 85 97 85 c 128,-1,6
 121 85 121 85 168 82.5 c 128,-1,7
 215 80 215 80 242 80 c 1,8,9
 118 217 118 217 118 375 c 0,10,11
 118 513 118 513 213.5 613 c 128,-1,12
 309 713 309 713 439 713 c 128,-1,13
 569 713 569 713 664 614.5 c 128,-1,14
 759 516 759 516 759 378 c 0,15,16
 759 216 759 216 635 79 c 1,17,-1
 778 84 l 2,18,19
 804 84 804 84 819 71.5 c 128,-1,20
 834 59 834 59 834 38.5 c 128,-1,21
 834 18 834 18 819 5.5 c 128,-1,22
 804 -7 804 -7 778 -7 c 2,23,-1
 661 -1 l 1,24,-1
 554 -7 l 2,25,26
 528 -7 528 -7 511 5.5 c 128,-1,27
 494 18 494 18 494 41 c 128,-1,28
 494 64 494 64 523 79 c 0,29,30
 582 114 582 114 623 201.5 c 128,-1,31
 664 289 664 289 664 385.5 c 128,-1,32
 664 482 664 482 600.5 554 c 128,-1,33
 537 626 537 626 439.5 626 c 128,-1,34
 342 626 342 626 277.5 552.5 c 128,-1,35
 213 479 213 479 213 381.5 c 128,-1,36
 213 284 213 284 253 198.5 c 128,-1,37
 293 113 293 113 354 80 c 0,38,39
 383 65 383 65 383 42 c 128,-1,40
 383 19 383 19 366 6.5 c 128,-1,41
 349 -6 349 -6 323 -6 c 2,42,-1
 216 0 l 1,0,-1
EndSplineSet
EndChar

StartChar: Atilde
Encoding: 195 195 131
Width: 871
GlyphClass: 2
Flags: W
LayerCount: 2
Fore
SplineSet
595 360 m 1,0,-1
 591 688 l 2,1,2
 591 757 591 757 642 757 c 0,3,4
 704 757 704 757 704 655 c 128,-1,5
 704 553 704 553 677 360 c 1,6,7
 677 250 677 250 691.5 173.5 c 128,-1,8
 706 97 706 97 727 88 c 0,9,10
 735 84 735 84 746.5 82.5 c 128,-1,11
 758 81 758 81 763 78 c 128,-1,12
 768 75 768 75 768 67 c 0,13,14
 768 30 768 30 746 7.5 c 128,-1,15
 724 -15 724 -15 690 -15 c 0,16,17
 646 -15 646 -15 625 35 c 128,-1,18
 604 85 604 85 604 164 c 1,19,20
 584 127 584 127 571 107 c 128,-1,21
 558 87 558 87 529 53 c 0,22,23
 471 -15 471 -15 380 -15 c 0,24,25
 345 -15 345 -15 298 3.5 c 128,-1,26
 251 22 251 22 223 51 c 1,27,28
 225 -9 225 -9 225 -12 c 0,29,30
 225 -83 225 -83 174 -83 c 128,-1,31
 123 -83 123 -83 123 -12 c 0,32,33
 123 -2 123 -2 124 52 c 0,34,35
 128 178 128 178 128 317.5 c 128,-1,36
 128 457 128 457 126.5 527.5 c 128,-1,37
 125 598 125 598 123.5 640.5 c 128,-1,38
 122 683 122 683 122 691 c 0,39,40
 122 762 122 762 173 762 c 128,-1,41
 224 762 224 762 224 691 c 0,42,43
 224 685 224 685 222 638 c 0,44,45
 218 499 218 499 218 307 c 0,46,47
 218 211 218 211 271.5 141.5 c 128,-1,48
 325 72 325 72 388.5 72 c 128,-1,49
 452 72 452 72 510.5 159 c 128,-1,50
 569 246 569 246 595 360 c 1,0,-1
EndSplineSet
EndChar

StartChar: Aring
Encoding: 197 197 133
Width: 692
GlyphClass: 2
Flags: W
LayerCount: 2
Fore
SplineSet
476 241 m 1,0,-1
 347 244 l 2,1,2
 251 244 251 244 207 242 c 1,3,4
 196 209 196 209 175.5 138.5 c 128,-1,5
 155 68 155 68 142 29 c 128,-1,6
 129 -10 129 -10 96 -10 c 0,7,8
 77 -10 77 -10 65.5 2 c 128,-1,9
 54 14 54 14 54 28.5 c 128,-1,10
 54 43 54 43 55.5 52 c 128,-1,11
 57 61 57 61 62.5 79 c 128,-1,12
 68 97 68 97 74 113 c 0,13,14
 103 199 103 199 116 239 c 1,15,16
 87 239 87 239 70.5 251.5 c 128,-1,17
 54 264 54 264 54 285 c 0,18,19
 54 332 54 332 128 332 c 2,20,-1
 146 332 l 1,21,22
 242 600 242 600 256.5 638.5 c 128,-1,23
 271 677 271 677 273 683 c 128,-1,24
 275 689 275 689 279.5 700.5 c 128,-1,25
 284 712 284 712 287.5 717.5 c 128,-1,26
 291 723 291 723 296 731 c 128,-1,27
 301 739 301 739 305.5 743.5 c 128,-1,28
 310 748 310 748 316 752 c 0,29,30
 329 760 329 760 343.5 760 c 128,-1,31
 358 760 358 760 367 757 c 128,-1,32
 376 754 376 754 384 746 c 128,-1,33
 392 738 392 738 397.5 729 c 128,-1,34
 403 720 403 720 410.5 701 c 128,-1,35
 418 682 418 682 424 666 c 0,36,37
 472 519 472 519 544 332 c 1,38,-1
 580 333 l 2,39,40
 606 333 606 333 622.5 319 c 128,-1,41
 639 305 639 305 639 284 c 0,42,43
 639 240 639 240 573 237 c 1,44,45
 583 205 583 205 600 156 c 0,46,47
 639 50 639 50 639 33.5 c 128,-1,48
 639 17 639 17 627.5 3.5 c 128,-1,49
 616 -10 616 -10 596 -10 c 0,50,51
 560 -10 560 -10 544 29 c 0,52,53
 527 78 527 78 476 241 c 1,0,-1
232 328 m 1,54,55
 296 326 296 326 355.5 326 c 128,-1,56
 415 326 415 326 451 328 c 1,57,58
 346 630 346 630 344 630 c 0,59,60
 338 630 338 630 258 404 c 2,61,-1
 232 328 l 1,54,55
419.5 986 m 128,-1,63
 449 956 449 956 449 913.5 c 128,-1,64
 449 871 449 871 420.5 843 c 128,-1,65
 392 815 392 815 346 815 c 128,-1,66
 300 815 300 815 271.5 843 c 128,-1,67
 243 871 243 871 243 914 c 128,-1,68
 243 957 243 957 272.5 986.5 c 128,-1,69
 302 1016 302 1016 346 1016 c 128,-1,62
 390 1016 390 1016 419.5 986 c 128,-1,63
384 914 m 128,-1,71
 384 929 384 929 372 942 c 128,-1,72
 360 955 360 955 345.5 955 c 128,-1,73
 331 955 331 955 319.5 942.5 c 128,-1,74
 308 930 308 930 308 914.5 c 128,-1,75
 308 899 308 899 319 887 c 128,-1,76
 330 875 330 875 345.5 875 c 128,-1,77
 361 875 361 875 372.5 887 c 128,-1,70
 384 899 384 899 384 914 c 128,-1,71
EndSplineSet
EndChar

StartChar: AE
Encoding: 198 198 134
Width: 692
GlyphClass: 2
Flags: W
LayerCount: 2
Fore
SplineSet
476 241 m 1,0,-1
 347 244 l 2,1,2
 251 244 251 244 207 242 c 1,3,4
 196 209 196 209 175.5 138.5 c 128,-1,5
 155 68 155 68 142 29 c 128,-1,6
 129 -10 129 -10 96 -10 c 0,7,8
 77 -10 77 -10 65.5 2 c 128,-1,9
 54 14 54 14 54 28.5 c 128,-1,10
 54 43 54 43 55.5 52 c 128,-1,11
 57 61 57 61 62.5 79 c 128,-1,12
 68 97 68 97 74 113 c 0,13,14
 103 199 103 199 116 239 c 1,15,16
 87 239 87 239 70.5 251.5 c 128,-1,17
 54 264 54 264 54 285 c 0,18,19
 54 332 54 332 128 332 c 2,20,-1
 146 332 l 1,21,22
 242 600 242 600 256.5 638.5 c 128,-1,23
 271 677 271 677 273 683 c 128,-1,24
 275 689 275 689 279.5 700.5 c 128,-1,25
 284 712 284 712 287.5 717.5 c 128,-1,26
 291 723 291 723 296 731 c 128,-1,27
 301 739 301 739 305.5 743.5 c 128,-1,28
 310 748 310 748 316 752 c 0,29,30
 329 760 329 760 343.5 760 c 128,-1,31
 358 760 358 760 367 757 c 128,-1,32
 376 754 376 754 384 746 c 128,-1,33
 392 738 392 738 397.5 729 c 128,-1,34
 403 720 403 720 410.5 701 c 128,-1,35
 418 682 418 682 424 666 c 0,36,37
 472 519 472 519 544 332 c 1,38,-1
 580 333 l 2,39,40
 606 333 606 333 622.5 319 c 128,-1,41
 639 305 639 305 639 284 c 0,42,43
 639 240 639 240 573 237 c 1,44,45
 583 205 583 205 600 156 c 0,46,47
 639 50 639 50 639 33.5 c 128,-1,48
 639 17 639 17 627.5 3.5 c 128,-1,49
 616 -10 616 -10 596 -10 c 0,50,51
 560 -10 560 -10 544 29 c 0,52,53
 527 78 527 78 476 241 c 1,0,-1
232 328 m 1,54,55
 296 326 296 326 355.5 326 c 128,-1,56
 415 326 415 326 451 328 c 1,57,58
 346 630 346 630 344 630 c 0,59,60
 338 630 338 630 258 404 c 2,61,-1
 232 328 l 1,54,55
EndSplineSet
EndChar

StartChar: Ccedilla
Encoding: 199 199 135
Width: 708
GlyphClass: 2
Flags: W
LayerCount: 2
Fore
SplineSet
515 -133 m 0,0,1
 515 -175 515 -175 477.5 -202.5 c 128,-1,2
 440 -230 440 -230 388 -230 c 128,-1,3
 336 -230 336 -230 304.5 -205.5 c 128,-1,4
 273 -181 273 -181 273 -155 c 0,5,6
 273 -146 273 -146 280.5 -138 c 128,-1,7
 288 -130 288 -130 299.5 -130 c 128,-1,8
 311 -130 311 -130 336.5 -142 c 128,-1,9
 362 -154 362 -154 381 -154 c 128,-1,10
 400 -154 400 -154 412 -147 c 128,-1,11
 424 -140 424 -140 424 -131 c 128,-1,12
 424 -122 424 -122 409.5 -111.5 c 128,-1,13
 395 -101 395 -101 378 -90.5 c 128,-1,14
 361 -80 361 -80 346 -57.5 c 128,-1,15
 331 -35 331 -35 331 -6 c 1,16,17
 215 22 215 22 143.5 128.5 c 128,-1,18
 72 235 72 235 72 376 c 0,19,20
 72 539 72 539 167.5 652 c 128,-1,21
 263 765 263 765 407 765 c 0,22,23
 495 765 495 765 564.5 732 c 128,-1,24
 634 699 634 699 634 658 c 0,25,26
 634 638 634 638 622 626 c 128,-1,27
 610 614 610 614 590.5 614 c 128,-1,28
 571 614 571 614 535 637 c 0,29,30
 477 678 477 678 407 678 c 0,31,32
 303 678 303 678 235.5 588.5 c 128,-1,33
 168 499 168 499 168 376.5 c 128,-1,34
 168 254 168 254 235.5 163 c 128,-1,35
 303 72 303 72 401 72 c 128,-1,36
 499 72 499 72 580 121 c 0,37,38
 613 139 613 139 624.5 139 c 128,-1,39
 636 139 636 139 645.5 129.5 c 128,-1,40
 655 120 655 120 655 106 c 0,41,42
 655 71 655 71 583 29 c 128,-1,43
 511 -13 511 -13 412 -15 c 1,44,45
 415 -32 415 -32 441 -49 c 128,-1,46
 467 -66 467 -66 491 -86 c 128,-1,47
 515 -106 515 -106 515 -133 c 0,0,1
EndSplineSet
EndChar

StartChar: Ecircumflex
Encoding: 202 202 138
Width: 639
GlyphClass: 2
Flags: W
LayerCount: 2
Fore
SplineSet
463 445 m 2,0,-1
 284 440 l 2,1,2
 237 440 237 440 218 441 c 1,3,-1
 218 663 l 1,4,5
 278 668 278 668 355 668 c 2,6,-1
 514 662 l 2,7,8
 541 662 541 662 557.5 674.5 c 128,-1,9
 574 687 574 687 574 709 c 128,-1,10
 574 731 574 731 557.5 743.5 c 128,-1,11
 541 756 541 756 514 756 c 2,12,-1
 355 750 l 1,13,-1
 171 755 l 2,14,15
 109 755 109 755 109 710 c 0,16,17
 109 689 109 689 121 670 c 1,18,19
 126 632 126 632 128 445 c 1,20,21
 99 445 99 445 80 433.5 c 128,-1,22
 61 422 61 422 61 399 c 0,23,24
 61 355 61 355 128 355 c 1,25,26
 128 235 128 235 125.5 155.5 c 128,-1,27
 123 76 123 76 123 41 c 0,28,29
 123 -5 123 -5 177 -5 c 2,30,-1
 358 0 l 1,31,-1
 517 -6 l 2,32,33
 544 -6 544 -6 560.5 6.5 c 128,-1,34
 577 19 577 19 577 41 c 128,-1,35
 577 63 577 63 560.5 75.5 c 128,-1,36
 544 88 544 88 517 88 c 2,37,-1
 358 82 l 2,38,39
 282 82 282 82 222 87 c 1,40,41
 218 133 218 133 218 279 c 2,42,-1
 218 358 l 1,43,44
 241 359 241 359 284 359 c 2,45,-1
 463 355 l 2,46,47
 522 355 522 355 522 399 c 0,48,49
 522 420 522 420 506 432.5 c 128,-1,50
 490 445 490 445 463 445 c 2,0,-1
415 842 m 0,51,52
 346 923 346 923 332 923 c 0,53,54
 316 923 316 923 252 846 c 0,55,56
 247 840 247 840 244 838 c 2,57,-1
 237 830 l 2,58,59
 224 817 224 817 206.5 817 c 128,-1,60
 189 817 189 817 178 827.5 c 128,-1,61
 167 838 167 838 167 856.5 c 128,-1,62
 167 875 167 875 193 896.5 c 128,-1,63
 219 918 219 918 245.5 948 c 128,-1,64
 272 978 272 978 291 994 c 128,-1,65
 310 1010 310 1010 331.5 1010 c 128,-1,66
 353 1010 353 1010 372.5 994 c 128,-1,67
 392 978 392 978 418 948 c 128,-1,68
 444 918 444 918 470.5 896 c 128,-1,69
 497 874 497 874 497 856 c 128,-1,70
 497 838 497 838 486 827.5 c 128,-1,71
 475 817 475 817 462 817 c 128,-1,72
 449 817 449 817 440 822 c 0,73,74
 427 829 427 829 415 842 c 0,51,52
EndSplineSet
EndChar

StartChar: Iacute
Encoding: 205 205 141
Width: 502
GlyphClass: 2
Flags: W
LayerCount: 2
Fore
SplineSet
390 661 m 2,0,-1
 300 665 l 1,1,2
 296 568 296 568 296 386.5 c 128,-1,3
 296 205 296 205 301 83 c 1,4,-1
 390 88 l 2,5,6
 417 88 417 88 433.5 75.5 c 128,-1,7
 450 63 450 63 450 41 c 128,-1,8
 450 19 450 19 433.5 6.5 c 128,-1,9
 417 -6 417 -6 390 -6 c 2,10,11
 390 -6 390 -6 251 0 c 1,12,13
 251 0 251 0 112 -7 c 0,14,15
 85 -7 85 -7 68.5 5.5 c 128,-1,16
 52 18 52 18 52 40 c 128,-1,17
 52 62 52 62 68.5 74.5 c 128,-1,18
 85 87 85 87 112 87 c 2,19,-1
 201 82 l 1,20,21
 206 204 206 204 206 386 c 128,-1,22
 206 568 206 568 202 665 c 1,23,-1
 112 661 l 2,24,25
 85 661 85 661 68.5 673.5 c 128,-1,26
 52 686 52 686 52 708 c 128,-1,27
 52 730 52 730 68.5 742.5 c 128,-1,28
 85 755 85 755 112 755 c 2,29,-1
 251 750 l 1,30,-1
 390 756 l 2,31,32
 417 756 417 756 433.5 743.5 c 128,-1,33
 450 731 450 731 450 709 c 128,-1,34
 450 687 450 687 433.5 674 c 128,-1,35
 417 661 417 661 390 661 c 2,0,-1
360 946 m 0,36,37
 360 902 360 902 312.5 857.5 c 128,-1,38
 265 813 265 813 233 813 c 0,39,40
 217 813 217 813 208.5 821 c 128,-1,41
 200 829 200 829 200 841 c 128,-1,42
 200 853 200 853 224 882.5 c 128,-1,43
 248 912 248 912 257 932 c 128,-1,44
 266 952 266 952 271.5 961.5 c 128,-1,45
 277 971 277 971 289.5 980.5 c 128,-1,46
 302 990 302 990 319.5 990 c 128,-1,47
 337 990 337 990 348.5 976.5 c 128,-1,48
 360 963 360 963 360 946 c 0,36,37
EndSplineSet
EndChar

StartChar: Icircumflex
Encoding: 206 206 142
Width: 486
GlyphClass: 2
Flags: W
LayerCount: 2
Fore
SplineSet
374 661 m 2,0,-1
 292 665 l 1,1,2
 288 568 288 568 288 386.5 c 128,-1,3
 288 205 288 205 293 83 c 1,4,-1
 374 87 l 2,5,6
 401 87 401 87 417.5 74.5 c 128,-1,7
 434 62 434 62 434 40.5 c 128,-1,8
 434 19 434 19 417.5 6.5 c 128,-1,9
 401 -6 401 -6 374 -6 c 2,10,-1
 243 0 l 1,11,-1
 112 -6 l 2,12,13
 85 -6 85 -6 68.5 6.5 c 128,-1,14
 52 19 52 19 52 40.5 c 128,-1,15
 52 62 52 62 68.5 74.5 c 128,-1,16
 85 87 85 87 112 87 c 2,17,-1
 193 82 l 1,18,19
 198 204 198 204 198 386 c 128,-1,20
 198 568 198 568 194 665 c 1,21,-1
 112 661 l 2,22,23
 85 661 85 661 68.5 674 c 128,-1,24
 52 687 52 687 52 709 c 128,-1,25
 52 731 52 731 68.5 743.5 c 128,-1,26
 85 756 85 756 112 756 c 2,27,-1
 243 750 l 1,28,-1
 374 756 l 2,29,30
 401 756 401 756 417.5 743.5 c 128,-1,31
 434 731 434 731 434 709 c 128,-1,32
 434 687 434 687 417.5 674 c 128,-1,33
 401 661 401 661 374 661 c 2,0,-1
329 842 m 0,34,35
 260 923 260 923 246 923 c 0,36,37
 230 923 230 923 166 846 c 0,38,39
 161 840 161 840 158 838 c 2,40,-1
 151 830 l 2,41,42
 138 817 138 817 120.5 817 c 128,-1,43
 103 817 103 817 92 827.5 c 128,-1,44
 81 838 81 838 81 856.5 c 128,-1,45
 81 875 81 875 107 896.5 c 128,-1,46
 133 918 133 918 159.5 948 c 128,-1,47
 186 978 186 978 205 994 c 128,-1,48
 224 1010 224 1010 245.5 1010 c 128,-1,49
 267 1010 267 1010 286.5 994 c 128,-1,50
 306 978 306 978 332 948 c 128,-1,51
 358 918 358 918 384.5 896 c 128,-1,52
 411 874 411 874 411 856 c 128,-1,53
 411 838 411 838 400 827.5 c 128,-1,54
 389 817 389 817 376 817 c 128,-1,55
 363 817 363 817 354 822 c 0,56,57
 341 829 341 829 329 842 c 0,34,35
EndSplineSet
EndChar

StartChar: Eth
Encoding: 208 208 144
Width: 770
GlyphClass: 2
Flags: W
LayerCount: 2
Fore
SplineSet
138 411 m 1,0,-1
 133 636 l 1,1,2
 89 640 89 640 89 677.5 c 128,-1,3
 89 715 89 715 168 739.5 c 128,-1,4
 247 764 247 764 331.5 764 c 128,-1,5
 416 764 416 764 489 731 c 128,-1,6
 562 698 562 698 606 642 c 0,7,8
 697 528 697 528 697 372 c 0,9,10
 697 220 697 220 610 108 c 0,11,12
 567 52 567 52 496 18.5 c 128,-1,13
 425 -15 425 -15 327 -15 c 128,-1,14
 229 -15 229 -15 157 10 c 128,-1,15
 85 35 85 35 85 74 c 0,16,17
 85 111 85 111 135 111 c 1,18,-1
 138 334 l 1,19,20
 118 333 118 333 82.5 333 c 128,-1,21
 47 333 47 333 33.5 344 c 128,-1,22
 20 355 20 355 20 373 c 128,-1,23
 20 391 20 391 33.5 402 c 128,-1,24
 47 413 47 413 72.5 413 c 128,-1,25
 98 413 98 413 138 411 c 1,0,-1
232 661 m 1,26,27
 229 606 229 606 229 411 c 1,28,29
 273 413 273 413 301 413 c 128,-1,30
 329 413 329 413 342.5 402 c 128,-1,31
 356 391 356 391 356 373 c 128,-1,32
 356 355 356 355 342.5 344 c 128,-1,33
 329 333 329 333 301 333 c 128,-1,34
 273 333 273 333 229 335 c 1,35,36
 229 170 229 170 234 85 c 1,37,38
 270 72 270 72 335 72 c 128,-1,39
 400 72 400 72 452.5 98 c 128,-1,40
 505 124 505 124 536 168 c 0,41,42
 601 258 601 258 601 379.5 c 128,-1,43
 601 501 601 501 529.5 589.5 c 128,-1,44
 458 678 458 678 323 678 c 0,45,46
 266 678 266 678 232 661 c 1,26,27
EndSplineSet
EndChar

StartChar: Ocircumflex
Encoding: 212 212 148
Width: 824
GlyphClass: 2
Flags: W
LayerCount: 2
Fore
SplineSet
586.5 164 m 128,-1,1
 656 256 656 256 656 377 c 128,-1,2
 656 498 656 498 587 588.5 c 128,-1,3
 518 679 518 679 412.5 679 c 128,-1,4
 307 679 307 679 237.5 588.5 c 128,-1,5
 168 498 168 498 168 377.5 c 128,-1,6
 168 257 168 257 238 164.5 c 128,-1,7
 308 72 308 72 412.5 72 c 128,-1,0
 517 72 517 72 586.5 164 c 128,-1,1
752 376 m 128,-1,9
 752 213 752 213 654.5 99 c 128,-1,10
 557 -15 557 -15 411.5 -15 c 128,-1,11
 266 -15 266 -15 169 99 c 128,-1,12
 72 213 72 213 72 376 c 128,-1,13
 72 539 72 539 170 652 c 128,-1,14
 268 765 268 765 413.5 765 c 128,-1,15
 559 765 559 765 655.5 652 c 128,-1,8
 752 539 752 539 752 376 c 128,-1,9
498 842 m 0,16,17
 429 923 429 923 414 923 c 256,18,19
 399 923 399 923 335 846 c 0,20,21
 330 840 330 840 328 838 c 2,22,-1
 320 830 l 2,23,24
 307 817 307 817 289.5 817 c 128,-1,25
 272 817 272 817 261 827.5 c 128,-1,26
 250 838 250 838 250 856.5 c 128,-1,27
 250 875 250 875 276 896.5 c 128,-1,28
 302 918 302 918 328.5 948 c 128,-1,29
 355 978 355 978 374 994 c 128,-1,30
 393 1010 393 1010 414.5 1010 c 128,-1,31
 436 1010 436 1010 455.5 994 c 128,-1,32
 475 978 475 978 501 948 c 128,-1,33
 527 918 527 918 553.5 896 c 128,-1,34
 580 874 580 874 580 856 c 128,-1,35
 580 838 580 838 569 827.5 c 128,-1,36
 558 817 558 817 545 817 c 128,-1,37
 532 817 532 817 524 822 c 0,38,39
 510 829 510 829 498 842 c 0,16,17
EndSplineSet
EndChar

StartChar: Odieresis
Encoding: 214 214 150
Width: 824
GlyphClass: 2
Flags: W
LayerCount: 2
Fore
SplineSet
586.5 164 m 128,-1,1
 656 256 656 256 656 377 c 128,-1,2
 656 498 656 498 587 588.5 c 128,-1,3
 518 679 518 679 412.5 679 c 128,-1,4
 307 679 307 679 237.5 588.5 c 128,-1,5
 168 498 168 498 168 377.5 c 128,-1,6
 168 257 168 257 238 164.5 c 128,-1,7
 308 72 308 72 412.5 72 c 128,-1,0
 517 72 517 72 586.5 164 c 128,-1,1
752 376 m 128,-1,9
 752 213 752 213 654.5 99 c 128,-1,10
 557 -15 557 -15 411.5 -15 c 128,-1,11
 266 -15 266 -15 169 99 c 128,-1,12
 72 213 72 213 72 376 c 128,-1,13
 72 539 72 539 170 652 c 128,-1,14
 268 765 268 765 413.5 765 c 128,-1,15
 559 765 559 765 655.5 652 c 128,-1,8
 752 539 752 539 752 376 c 128,-1,9
551.5 950 m 128,-1,17
 565 933 565 933 565 907 c 128,-1,18
 565 881 565 881 548 859.5 c 128,-1,19
 531 838 531 838 506.5 838 c 128,-1,20
 482 838 482 838 468 856 c 128,-1,21
 454 874 454 874 454 900 c 128,-1,22
 454 926 454 926 470.5 946.5 c 128,-1,23
 487 967 487 967 512.5 967 c 128,-1,16
 538 967 538 967 551.5 950 c 128,-1,17
356.5 950 m 128,-1,25
 370 933 370 933 370 907 c 128,-1,26
 370 881 370 881 353 859.5 c 128,-1,27
 336 838 336 838 311.5 838 c 128,-1,28
 287 838 287 838 273 856 c 128,-1,29
 259 874 259 874 259 900 c 128,-1,30
 259 926 259 926 275.5 946.5 c 128,-1,31
 292 967 292 967 317.5 967 c 128,-1,24
 343 967 343 967 356.5 950 c 128,-1,25
EndSplineSet
EndChar

StartChar: multiply
Encoding: 215 215 151
Width: 573
GlyphClass: 2
Flags: W
LayerCount: 2
Fore
SplineSet
286 322 m 1,0,1
 283 319 283 319 243.5 282.5 c 128,-1,2
 204 246 204 246 161 203 c 0,3,4
 145 187 145 187 127 187 c 128,-1,5
 109 187 109 187 97 199 c 128,-1,6
 85 211 85 211 85 227.5 c 128,-1,7
 85 244 85 244 105.5 264 c 128,-1,8
 126 284 126 284 170.5 321.5 c 128,-1,9
 215 359 215 359 233 376 c 1,10,11
 215 393 215 393 172 428 c 128,-1,12
 129 463 129 463 108 483.5 c 128,-1,13
 87 504 87 504 87 522 c 128,-1,14
 87 540 87 540 99.5 551.5 c 128,-1,15
 112 563 112 563 129 563 c 128,-1,16
 146 563 146 563 167 545 c 128,-1,17
 188 527 188 527 227.5 488 c 128,-1,18
 267 449 267 449 286 432 c 1,19,20
 301 445 301 445 341.5 485.5 c 128,-1,21
 382 526 382 526 403.5 545 c 128,-1,22
 425 564 425 564 442 564 c 128,-1,23
 459 564 459 564 471.5 552.5 c 128,-1,24
 484 541 484 541 484 523 c 128,-1,25
 484 505 484 505 463 485 c 128,-1,26
 442 465 442 465 400 430 c 128,-1,27
 358 395 358 395 339 377 c 1,28,29
 356 361 356 361 400.5 323.5 c 128,-1,30
 445 286 445 286 472 261 c 0,31,32
 488 245 488 245 488 228.5 c 128,-1,33
 488 212 488 212 476 200 c 128,-1,34
 464 188 464 188 446 188 c 128,-1,35
 428 188 428 188 412 204 c 0,36,37
 359 257 359 257 286 322 c 1,0,1
EndSplineSet
EndChar

StartChar: Oslash
Encoding: 216 216 152
Width: 824
GlyphClass: 2
Flags: W
LayerCount: 2
Fore
SplineSet
656 376 m 0,0,1
 656 464 656 464 618 539 c 128,-1,2
 580 614 580 614 516 651 c 1,3,4
 431 329 431 329 376 75 c 1,5,6
 392 72 392 72 412 72 c 0,7,8
 517 72 517 72 586.5 164 c 128,-1,9
 656 256 656 256 656 376 c 0,0,1
429 678 m 1,10,-1
 412 679 l 1,11,12
 307 679 307 679 237.5 588.5 c 128,-1,13
 168 498 168 498 168 376 c 0,14,15
 168 297 168 297 201 225 c 128,-1,16
 234 153 234 153 291 112 c 1,17,18
 327 224 327 224 429 678 c 1,10,-1
752 376 m 0,19,20
 752 213 752 213 654.5 99 c 128,-1,21
 557 -15 557 -15 411 -15 c 0,22,23
 393 -15 393 -15 357 -11 c 1,24,25
 339 -84 339 -84 298 -84 c 0,26,27
 279 -84 279 -84 267.5 -70 c 128,-1,28
 256 -56 256 -56 256 -33.5 c 128,-1,29
 256 -11 256 -11 267 20 c 1,30,31
 178 66 178 66 125 162 c 128,-1,32
 72 258 72 258 72 376 c 0,33,34
 72 539 72 539 170 652 c 128,-1,35
 268 765 268 765 413 765 c 0,36,37
 425 765 425 765 447 763 c 1,38,39
 457 803 457 803 470 819 c 128,-1,40
 483 835 483 835 504 835 c 128,-1,41
 525 835 525 835 536.5 821 c 128,-1,42
 548 807 548 807 548 787 c 128,-1,43
 548 767 548 767 538 739 c 1,44,45
 635 697 635 697 693.5 598 c 128,-1,46
 752 499 752 499 752 376 c 0,19,20
EndSplineSet
EndChar

StartChar: Uacute
Encoding: 218 218 154
Width: 872
GlyphClass: 2
Flags: W
LayerCount: 2
Fore
SplineSet
777.59375 87.3125 m 4,0,1
 803.446289062 87.017578125 803.446289062 87.017578125 819.577148438 73.265625 c 4,2,3
 835.078125 59.587890625 835.078125 59.587890625 835.536132812 36.7470703125 c 4,4,5
 835.470703125 14.578125 835.470703125 14.578125 819.495117188 0.2646484375 c 4,6,7
 803.081054688 -13.986328125 803.081054688 -13.986328125 786.48046875 -13.6982421875 c 4,8,9
 769.083984375 -13.52734375 769.083984375 -13.52734375 721.481445312 -12.6240234375 c 4,10,11
 609.139648438 -8.365234375 609.139648438 -8.365234375 479.985351562 -8.3525390625 c 4,12,13
 350.123046875 -7.865234375 350.123046875 -7.865234375 240.983398438 -10.5849609375 c 4,14,15
 131.034179688 -12.9052734375 131.034179688 -12.9052734375 128.479492188 -12.95703125 c 4,16,17
 99.037109375 -12.4736328125 99.037109375 -12.4736328125 82.4970703125 1.595703125 c 4,18,19
 65.4189453125 15.9833984375 65.4189453125 15.9833984375 65.53515625 37.1142578125 c 4,20,21
 65.111328125 66.7802734375 65.111328125 66.7802734375 104.591796875 87.0703125 c 6,22,-1
 584.166992188 333.52734375 l 5,23,24
 353.663085938 476.130859375 353.663085938 476.130859375 142.841796875 570.022460938 c 4,25,26
 94.2001953125 591.647460938 94.2001953125 591.647460938 80.3798828125 604.092773438 c 4,27,28
 66.52734375 616.0234375 66.52734375 616.0234375 66.9189453125 638.608398438 c 132,-1,29
 67.134765625 661.01953125 67.134765625 661.01953125 83.4599609375 675.58984375 c 4,30,31
 99.5244140625 689.583984375 99.5244140625 689.583984375 129.977539062 690.037109375 c 5,32,33
 156.46484375 684.814453125 156.46484375 684.814453125 356.971679688 684.78125 c 4,34,35
 557.49609375 684.395507812 557.49609375 684.395507812 666.974609375 687.432617188 c 4,36,37
 775.59765625 690.44921875 775.59765625 690.44921875 778.977539062 690.306640625 c 4,38,39
 804.594726562 690.057617188 804.594726562 690.057617188 820.962890625 676.259765625 c 132,-1,40
 837.2265625 662.61328125 837.2265625 662.61328125 836.921875 639.7421875 c 4,41,42
 836.619140625 617.618164062 836.619140625 617.618164062 820.880859375 603.258789062 c 132,-1,43
 805.229492188 589.0390625 805.229492188 589.0390625 787.364257812 589.297851562 c 4,44,45
 770.233398438 589.512695312 770.233398438 589.512695312 722.866210938 590.370117188 c 4,46,47
 544.82421875 596.569335938 544.82421875 596.569335938 454.873046875 596.670898438 c 6,48,-1
 301.872070312 596.84375 l 5,49,-1
 682.22265625 382.41796875 l 6,50,51
 717.169921875 363.208984375 717.169921875 363.208984375 717.170898438 336.37890625 c 4,52,53
 717.458007812 309.842773438 717.458007812 309.842773438 680.118164062 289.419921875 c 6,54,-1
 300.586914062 81.8486328125 l 5,55,-1
 453.5859375 81.6767578125 l 6,56,57
 578.344726562 81.05859375 578.344726562 81.05859375 665.58984375 84.4384765625 c 4,58,59
 774.44921875 87.4091796875 774.44921875 87.4091796875 777.59375 87.3125 c 4,0,1
EndSplineSet
EndChar

StartChar: Ucircumflex
Encoding: 219 219 155
Width: 604
GlyphClass: 2
Flags: W
LayerCount: 2
Fore
SplineSet
351 700 m 6,0,-1
 350 12 l 5,1,2
 326 -10 326 -10 305.5 -10 c 128,-1,3
 285 -10 285 -10 261 12 c 0,4,5
 233 43 233 43 197.5 81.5 c 128,-1,6
 162 120 162 120 149 134.5 c 128,-1,7
 136 149 136 149 110.5 176 c 128,-1,8
 85 203 85 203 73.5 215 c 128,-1,9
 62 227 62 227 50 241 c 0,10,11
 32 264 32 264 32 282.5 c 128,-1,12
 32 301 32 301 44 312.5 c 128,-1,13
 56 324 56 324 75 324 c 128,-1,14
 94 324 94 324 112 303 c 0,15,16
 224 167 224 167 265 121 c 1,17,-1
 265 373 l 1,18,-1
 260 700 l 2,19,20
 260 726 260 726 272.5 743 c 128,-1,21
 285 760 285 760 305 760 c 128,-1,22
 325 760 325 760 338 743 c 128,-1,23
 351 726 351 726 351 700 c 6,0,-1
EndSplineSet
EndChar

StartChar: Thorn
Encoding: 222 222 157
Width: 617
GlyphClass: 2
Flags: W
LayerCount: 2
Fore
SplineSet
209 524 m 1,0,1
 208 487 208 487 208 429.5 c 128,-1,2
 208 372 208 372 210 298 c 1,3,4
 262 284 262 284 329 284 c 128,-1,5
 396 284 396 284 437.5 319 c 128,-1,6
 479 354 479 354 479 411 c 128,-1,7
 479 468 479 468 437 503 c 128,-1,8
 395 538 395 538 328 538 c 128,-1,9
 261 538 261 538 209 524 c 1,0,1
119 375 m 1,10,-1
 113 689 l 2,11,12
 113 760 113 760 164 760 c 128,-1,13
 215 760 215 760 215 689 c 0,14,15
 215 674 215 674 212.5 650.5 c 128,-1,16
 210 627 210 627 210 612 c 1,17,18
 258 625 258 625 328 625 c 0,19,20
 438 625 438 625 506 563.5 c 128,-1,21
 574 502 574 502 574 410.5 c 128,-1,22
 574 319 574 319 506.5 258 c 128,-1,23
 439 197 439 197 329 197 c 0,24,25
 261 197 261 197 210 209 c 1,26,27
 215 96 215 96 215 61 c 0,28,29
 215 -10 215 -10 164 -10 c 128,-1,30
 113 -10 113 -10 113 61 c 2,31,-1
 119 375 l 1,10,-1
EndSplineSet
EndChar

StartChar: germandbls
Encoding: 223 223 158
Width: 614
GlyphClass: 2
Flags: W
LayerCount: 2
Fore
SplineSet
122 426 m 1,0,-1
 82 425 l 2,1,2
 62 425 62 425 48.5 435 c 128,-1,3
 35 445 35 445 35 464 c 128,-1,4
 35 483 35 483 48.5 492.5 c 128,-1,5
 62 502 62 502 76.5 502 c 128,-1,6
 91 502 91 502 121 500 c 1,7,-1
 121 575 l 2,8,9
 121 670 121 670 173 715 c 128,-1,10
 225 760 225 760 306.5 760 c 128,-1,11
 388 760 388 760 435 714.5 c 128,-1,12
 482 669 482 669 482 604 c 0,13,14
 482 560 482 560 452 517 c 128,-1,15
 422 474 422 474 392.5 441 c 128,-1,16
 363 408 363 408 363 385.5 c 128,-1,17
 363 363 363 363 395.5 335 c 128,-1,18
 428 307 428 307 466.5 284.5 c 128,-1,19
 505 262 505 262 537.5 222 c 128,-1,20
 570 182 570 182 570 135 c 0,21,22
 570 70 570 70 524.5 27.5 c 128,-1,23
 479 -15 479 -15 403 -15 c 0,24,25
 349 -15 349 -15 302 10 c 128,-1,26
 255 35 255 35 255 64 c 0,27,28
 255 105 255 105 297 105 c 0,29,30
 310 105 310 105 344.5 84.5 c 128,-1,31
 379 64 379 64 405.5 64 c 128,-1,32
 432 64 432 64 453.5 83 c 128,-1,33
 475 102 475 102 475 132.5 c 128,-1,34
 475 163 475 163 453.5 186 c 128,-1,35
 432 209 432 209 402 227 c 128,-1,36
 372 245 372 245 341.5 264.5 c 128,-1,37
 311 284 311 284 289.5 315.5 c 128,-1,38
 268 347 268 347 268 382 c 128,-1,39
 268 417 268 417 286.5 448 c 128,-1,40
 305 479 305 479 327 501 c 128,-1,41
 349 523 349 523 367.5 551 c 128,-1,42
 386 579 386 579 386 607.5 c 128,-1,43
 386 636 386 636 363 657 c 128,-1,44
 340 678 340 678 302 678 c 128,-1,45
 264 678 264 678 239 652 c 128,-1,46
 214 626 214 626 214 566 c 2,47,-1
 215 48 l 2,48,49
 215 22 215 22 201 6 c 128,-1,50
 187 -10 187 -10 164.5 -10 c 128,-1,51
 142 -10 142 -10 129 5.5 c 128,-1,52
 116 21 116 21 116 45 c 2,53,-1
 122 426 l 1,0,-1
EndSplineSet
EndChar

StartChar: iacute
Encoding: 237 237 162
Width: 502
GlyphClass: 2
Flags: W
LayerCount: 2
Fore
SplineSet
390 661 m 2,0,-1
 300 665 l 1,1,2
 296 568 296 568 296 386.5 c 0,3,4
 296 205 296 205 301 83 c 1,5,-1
 390 88 l 2,6,7
 417 88 417 88 433.5 75.5 c 0,8,9
 450 63 450 63 450 41 c 0,10,11
 450 19 450 19 433.5 6.5 c 0,12,13
 417 -6 417 -6 390 -6 c 2,14,15
 390 -6 390 -6 251 0 c 1,16,17
 251 0 251 0 112 -7 c 0,18,19
 85 -7 85 -7 68.5 5.5 c 0,20,21
 52 18 52 18 52 40 c 0,22,23
 52 62 52 62 68.5 74.5 c 0,24,25
 85 87 85 87 112 87 c 2,26,-1
 201 82 l 1,27,28
 206 204 206 204 206 386 c 0,29,30
 206 568 206 568 202 665 c 1,31,-1
 112 661 l 2,32,33
 85 661 85 661 68.5 673.5 c 0,34,35
 52 686 52 686 52 708 c 0,36,37
 52 730 52 730 68.5 742.5 c 0,38,39
 85 755 85 755 112 755 c 2,40,-1
 251 750 l 1,41,-1
 390 756 l 2,42,43
 417 756 417 756 433.5 743.5 c 0,44,45
 450 731 450 731 450 709 c 0,46,47
 450 687 450 687 433.5 674 c 0,48,49
 417 661 417 661 390 661 c 2,0,-1
EndSplineSet
Refer: 118 180 N 1 0 0 1 115 250 2
EndChar

StartChar: idieresis
Encoding: 239 239 163
Width: 486
GlyphClass: 2
Flags: W
LayerCount: 2
Fore
SplineSet
374 661 m 2,0,-1
 292 665 l 1,1,2
 288 568 288 568 288 386.5 c 128,-1,3
 288 205 288 205 293 83 c 1,4,-1
 374 87 l 2,5,6
 401 87 401 87 417.5 74.5 c 128,-1,7
 434 62 434 62 434 40.5 c 128,-1,8
 434 19 434 19 417.5 6.5 c 128,-1,9
 401 -6 401 -6 374 -6 c 2,10,-1
 243 0 l 1,11,-1
 112 -6 l 2,12,13
 85 -6 85 -6 68.5 6.5 c 128,-1,14
 52 19 52 19 52 40.5 c 128,-1,15
 52 62 52 62 68.5 74.5 c 128,-1,16
 85 87 85 87 112 87 c 2,17,-1
 193 82 l 1,18,19
 198 204 198 204 198 386 c 128,-1,20
 198 568 198 568 194 665 c 1,21,-1
 112 661 l 2,22,23
 85 661 85 661 68.5 674 c 128,-1,24
 52 687 52 687 52 709 c 128,-1,25
 52 731 52 731 68.5 743.5 c 128,-1,26
 85 756 85 756 112 756 c 2,27,-1
 243 750 l 1,28,-1
 374 756 l 2,29,30
 401 756 401 756 417.5 743.5 c 128,-1,31
 434 731 434 731 434 709 c 128,-1,32
 434 687 434 687 417.5 674 c 128,-1,33
 401 661 401 661 374 661 c 2,0,-1
382.5 950 m 128,-1,35
 396 933 396 933 396 907 c 128,-1,36
 396 881 396 881 379 859.5 c 128,-1,37
 362 838 362 838 337.5 838 c 128,-1,38
 313 838 313 838 299 856 c 128,-1,39
 285 874 285 874 285 900 c 128,-1,40
 285 926 285 926 301.5 946.5 c 128,-1,41
 318 967 318 967 343.5 967 c 128,-1,34
 369 967 369 967 382.5 950 c 128,-1,35
187.5 950 m 128,-1,43
 201 933 201 933 201 907 c 128,-1,44
 201 881 201 881 184 859.5 c 128,-1,45
 167 838 167 838 142.5 838 c 128,-1,46
 118 838 118 838 104 856 c 128,-1,47
 90 874 90 874 90 900 c 128,-1,48
 90 926 90 926 106.5 946.5 c 128,-1,49
 123 967 123 967 148.5 967 c 128,-1,42
 174 967 174 967 187.5 950 c 128,-1,43
EndSplineSet
EndChar

StartChar: eth
Encoding: 240 240 164
Width: 621
GlyphClass: 2
Flags: W
LayerCount: 2
Fore
SplineSet
544 300 m 0,0,1
 544 164 544 164 481.5 74.5 c 128,-1,2
 419 -15 419 -15 298 -15 c 0,3,4
 192 -15 192 -15 127.5 58 c 128,-1,5
 63 131 63 131 63 230.5 c 128,-1,6
 63 330 63 330 127 409.5 c 128,-1,7
 191 489 191 489 293 489 c 0,8,9
 374 489 374 489 440 432 c 1,10,11
 410 533 410 533 338 595 c 0,12,13
 336 593 336 593 316 569.5 c 128,-1,14
 296 546 296 546 281 536 c 128,-1,15
 266 526 266 526 249 526 c 128,-1,16
 232 526 232 526 220.5 536.5 c 128,-1,17
 209 547 209 547 209 559.5 c 128,-1,18
 209 572 209 572 217.5 583.5 c 128,-1,19
 226 595 226 595 234.5 602.5 c 128,-1,20
 243 610 243 610 259.5 622 c 128,-1,21
 276 634 276 634 279 637 c 1,22,23
 256 650 256 650 219 654.5 c 128,-1,24
 182 659 182 659 168 664 c 0,25,26
 138 672 138 672 138 701 c 0,27,28
 138 717 138 717 152.5 729 c 128,-1,29
 167 741 167 741 194 741 c 0,30,31
 267 741 267 741 341 696 c 1,32,33
 384 739 384 739 398.5 749.5 c 128,-1,34
 413 760 413 760 429.5 760 c 128,-1,35
 446 760 446 760 457.5 750 c 128,-1,36
 469 740 469 740 469 725.5 c 128,-1,37
 469 711 469 711 461 699 c 128,-1,38
 453 687 453 687 446 680.5 c 128,-1,39
 439 674 439 674 422.5 662.5 c 128,-1,40
 406 651 406 651 403 648 c 1,41,42
 472 587 472 587 508 494 c 128,-1,43
 544 401 544 401 544 300 c 0,0,1
401 120 m 128,-1,45
 442 168 442 168 442 236.5 c 128,-1,46
 442 305 442 305 405.5 353.5 c 128,-1,47
 369 402 369 402 306 402 c 128,-1,48
 243 402 243 402 201 352 c 128,-1,49
 159 302 159 302 159 231.5 c 128,-1,50
 159 161 159 161 198.5 116.5 c 128,-1,51
 238 72 238 72 299 72 c 128,-1,44
 360 72 360 72 401 120 c 128,-1,45
EndSplineSet
EndChar

StartChar: ntilde
Encoding: 241 241 165
Width: 805
GlyphClass: 2
Flags: W
LayerCount: 2
Fore
SplineSet
670 497 m 2,0,-1
 663 215 l 2,1,2
 663 177 663 177 664 158 c 128,-1,3
 665 139 665 139 672 118 c 128,-1,4
 679 97 679 97 693 91 c 0,5,6
 701 87 701 87 712 85.5 c 128,-1,7
 723 84 723 84 728 81 c 128,-1,8
 733 78 733 78 733 70 c 0,9,10
 733 35 733 35 711 11.5 c 128,-1,11
 689 -12 689 -12 659 -12 c 0,12,13
 607 -12 607 -12 587.5 28 c 128,-1,14
 568 68 568 68 568 147 c 2,15,-1
 574 431 l 2,16,17
 574 540 574 540 536 605.5 c 128,-1,18
 498 671 498 671 425.5 671 c 128,-1,19
 353 671 353 671 285 583.5 c 128,-1,20
 217 496 217 496 191 385 c 1,21,-1
 195 57 l 2,22,23
 195 -12 195 -12 144 -12 c 0,24,25
 82 -12 82 -12 82 92.5 c 128,-1,26
 82 197 82 197 109 385 c 1,27,28
 109 450 109 450 97.5 561.5 c 128,-1,29
 86 673 86 673 86 698 c 128,-1,30
 86 723 86 723 100 741.5 c 128,-1,31
 114 760 114 760 138.5 760 c 128,-1,32
 163 760 163 760 177 741.5 c 128,-1,33
 191 723 191 723 191 700 c 128,-1,34
 191 677 191 677 190.5 644.5 c 128,-1,35
 190 612 190 612 190 589 c 1,36,37
 288 760 288 760 438 760 c 0,38,39
 549 760 549 760 609.5 683.5 c 128,-1,40
 670 607 670 607 670 497 c 2,0,-1
596 927 m 0,41,42
 596 891 596 891 565 864 c 128,-1,43
 534 837 534 837 495 837 c 128,-1,44
 456 837 456 837 402 868 c 0,45,46
 358 890 358 890 336 890 c 128,-1,47
 314 890 314 890 289.5 860.5 c 128,-1,48
 265 831 265 831 244.5 831 c 128,-1,49
 224 831 224 831 211.5 843.5 c 128,-1,50
 199 856 199 856 199 874 c 0,51,52
 199 910 199 910 236 938.5 c 128,-1,53
 273 967 273 967 322 967 c 128,-1,54
 371 967 371 967 424 939.5 c 128,-1,55
 477 912 477 912 494.5 912 c 128,-1,56
 512 912 512 912 532.5 937 c 128,-1,57
 553 962 553 962 566.5 962 c 128,-1,58
 580 962 580 962 588 951.5 c 128,-1,59
 596 941 596 941 596 927 c 0,41,42
EndSplineSet
EndChar

StartChar: oacute
Encoding: 243 243 167
Width: 824
GlyphClass: 2
Flags: W
LayerCount: 2
Fore
SplineSet
586.5 164 m 128,-1,1
 656 256 656 256 656 377 c 128,-1,2
 656 498 656 498 587 588.5 c 128,-1,3
 518 679 518 679 412.5 679 c 128,-1,4
 307 679 307 679 237.5 588.5 c 128,-1,5
 168 498 168 498 168 377.5 c 128,-1,6
 168 257 168 257 238 164.5 c 128,-1,7
 308 72 308 72 412.5 72 c 128,-1,0
 517 72 517 72 586.5 164 c 128,-1,1
752 376 m 128,-1,9
 752 213 752 213 654.5 99 c 128,-1,10
 557 -15 557 -15 411.5 -15 c 128,-1,11
 266 -15 266 -15 169 99 c 128,-1,12
 72 213 72 213 72 376 c 128,-1,13
 72 539 72 539 170 652 c 128,-1,14
 268 765 268 765 413.5 765 c 128,-1,15
 559 765 559 765 655.5 652 c 128,-1,8
 752 539 752 539 752 376 c 128,-1,9
522 946 m 0,16,17
 522 902 522 902 474.5 857.5 c 128,-1,18
 427 813 427 813 395 813 c 0,19,20
 379 813 379 813 370.5 821 c 128,-1,21
 362 829 362 829 362 841 c 128,-1,22
 362 853 362 853 386 882.5 c 128,-1,23
 410 912 410 912 419 932 c 128,-1,24
 428 952 428 952 433.5 961.5 c 128,-1,25
 439 971 439 971 451.5 980.5 c 128,-1,26
 464 990 464 990 481.5 990 c 128,-1,27
 499 990 499 990 510.5 976.5 c 128,-1,28
 522 963 522 963 522 946 c 0,16,17
EndSplineSet
EndChar

StartChar: divide
Encoding: 247 247 169
Width: 628
GlyphClass: 2
Flags: W
LayerCount: 2
Fore
SplineSet
314 406 m 1,0,-1
 511 409 l 2,1,2
 529 409 529 409 540.5 399 c 128,-1,3
 552 389 552 389 552 374 c 128,-1,4
 552 359 552 359 540.5 349 c 128,-1,5
 529 339 529 339 511 339 c 2,6,-1
 314 342 l 1,7,-1
 117 339 l 2,8,9
 99 339 99 339 87.5 349 c 128,-1,10
 76 359 76 359 76 374 c 128,-1,11
 76 389 76 389 87.5 399 c 128,-1,12
 99 409 99 409 117 409 c 2,13,14
 117 409 117 409 314 406 c 1,0,-1
355.5 598 m 128,-1,16
 369 581 369 581 369 554.5 c 128,-1,17
 369 528 369 528 352 507 c 128,-1,18
 335 486 335 486 310.5 486 c 128,-1,19
 286 486 286 486 272 504 c 128,-1,20
 258 522 258 522 258 548 c 128,-1,21
 258 574 258 574 274.5 594.5 c 128,-1,22
 291 615 291 615 316.5 615 c 128,-1,15
 342 615 342 615 355.5 598 c 128,-1,16
357.5 245 m 128,-1,24
 371 228 371 228 371 202 c 128,-1,25
 371 176 371 176 354 154.5 c 128,-1,26
 337 133 337 133 312.5 133 c 128,-1,27
 288 133 288 133 274 151 c 128,-1,28
 260 169 260 169 260 195 c 128,-1,29
 260 221 260 221 276.5 241.5 c 128,-1,30
 293 262 293 262 318.5 262 c 128,-1,23
 344 262 344 262 357.5 245 c 128,-1,24
EndSplineSet
EndChar

StartChar: oslash
Encoding: 248 248 170
Width: 824
GlyphClass: 2
Flags: W
LayerCount: 2
Fore
SplineSet
656 376 m 0,0,1
 656 464 656 464 618 539 c 128,-1,2
 580 614 580 614 516 651 c 1,3,4
 431 329 431 329 376 75 c 1,5,6
 392 72 392 72 412 72 c 0,7,8
 517 72 517 72 586.5 164 c 128,-1,9
 656 256 656 256 656 376 c 0,0,1
429 678 m 1,10,-1
 412 679 l 1,11,12
 307 679 307 679 237.5 588.5 c 128,-1,13
 168 498 168 498 168 376 c 0,14,15
 168 297 168 297 201 225 c 128,-1,16
 234 153 234 153 291 112 c 1,17,18
 327 224 327 224 429 678 c 1,10,-1
752 376 m 0,19,20
 752 213 752 213 654.5 99 c 128,-1,21
 557 -15 557 -15 411 -15 c 0,22,23
 393 -15 393 -15 357 -11 c 1,24,25
 339 -84 339 -84 298 -84 c 0,26,27
 279 -84 279 -84 267.5 -70 c 128,-1,28
 256 -56 256 -56 256 -33.5 c 128,-1,29
 256 -11 256 -11 267 20 c 1,30,31
 178 66 178 66 125 162 c 128,-1,32
 72 258 72 258 72 376 c 0,33,34
 72 539 72 539 170 652 c 128,-1,35
 268 765 268 765 413 765 c 0,36,37
 425 765 425 765 447 763 c 1,38,39
 457 803 457 803 470 819 c 128,-1,40
 483 835 483 835 504 835 c 128,-1,41
 525 835 525 835 536.5 821 c 128,-1,42
 548 807 548 807 548 787 c 128,-1,43
 548 767 548 767 538 739 c 1,44,45
 635 697 635 697 693.5 598 c 128,-1,46
 752 499 752 499 752 376 c 0,19,20
EndSplineSet
EndChar

StartChar: yacute
Encoding: 253 253 172
Width: 607
GlyphClass: 2
Flags: W
LayerCount: 2
Fore
SplineSet
347 303 m 1,0,1
 347 223 347 223 350 142 c 2,2,-1
 352 61 l 2,3,4
 352 -10 352 -10 301 -10 c 128,-1,5
 250 -10 250 -10 250 61 c 2,6,-1
 252 144 l 2,7,8
 255 227 255 227 255 304 c 1,9,10
 56 646 56 646 43 673 c 128,-1,11
 30 700 30 700 30 717 c 128,-1,12
 30 734 30 734 42 747 c 128,-1,13
 54 760 54 760 76.5 760 c 128,-1,14
 99 760 99 760 115 738.5 c 128,-1,15
 131 717 131 717 189.5 603 c 128,-1,16
 248 489 248 489 306 401 c 1,17,18
 330 437 330 437 390.5 549 c 128,-1,19
 451 661 451 661 460.5 677.5 c 128,-1,20
 470 694 470 694 474 701.5 c 128,-1,21
 478 709 478 709 485.5 721 c 128,-1,22
 493 733 493 733 497.5 738.5 c 128,-1,23
 502 744 502 744 508 750 c 0,24,25
 518 760 518 760 536 760 c 128,-1,26
 554 760 554 760 565.5 748 c 128,-1,27
 577 736 577 736 577 719 c 128,-1,28
 577 702 577 702 562.5 674.5 c 128,-1,29
 548 647 548 647 499.5 564 c 128,-1,30
 451 481 451 481 437 457.5 c 128,-1,31
 423 434 423 434 397.5 389.5 c 128,-1,32
 372 345 372 345 347 303 c 1,0,1
413 946 m 0,33,34
 413 902 413 902 365.5 857.5 c 128,-1,35
 318 813 318 813 286 813 c 0,36,37
 270 813 270 813 261.5 821 c 128,-1,38
 253 829 253 829 253 841 c 128,-1,39
 253 853 253 853 277 882.5 c 128,-1,40
 301 912 301 912 310 932 c 128,-1,41
 319 952 319 952 324.5 961.5 c 128,-1,42
 330 971 330 971 342.5 980.5 c 128,-1,43
 355 990 355 990 372.5 990 c 128,-1,44
 390 990 390 990 401.5 976.5 c 128,-1,45
 413 963 413 963 413 946 c 0,33,34
EndSplineSet
EndChar

StartChar: thorn
Encoding: 254 254 173
Width: 617
GlyphClass: 2
Flags: W
LayerCount: 2
Fore
SplineSet
209 524 m 1,0,1
 208 487 208 487 208 429.5 c 128,-1,2
 208 372 208 372 210 298 c 1,3,4
 262 284 262 284 329 284 c 128,-1,5
 396 284 396 284 437.5 319 c 128,-1,6
 479 354 479 354 479 411 c 128,-1,7
 479 468 479 468 437 503 c 128,-1,8
 395 538 395 538 328 538 c 128,-1,9
 261 538 261 538 209 524 c 1,0,1
119 375 m 1,10,-1
 113 689 l 2,11,12
 113 760 113 760 164 760 c 128,-1,13
 215 760 215 760 215 689 c 0,14,15
 215 674 215 674 212.5 650.5 c 128,-1,16
 210 627 210 627 210 612 c 1,17,18
 258 625 258 625 328 625 c 0,19,20
 438 625 438 625 506 563.5 c 128,-1,21
 574 502 574 502 574 410.5 c 128,-1,22
 574 319 574 319 506.5 258 c 128,-1,23
 439 197 439 197 329 197 c 0,24,25
 261 197 261 197 210 209 c 1,26,27
 215 96 215 96 215 61 c 0,28,29
 215 -10 215 -10 164 -10 c 128,-1,30
 113 -10 113 -10 113 61 c 2,31,-1
 119 375 l 1,10,-1
EndSplineSet
EndChar

StartChar: Hbar
Encoding: 294 294 175
Width: 802
GlyphClass: 2
Flags: W
LayerCount: 2
Fore
SplineSet
569 353 m 1,0,-1
 397 355 l 2,1,2
 282 355 282 355 230 354 c 1,3,4
 230 275 230 275 233 170.5 c 128,-1,5
 236 66 236 66 236 61 c 0,6,7
 236 -10 236 -10 185 -10 c 128,-1,8
 134 -10 134 -10 134 61 c 0,9,10
 134 66 134 66 137 169 c 128,-1,11
 140 272 140 272 140 351 c 1,12,13
 76 351 76 351 76 396 c 0,14,15
 76 417 76 417 92.5 429.5 c 128,-1,16
 109 442 109 442 140 442 c 1,17,18
 140 477 140 477 137 600 c 1,19,-1
 81 600 l 2,20,21
 59 600 59 600 45.5 611 c 128,-1,22
 32 622 32 622 32 640 c 128,-1,23
 32 658 32 658 45.5 669 c 128,-1,24
 59 680 59 680 81 680 c 2,25,-1
 134 680 l 1,26,27
 134 760 134 760 185 760 c 128,-1,28
 236 760 236 760 236 679 c 1,29,-1
 401 677 l 1,30,-1
 564 679 l 1,31,32
 564 760 564 760 615 760 c 128,-1,33
 666 760 666 760 666 680 c 1,34,-1
 721 680 l 2,35,36
 743 680 743 680 756.5 669 c 128,-1,37
 770 658 770 658 770 640 c 128,-1,38
 770 622 770 622 756.5 611 c 128,-1,39
 743 600 743 600 721 600 c 2,40,-1
 663 600 l 1,41,42
 660 540 660 540 660 443 c 1,43,44
 690 443 690 443 707.5 430 c 128,-1,45
 725 417 725 417 725 396 c 128,-1,46
 725 375 725 375 707.5 362.5 c 128,-1,47
 690 350 690 350 660 350 c 1,48,49
 660 271 660 271 663 168.5 c 128,-1,50
 666 66 666 66 666 61 c 0,51,52
 666 -10 666 -10 615 -10 c 128,-1,53
 564 -10 564 -10 564 61 c 2,54,-1
 569 353 l 1,0,-1
569 439 m 1,55,56
 569 538 569 538 566 601 c 1,57,58
 507 603 507 603 400 603 c 128,-1,59
 293 603 293 603 233 601 c 1,60,61
 230 538 230 538 230 439 c 1,62,63
 328 437 328 437 424.5 437 c 128,-1,64
 521 437 521 437 569 439 c 1,55,56
EndSplineSet
EndChar

StartChar: itilde
Encoding: 297 297 177
Width: 486
GlyphClass: 2
Flags: W
LayerCount: 2
Fore
SplineSet
374 661 m 2,0,-1
 292 665 l 1,1,2
 288 568 288 568 288 386.5 c 128,-1,3
 288 205 288 205 293 83 c 1,4,-1
 374 87 l 2,5,6
 401 87 401 87 417.5 74.5 c 128,-1,7
 434 62 434 62 434 40.5 c 128,-1,8
 434 19 434 19 417.5 6.5 c 128,-1,9
 401 -6 401 -6 374 -6 c 2,10,-1
 243 0 l 1,11,-1
 112 -6 l 2,12,13
 85 -6 85 -6 68.5 6.5 c 128,-1,14
 52 19 52 19 52 40.5 c 128,-1,15
 52 62 52 62 68.5 74.5 c 128,-1,16
 85 87 85 87 112 87 c 2,17,-1
 193 82 l 1,18,19
 198 204 198 204 198 386 c 128,-1,20
 198 568 198 568 194 665 c 1,21,-1
 112 661 l 2,22,23
 85 661 85 661 68.5 674 c 128,-1,24
 52 687 52 687 52 709 c 128,-1,25
 52 731 52 731 68.5 743.5 c 128,-1,26
 85 756 85 756 112 756 c 2,27,-1
 243 750 l 1,28,-1
 374 756 l 2,29,30
 401 756 401 756 417.5 743.5 c 128,-1,31
 434 731 434 731 434 709 c 128,-1,32
 434 687 434 687 417.5 674 c 128,-1,33
 401 661 401 661 374 661 c 2,0,-1
442 924 m 0,34,35
 442 888 442 888 411 861 c 128,-1,36
 380 834 380 834 341 834 c 128,-1,37
 302 834 302 834 248 865 c 0,38,39
 204 887 204 887 182 887 c 128,-1,40
 160 887 160 887 135.5 857.5 c 128,-1,41
 111 828 111 828 90.5 828 c 128,-1,42
 70 828 70 828 57.5 840.5 c 128,-1,43
 45 853 45 853 45 871 c 0,44,45
 45 907 45 907 82 935.5 c 128,-1,46
 119 964 119 964 168 964 c 128,-1,47
 217 964 217 964 270 936.5 c 128,-1,48
 323 909 323 909 340.5 909 c 128,-1,49
 358 909 358 909 378.5 934 c 128,-1,50
 399 959 399 959 412.5 959 c 128,-1,51
 426 959 426 959 434 948.5 c 128,-1,52
 442 938 442 938 442 924 c 0,34,35
EndSplineSet
EndChar

StartChar: jcircumflex
Encoding: 309 309 179
Width: 593
GlyphClass: 2
Flags: W
LayerCount: 2
Fore
SplineSet
328 750 m 1,0,-1
 477 756 l 2,1,2
 504 756 504 756 520.5 743.5 c 128,-1,3
 537 731 537 731 537 709.5 c 128,-1,4
 537 688 537 688 518 675 c 128,-1,5
 499 662 499 662 469 662 c 1,6,7
 468 600 468 600 468 257 c 0,8,9
 468 184 468 184 447.5 129 c 128,-1,10
 427 74 427 74 393 44 c 0,11,12
 326 -15 326 -15 240.5 -15 c 128,-1,13
 155 -15 155 -15 100.5 19.5 c 128,-1,14
 46 54 46 54 46 87 c 0,15,16
 46 106 46 106 57 117.5 c 128,-1,17
 68 129 68 129 86 129 c 128,-1,18
 104 129 104 129 122 115 c 128,-1,19
 140 101 140 101 168 86.5 c 128,-1,20
 196 72 196 72 237 72 c 0,21,22
 295 72 295 72 336.5 121.5 c 128,-1,23
 378 171 378 171 378 278 c 2,24,-1
 375 667 l 1,25,26
 312 667 312 667 261 664 c 128,-1,27
 210 661 210 661 191 661 c 128,-1,28
 172 661 172 661 155.5 673.5 c 128,-1,29
 139 686 139 686 139 708 c 128,-1,30
 139 730 139 730 155.5 742.5 c 128,-1,31
 172 755 172 755 199 755 c 2,32,-1
 328 750 l 1,0,-1
426 842 m 0,33,34
 357 923 357 923 342 923 c 256,35,36
 327 923 327 923 263 846 c 0,37,38
 258 840 258 840 256 838 c 2,39,-1
 248 830 l 2,40,41
 235 817 235 817 217.5 817 c 128,-1,42
 200 817 200 817 189 827.5 c 128,-1,43
 178 838 178 838 178 856.5 c 128,-1,44
 178 875 178 875 204 896.5 c 128,-1,45
 230 918 230 918 256.5 948 c 128,-1,46
 283 978 283 978 302 994 c 128,-1,47
 321 1010 321 1010 342.5 1010 c 128,-1,48
 364 1010 364 1010 383.5 994 c 128,-1,49
 403 978 403 978 429 948 c 128,-1,50
 455 918 455 918 481.5 896 c 128,-1,51
 508 874 508 874 508 856 c 128,-1,52
 508 838 508 838 497 827.5 c 128,-1,53
 486 817 486 817 473 817 c 128,-1,54
 460 817 460 817 452 822 c 0,55,56
 438 829 438 829 426 842 c 0,33,34
EndSplineSet
EndChar

StartChar: kgreenlandic
Encoding: 312 312 180
Width: 688
GlyphClass: 2
Flags: W
LayerCount: 2
Fore
SplineSet
208 337 m 1,0,-1
 213 47 l 2,1,2
 213 23 213 23 198 6.5 c 128,-1,3
 183 -10 183 -10 162.5 -10 c 128,-1,4
 142 -10 142 -10 127.5 6.5 c 128,-1,5
 113 23 113 23 113 47 c 2,6,7
 113 47 113 47 117 372 c 1,8,-1
 113 702 l 2,9,10
 113 726 113 726 127.5 742.5 c 128,-1,11
 142 759 142 759 162.5 759 c 128,-1,12
 183 759 183 759 198 742.5 c 128,-1,13
 213 726 213 726 213 702 c 2,14,-1
 210 612 l 2,15,16
 208 522 208 522 208 434 c 1,17,18
 235 442 235 442 277 442 c 1,19,-1
 333 436 l 1,20,21
 380 471 380 471 428.5 556.5 c 128,-1,22
 477 642 477 642 493 714 c 0,23,24
 504 760 504 760 541 760 c 0,25,26
 558 760 558 760 570.5 747 c 128,-1,27
 583 734 583 734 583 715 c 0,28,29
 583 653 583 653 527.5 552 c 128,-1,30
 472 451 472 451 408 386 c 1,31,32
 510 202 510 202 575 119 c 0,33,34
 610 75 610 75 641 75 c 2,35,-1
 652 76 l 2,36,37
 659 76 659 76 659 54 c 128,-1,38
 659 32 659 32 641 11 c 128,-1,39
 623 -10 623 -10 595 -10 c 128,-1,40
 567 -10 567 -10 540 14 c 0,41,42
 485 61 485 61 324 341 c 1,43,-1
 260 334 l 2,44,45
 224 334 224 334 208 337 c 1,0,-1
EndSplineSet
EndChar

StartChar: Ldot
Encoding: 319 319 181
Width: 594
GlyphClass: 2
Flags: W
LayerCount: 2
Fore
SplineSet
408.5 428 m 128,-1,1
 422 411 422 411 422 384.5 c 128,-1,2
 422 358 422 358 405 337 c 128,-1,3
 388 316 388 316 363.5 316 c 128,-1,4
 339 316 339 316 325 334 c 128,-1,5
 311 352 311 352 311 378 c 128,-1,6
 311 404 311 404 327.5 424.5 c 128,-1,7
 344 445 344 445 369.5 445 c 128,-1,0
 395 445 395 445 408.5 428 c 128,-1,1
115 54 m 2,8,-1
 119 380 l 2,9,10
 119 511 119 511 116 596 c 128,-1,11
 113 681 113 681 113 689 c 0,12,13
 113 760 113 760 164 760 c 128,-1,14
 215 760 215 760 215 689 c 0,15,16
 215 681 215 681 214 638 c 0,17,18
 209 511 209 511 209 405.5 c 128,-1,19
 209 300 209 300 210 240.5 c 128,-1,20
 211 181 211 181 213 139.5 c 128,-1,21
 215 98 215 98 215 87 c 1,22,23
 263 82 263 82 319 82 c 128,-1,24
 375 82 375 82 428 85.5 c 128,-1,25
 481 89 481 89 497.5 89 c 128,-1,26
 514 89 514 89 530.5 76.5 c 128,-1,27
 547 64 547 64 547 42 c 128,-1,28
 547 20 547 20 530.5 7.5 c 128,-1,29
 514 -5 514 -5 487 -5 c 2,30,-1
 338 0 l 1,31,-1
 176 -5 l 2,32,33
 146 -5 146 -5 130.5 7.5 c 128,-1,34
 115 20 115 20 115 54 c 2,8,-1
EndSplineSet
EndChar

StartChar: lslash
Encoding: 322 322 182
Width: 611
GlyphClass: 2
Flags: W
LayerCount: 2
Fore
SplineSet
135 449 m 1,0,-1
 130 689 l 2,1,2
 130 760 130 760 181 760 c 128,-1,3
 232 760 232 760 232 689 c 0,4,5
 232 682 232 682 231 660 c 0,6,7
 228 587 228 587 226 527 c 1,8,-1
 285 582 l 2,9,10
 302 599 302 599 319 599 c 128,-1,11
 336 599 336 599 348.5 586.5 c 128,-1,12
 361 574 361 574 361 557 c 128,-1,13
 361 540 361 540 339 522 c 2,14,-1
 226 429 l 1,15,-1
 226 380 l 2,16,17
 226 222 226 222 229 160 c 128,-1,18
 232 98 232 98 232 87 c 1,19,20
 280 82 280 82 336.5 82 c 128,-1,21
 393 82 393 82 445.5 85.5 c 128,-1,22
 498 89 498 89 514.5 89 c 128,-1,23
 531 89 531 89 547.5 76.5 c 128,-1,24
 564 64 564 64 564 42 c 128,-1,25
 564 20 564 20 547.5 7.5 c 128,-1,26
 531 -5 531 -5 504 -5 c 2,27,-1
 356 0 l 1,28,-1
 193 -5 l 2,29,30
 163 -5 163 -5 147.5 7.5 c 128,-1,31
 132 20 132 20 132 54 c 0,32,33
 132 62 132 62 133 102 c 0,34,35
 135 182 135 182 135 350 c 1,36,-1
 99 317 l 2,37,38
 82 302 82 302 65 302 c 128,-1,39
 48 302 48 302 36 313.5 c 128,-1,40
 24 325 24 325 24 343 c 128,-1,41
 24 361 24 361 44 377 c 2,42,-1
 135 449 l 1,0,-1
EndSplineSet
EndChar

StartChar: Nacute
Encoding: 323 323 183
Width: 743
GlyphClass: 2
Flags: W
LayerCount: 2
Fore
SplineSet
626 372 m 2,0,-1
 629 62 l 2,1,2
 629 -10 629 -10 576 -10 c 0,3,4
 543 -10 543 -10 526 21 c 2,5,-1
 209 567 l 1,6,7
 209 334 209 334 211.5 195 c 128,-1,8
 214 56 214 56 214 39.5 c 128,-1,9
 214 23 214 23 199 6.5 c 128,-1,10
 184 -10 184 -10 163.5 -10 c 128,-1,11
 143 -10 143 -10 128.5 6.5 c 128,-1,12
 114 23 114 23 114 48 c 2,13,-1
 118 372 l 2,14,15
 118 475 118 475 115.5 581 c 128,-1,16
 113 687 113 687 113 689 c 0,17,18
 113 760 113 760 164 760 c 0,19,20
 201 760 201 760 219 729 c 0,21,22
 510 229 510 229 536 189 c 1,23,24
 536 472 536 472 533 579 c 128,-1,25
 530 686 530 686 530 689 c 0,26,27
 530 760 530 760 581 760 c 128,-1,28
 632 760 632 760 632 689 c 0,29,30
 632 681 632 681 630 636 c 0,31,32
 626 503 626 503 626 372 c 2,0,-1
491 947 m 0,33,34
 491 903 491 903 443.5 858.5 c 128,-1,35
 396 814 396 814 364 814 c 0,36,37
 348 814 348 814 339.5 822 c 128,-1,38
 331 830 331 830 331 842 c 128,-1,39
 331 854 331 854 355 883.5 c 128,-1,40
 379 913 379 913 388 933 c 128,-1,41
 397 953 397 953 402.5 962.5 c 128,-1,42
 408 972 408 972 420.5 981.5 c 128,-1,43
 433 991 433 991 450.5 991 c 128,-1,44
 468 991 468 991 479.5 977.5 c 128,-1,45
 491 964 491 964 491 947 c 0,33,34
EndSplineSet
EndChar

